<?xml version="1.0" encoding="utf-8" standalone="no"?>
<!DOCTYPE svg PUBLIC "-//W3C//DTD SVG 1.1//EN"
  "http://www.w3.org/Graphics/SVG/1.1/DTD/svg11.dtd">
<svg xmlns:xlink="http://www.w3.org/1999/xlink" width="264.754672pt" height="268.992pt" viewBox="0 0 264.754672 268.992" xmlns="http://www.w3.org/2000/svg" version="1.1">
 <metadata>
  <rdf:RDF xmlns:dc="http://purl.org/dc/elements/1.1/" xmlns:cc="http://creativecommons.org/ns#" xmlns:rdf="http://www.w3.org/1999/02/22-rdf-syntax-ns#">
   <cc:Work>
    <dc:type rdf:resource="http://purl.org/dc/dcmitype/StillImage"/>
    <dc:date>2026-06-26T12:46:04.620818</dc:date>
    <dc:format>image/svg+xml</dc:format>
    <dc:creator>
     <cc:Agent>
      <dc:title>Matplotlib v3.10.9, https://matplotlib.org/</dc:title>
     </cc:Agent>
    </dc:creator>
   </cc:Work>
  </rdf:RDF>
 </metadata>
 <defs>
  <style type="text/css">*{stroke-linejoin: round; stroke-linecap: butt}</style>
 </defs>
 <g id="figure_1">
  <g id="patch_1">
   <path d="M 0 268.992 
L 264.754672 268.992 
L 264.754672 0 
L 0 0 
z
" style="fill: #ffffff"/>
  </g>
  <g id="axes_1">
   <g id="line2d_1">
    <path d="M 20.515656 215.103933 
L 102.383979 251.060385 
" clip-path="url(#p057172ce68)" style="fill: none; stroke: #4c78a8; stroke-width: 2.2; stroke-linecap: square"/>
   </g>
   <g id="line2d_2">
    <path d="M 20.515656 215.103933 
L 186.252351 161.81629 
" clip-path="url(#p057172ce68)" style="fill: none; stroke: #d55e00; stroke-width: 2.2; stroke-linecap: square"/>
   </g>
   <g id="line2d_3">
    <path d="M 13.343394 242.871176 
L 102.383979 251.060385 
" clip-path="url(#p057172ce68)" style="fill: none; stroke: #4c78a8; stroke-width: 2.2; stroke-linecap: square"/>
   </g>
   <g id="line2d_4">
    <path d="M 13.343394 242.871176 
L 150.898883 128.59238 
" clip-path="url(#p057172ce68)" style="fill: none; stroke: #009e73; stroke-width: 2.2; stroke-linecap: square"/>
   </g>
   <g id="line2d_5">
    <path d="M 102.383979 251.060385 
L 251.411278 152.206859 
" clip-path="url(#p057172ce68)" style="fill: none; stroke: #009e73; stroke-width: 2.2; stroke-linecap: square"/>
   </g>
   <g id="line2d_6">
    <path d="M 251.411278 152.206859 
L 81.933241 112.389527 
" clip-path="url(#p057172ce68)" style="fill: none; stroke: #d55e00; stroke-width: 2.2; stroke-linecap: square"/>
   </g>
   <g id="line2d_7">
    <path d="M 191.800359 180.216951 
L 141.544161 13.536 
" clip-path="url(#p057172ce68)" style="fill: none; stroke: #d55e00; stroke-width: 2.2; stroke-linecap: square"/>
   </g>
   <g id="line2d_8">
    <path d="M 76.385233 178.019144 
L 195.607072 51.155524 
" clip-path="url(#p057172ce68)" style="fill: none; stroke: #d55e00; stroke-width: 2.2; stroke-linecap: square"/>
   </g>
   <g id="text_1">
    <path d="M 11.364906 212.667933 
L 11.364906 215.103933 
L 10.606281 215.103933 
L 10.606281 208.763245 
L 11.364906 208.763245 
L 11.364906 209.460183 
Q 11.603781 209.050683 11.966031 208.852495 
Q 12.329593 208.652995 12.833593 208.652995 
Q 13.670968 208.652995 14.193343 209.31712 
Q 14.717031 209.981245 14.717031 211.064058 
Q 14.717031 212.14687 14.193343 212.812308 
Q 13.670968 213.476433 12.833593 213.476433 
Q 12.329593 213.476433 11.966031 213.276933 
Q 11.603781 213.077433 11.364906 212.667933 
z
M 13.933468 211.064058 
Q 13.933468 210.231933 13.590906 209.75812 
Q 13.248343 209.284308 12.649843 209.284308 
Q 12.050031 209.284308 11.707468 209.75812 
Q 11.364906 210.231933 11.364906 211.064058 
Q 11.364906 211.896183 11.707468 212.369995 
Q 12.050031 212.843808 12.649843 212.843808 
Q 13.248343 212.843808 13.590906 212.369995 
Q 13.933468 211.896183 13.933468 211.064058 
z
" style="fill: #111827; stroke: #ffffff; stroke-width: 2.4"/>
    <path d="M 11.364906 212.667933 
L 11.364906 215.103933 
L 10.606281 215.103933 
L 10.606281 208.763245 
L 11.364906 208.763245 
L 11.364906 209.460183 
Q 11.603781 209.050683 11.966031 208.852495 
Q 12.329593 208.652995 12.833593 208.652995 
Q 13.670968 208.652995 14.193343 209.31712 
Q 14.717031 209.981245 14.717031 211.064058 
Q 14.717031 212.14687 14.193343 212.812308 
Q 13.670968 213.476433 12.833593 213.476433 
Q 12.329593 213.476433 11.966031 213.276933 
Q 11.603781 213.077433 11.364906 212.667933 
z
M 13.933468 211.064058 
Q 13.933468 210.231933 13.590906 209.75812 
Q 13.248343 209.284308 12.649843 209.284308 
Q 12.050031 209.284308 11.707468 209.75812 
Q 11.364906 210.231933 11.364906 211.064058 
Q 11.364906 211.896183 11.707468 212.369995 
Q 12.050031 212.843808 12.649843 212.843808 
Q 13.248343 212.843808 13.590906 212.369995 
Q 13.933468 211.896183 13.933468 211.064058 
z
" style="fill: #111827"/>
   </g>
   <g id="text_2">
    <path d="M 3.914394 238.831301 
Q 3.914394 239.663426 4.256957 240.137239 
Q 4.599519 240.611051 5.198019 240.611051 
Q 5.796519 240.611051 6.140394 240.137239 
Q 6.485582 239.663426 6.485582 238.831301 
Q 6.485582 237.999176 6.140394 237.525364 
Q 5.796519 237.051551 5.198019 237.051551 
Q 4.599519 237.051551 4.256957 237.525364 
Q 3.914394 237.999176 3.914394 238.831301 
z
M 6.485582 240.435176 
Q 6.248019 240.844676 5.884457 241.044176 
Q 5.522207 241.243676 5.012957 241.243676 
Q 4.180832 241.243676 3.657144 240.579551 
Q 3.134769 239.914114 3.134769 238.831301 
Q 3.134769 237.748489 3.657144 237.084364 
Q 4.180832 236.420239 5.012957 236.420239 
Q 5.522207 236.420239 5.884457 236.619739 
Q 6.248019 236.817926 6.485582 237.227426 
L 6.485582 236.530489 
L 7.240269 236.530489 
L 7.240269 242.871176 
L 6.485582 242.871176 
L 6.485582 240.435176 
z
" style="fill: #111827; stroke: #ffffff; stroke-width: 2.4"/>
    <path d="M 3.914394 238.831301 
Q 3.914394 239.663426 4.256957 240.137239 
Q 4.599519 240.611051 5.198019 240.611051 
Q 5.796519 240.611051 6.140394 240.137239 
Q 6.485582 239.663426 6.485582 238.831301 
Q 6.485582 237.999176 6.140394 237.525364 
Q 5.796519 237.051551 5.198019 237.051551 
Q 4.599519 237.051551 4.256957 237.525364 
Q 3.914394 237.999176 3.914394 238.831301 
z
M 6.485582 240.435176 
Q 6.248019 240.844676 5.884457 241.044176 
Q 5.522207 241.243676 5.012957 241.243676 
Q 4.180832 241.243676 3.657144 240.579551 
Q 3.134769 239.914114 3.134769 238.831301 
Q 3.134769 237.748489 3.657144 237.084364 
Q 4.180832 236.420239 5.012957 236.420239 
Q 5.522207 236.420239 5.884457 236.619739 
Q 6.248019 236.817926 6.485582 237.227426 
L 6.485582 236.530489 
L 7.240269 236.530489 
L 7.240269 242.871176 
L 6.485582 242.871176 
L 6.485582 240.435176 
z
" style="fill: #111827"/>
   </g>
   <g id="text_3">
    <path d="M 202.609471 161.570223 
L 203.962659 161.570223 
L 203.962659 156.897723 
L 202.490034 157.193035 
L 202.490034 156.438348 
L 203.954784 156.143035 
L 204.782971 156.143035 
L 204.782971 161.570223 
L 206.136159 161.570223 
L 206.136159 162.26716 
L 202.609471 162.26716 
L 202.609471 161.570223 
z
" style="fill: #111827; stroke: #ffffff; stroke-width: 2.4"/>
    <path d="M 202.609471 161.570223 
L 203.962659 161.570223 
L 203.962659 156.897723 
L 202.490034 157.193035 
L 202.490034 156.438348 
L 203.954784 156.143035 
L 204.782971 156.143035 
L 204.782971 161.570223 
L 206.136159 161.570223 
L 206.136159 162.26716 
L 202.609471 162.26716 
L 202.609471 161.570223 
z
" style="fill: #111827"/>
   </g>
   <g id="text_4">
    <path d="M 188.276367 112.143459 
L 191.167804 112.143459 
L 191.167804 112.840397 
L 187.280179 112.840397 
L 187.280179 112.143459 
Q 187.751367 111.655209 188.565117 110.833584 
Q 189.380179 110.010647 189.588867 109.771772 
Q 189.986554 109.325522 190.144054 109.015772 
Q 190.302867 108.706022 190.302867 108.406772 
Q 190.302867 107.918522 189.960304 107.611397 
Q 189.617742 107.302959 189.067804 107.302959 
Q 188.677992 107.302959 188.244867 107.438147 
Q 187.813054 107.573334 187.320867 107.848959 
L 187.320867 107.011584 
Q 187.820929 106.810772 188.255367 106.708397 
Q 188.691117 106.606022 189.052054 106.606022 
Q 190.003617 106.606022 190.569304 107.082459 
Q 191.134992 107.557584 191.134992 108.352959 
Q 191.134992 108.730959 190.993242 109.069584 
Q 190.852804 109.406897 190.478742 109.866272 
Q 190.376367 109.985709 189.826429 110.554022 
Q 189.277804 111.122334 188.276367 112.143459 
z
" style="fill: #111827; stroke: #ffffff; stroke-width: 2.4"/>
    <path d="M 188.276367 112.143459 
L 191.167804 112.143459 
L 191.167804 112.840397 
L 187.280179 112.840397 
L 187.280179 112.143459 
Q 187.751367 111.655209 188.565117 110.833584 
Q 189.380179 110.010647 189.588867 109.771772 
Q 189.986554 109.325522 190.144054 109.015772 
Q 190.302867 108.706022 190.302867 108.406772 
Q 190.302867 107.918522 189.960304 107.611397 
Q 189.617742 107.302959 189.067804 107.302959 
Q 188.677992 107.302959 188.244867 107.438147 
Q 187.813054 107.573334 187.320867 107.848959 
L 187.320867 107.011584 
Q 187.820929 106.810772 188.255367 106.708397 
Q 188.691117 106.606022 189.052054 106.606022 
Q 190.003617 106.606022 190.569304 107.082459 
Q 191.134992 107.557584 191.134992 108.352959 
Q 191.134992 108.730959 190.993242 109.069584 
Q 190.852804 109.406897 190.478742 109.866272 
Q 190.376367 109.985709 189.826429 110.554022 
Q 189.277804 111.122334 188.276367 112.143459 
z
" style="fill: #111827"/>
   </g>
   <g id="text_5">
    <path d="M 95.108792 246.011198 
Q 95.703354 246.13851 96.036729 246.541448 
Q 96.371417 246.943073 96.371417 247.533698 
Q 96.371417 248.439323 95.747979 248.93676 
Q 95.124542 249.432885 93.976104 249.432885 
Q 93.591542 249.432885 93.183354 249.35676 
Q 92.775167 249.280635 92.340729 249.128385 
L 92.340729 248.329073 
Q 92.684604 248.529885 93.094104 248.63226 
Q 93.504917 248.734635 93.952479 248.734635 
Q 94.730792 248.734635 95.138979 248.42751 
Q 95.547167 248.120385 95.547167 247.533698 
Q 95.547167 246.991635 95.167854 246.687135 
Q 94.788542 246.381323 94.112604 246.381323 
L 93.398604 246.381323 
L 93.398604 245.700135 
L 94.145417 245.700135 
Q 94.755729 245.700135 95.079917 245.45601 
Q 95.404104 245.211885 95.404104 244.75251 
Q 95.404104 244.281323 95.069417 244.029323 
Q 94.736042 243.77601 94.112604 243.77601 
Q 93.771354 243.77601 93.381542 243.850823 
Q 92.991729 243.924323 92.524479 244.079198 
L 92.524479 243.341573 
Q 92.996979 243.210323 93.409104 243.144698 
Q 93.821229 243.079073 94.186104 243.079073 
Q 95.129792 243.079073 95.678417 243.50826 
Q 96.228354 243.936135 96.228354 244.665885 
Q 96.228354 245.175135 95.936979 245.525573 
Q 95.645604 245.87601 95.108792 246.011198 
z
" style="fill: #111827; stroke: #ffffff; stroke-width: 2.4"/>
    <path d="M 95.108792 246.011198 
Q 95.703354 246.13851 96.036729 246.541448 
Q 96.371417 246.943073 96.371417 247.533698 
Q 96.371417 248.439323 95.747979 248.93676 
Q 95.124542 249.432885 93.976104 249.432885 
Q 93.591542 249.432885 93.183354 249.35676 
Q 92.775167 249.280635 92.340729 249.128385 
L 92.340729 248.329073 
Q 92.684604 248.529885 93.094104 248.63226 
Q 93.504917 248.734635 93.952479 248.734635 
Q 94.730792 248.734635 95.138979 248.42751 
Q 95.547167 248.120385 95.547167 247.533698 
Q 95.547167 246.991635 95.167854 246.687135 
Q 94.788542 246.381323 94.112604 246.381323 
L 93.398604 246.381323 
L 93.398604 245.700135 
L 94.145417 245.700135 
Q 94.755729 245.700135 95.079917 245.45601 
Q 95.404104 245.211885 95.404104 244.75251 
Q 95.404104 244.281323 95.069417 244.029323 
Q 94.736042 243.77601 94.112604 243.77601 
Q 93.771354 243.77601 93.381542 243.850823 
Q 92.991729 243.924323 92.524479 244.079198 
L 92.524479 243.341573 
Q 92.996979 243.210323 93.409104 243.144698 
Q 93.821229 243.079073 94.186104 243.079073 
Q 95.129792 243.079073 95.678417 243.50826 
Q 96.228354 243.936135 96.228354 244.665885 
Q 96.228354 245.175135 95.936979 245.525573 
Q 95.645604 245.87601 95.108792 246.011198 
z
" style="fill: #111827"/>
   </g>
   <g id="text_6">
    <path d="M 169.388816 194.484434 
L 167.296691 197.753872 
L 169.388816 197.753872 
L 169.388816 194.484434 
z
M 169.170941 193.762559 
L 170.213066 193.762559 
L 170.213066 197.753872 
L 171.087191 197.753872 
L 171.087191 198.442934 
L 170.213066 198.442934 
L 170.213066 199.886684 
L 169.388816 199.886684 
L 169.388816 198.442934 
L 166.624691 198.442934 
L 166.624691 197.643622 
L 169.170941 193.762559 
z
" style="fill: #111827; stroke: #ffffff; stroke-width: 2.4"/>
    <path d="M 169.388816 194.484434 
L 167.296691 197.753872 
L 169.388816 197.753872 
L 169.388816 194.484434 
z
M 169.170941 193.762559 
L 170.213066 193.762559 
L 170.213066 197.753872 
L 171.087191 197.753872 
L 171.087191 198.442934 
L 170.213066 198.442934 
L 170.213066 199.886684 
L 169.388816 199.886684 
L 169.388816 198.442934 
L 166.624691 198.442934 
L 166.624691 197.643622 
L 169.170941 193.762559 
z
" style="fill: #111827"/>
   </g>
   <g id="text_7">
    <path d="M 152.218086 144.335796 
L 155.470461 144.335796 
L 155.470461 145.034046 
L 152.976711 145.034046 
L 152.976711 146.534234 
Q 153.156524 146.472546 153.336336 146.442359 
Q 153.517461 146.412171 153.698586 146.412171 
Q 154.723649 146.412171 155.322149 146.973921 
Q 155.921961 147.535671 155.921961 148.495109 
Q 155.921961 149.483421 155.306399 150.032046 
Q 154.690836 150.579359 153.571274 150.579359 
Q 153.185399 150.579359 152.785086 150.513734 
Q 152.386086 150.448109 151.959524 150.316859 
L 151.959524 149.483421 
Q 152.328336 149.684234 152.722086 149.782671 
Q 153.115836 149.881109 153.554211 149.881109 
Q 154.264274 149.881109 154.677711 149.508359 
Q 155.092461 149.135609 155.092461 148.495109 
Q 155.092461 147.855921 154.677711 147.483171 
Q 154.264274 147.109109 153.554211 147.109109 
Q 153.222149 147.109109 152.891399 147.182609 
Q 152.561961 147.256109 152.218086 147.412296 
L 152.218086 144.335796 
z
" style="fill: #111827; stroke: #ffffff; stroke-width: 2.4"/>
    <path d="M 152.218086 144.335796 
L 155.470461 144.335796 
L 155.470461 145.034046 
L 152.976711 145.034046 
L 152.976711 146.534234 
Q 153.156524 146.472546 153.336336 146.442359 
Q 153.517461 146.412171 153.698586 146.412171 
Q 154.723649 146.412171 155.322149 146.973921 
Q 155.921961 147.535671 155.921961 148.495109 
Q 155.921961 149.483421 155.306399 150.032046 
Q 154.690836 150.579359 153.571274 150.579359 
Q 153.185399 150.579359 152.785086 150.513734 
Q 152.386086 150.448109 151.959524 150.316859 
L 151.959524 149.483421 
Q 152.328336 149.684234 152.722086 149.782671 
Q 153.115836 149.881109 153.554211 149.881109 
Q 154.264274 149.881109 154.677711 149.508359 
Q 155.092461 149.135609 155.092461 148.495109 
Q 155.092461 147.855921 154.677711 147.483171 
Q 154.264274 147.109109 153.554211 147.109109 
Q 153.222149 147.109109 152.891399 147.182609 
Q 152.561961 147.256109 152.218086 147.412296 
L 152.218086 144.335796 
z
" style="fill: #111827"/>
   </g>
   <g id="text_8">
    <path d="M 259.524825 147.068421 
Q 258.967013 147.068421 258.6402 147.450359 
Q 258.3147 147.830984 258.3147 148.495109 
Q 258.3147 149.155296 258.6402 149.539859 
Q 258.967013 149.923109 259.524825 149.923109 
Q 260.082638 149.923109 260.408138 149.539859 
Q 260.733638 149.155296 260.733638 148.495109 
Q 260.733638 147.830984 260.408138 147.450359 
Q 260.082638 147.068421 259.524825 147.068421 
z
M 261.169388 144.470984 
L 261.169388 145.225671 
Q 260.857013 145.078671 260.539388 145.001234 
Q 260.221763 144.922484 259.909388 144.922484 
Q 259.089075 144.922484 258.65595 145.476359 
Q 258.224138 146.030234 258.16245 147.149796 
Q 258.40395 146.792796 258.768825 146.602484 
Q 259.135013 146.412171 259.573388 146.412171 
Q 260.496075 146.412171 261.031575 146.972609 
Q 261.567075 147.531734 261.567075 148.495109 
Q 261.567075 149.438796 261.009263 150.009734 
Q 260.45145 150.579359 259.524825 150.579359 
Q 258.4617 150.579359 257.89995 149.765609 
Q 257.3382 148.950546 257.3382 147.404421 
Q 257.3382 145.952796 258.027263 145.089171 
Q 258.716325 144.225546 259.876575 144.225546 
Q 260.18895 144.225546 260.506575 144.287234 
Q 260.8242 144.348921 261.169388 144.470984 
z
" style="fill: #111827; stroke: #ffffff; stroke-width: 2.4"/>
    <path d="M 259.524825 147.068421 
Q 258.967013 147.068421 258.6402 147.450359 
Q 258.3147 147.830984 258.3147 148.495109 
Q 258.3147 149.155296 258.6402 149.539859 
Q 258.967013 149.923109 259.524825 149.923109 
Q 260.082638 149.923109 260.408138 149.539859 
Q 260.733638 149.155296 260.733638 148.495109 
Q 260.733638 147.830984 260.408138 147.450359 
Q 260.082638 147.068421 259.524825 147.068421 
z
M 261.169388 144.470984 
L 261.169388 145.225671 
Q 260.857013 145.078671 260.539388 145.001234 
Q 260.221763 144.922484 259.909388 144.922484 
Q 259.089075 144.922484 258.65595 145.476359 
Q 258.224138 146.030234 258.16245 147.149796 
Q 258.40395 146.792796 258.768825 146.602484 
Q 259.135013 146.412171 259.573388 146.412171 
Q 260.496075 146.412171 261.031575 146.972609 
Q 261.567075 147.531734 261.567075 148.495109 
Q 261.567075 149.438796 261.009263 150.009734 
Q 260.45145 150.579359 259.524825 150.579359 
Q 258.4617 150.579359 257.89995 149.765609 
Q 257.3382 148.950546 257.3382 147.404421 
Q 257.3382 145.952796 258.027263 145.089171 
Q 258.716325 144.225546 259.876575 144.225546 
Q 260.18895 144.225546 260.506575 144.287234 
Q 260.8242 144.348921 261.169388 144.470984 
z
" style="fill: #111827"/>
   </g>
   <g id="text_9">
    <path d="M 212.732385 66.89894 
L 216.669885 66.89894 
L 216.669885 67.252002 
L 214.44651 73.023065 
L 213.581573 73.023065 
L 215.673698 67.59719 
L 212.732385 67.59719 
L 212.732385 66.89894 
z
" style="fill: #111827; stroke: #ffffff; stroke-width: 2.4"/>
    <path d="M 212.732385 66.89894 
L 216.669885 66.89894 
L 216.669885 67.252002 
L 214.44651 73.023065 
L 213.581573 73.023065 
L 215.673698 67.59719 
L 212.732385 67.59719 
L 212.732385 66.89894 
z
" style="fill: #111827"/>
   </g>
   <g id="text_10">
    <path d="M 183.786234 175.561514 
Q 183.195609 175.561514 182.856984 175.877826 
Q 182.519671 176.194139 182.519671 176.746701 
Q 182.519671 177.300576 182.856984 177.616889 
Q 183.195609 177.933201 183.786234 177.933201 
Q 184.376859 177.933201 184.716796 177.615576 
Q 185.058046 177.296639 185.058046 176.746701 
Q 185.058046 176.194139 184.719421 175.877826 
Q 184.382109 175.561514 183.786234 175.561514 
z
M 182.958046 175.209764 
Q 182.425171 175.078514 182.127234 174.713639 
Q 181.830609 174.347451 181.830609 173.822451 
Q 181.830609 173.088764 182.352984 172.662201 
Q 182.876671 172.235639 183.786234 172.235639 
Q 184.701046 172.235639 185.222109 172.662201 
Q 185.743171 173.088764 185.743171 173.822451 
Q 185.743171 174.347451 185.445234 174.713639 
Q 185.148609 175.078514 184.619671 175.209764 
Q 185.218171 175.348889 185.551546 175.755764 
Q 185.886234 176.161326 185.886234 176.746701 
Q 185.886234 177.637889 185.342859 178.114326 
Q 184.799484 178.589451 183.786234 178.589451 
Q 182.774296 178.589451 182.229609 178.114326 
Q 181.686234 177.637889 181.686234 176.746701 
Q 181.686234 176.161326 182.022234 175.755764 
Q 182.359546 175.348889 182.958046 175.209764 
z
M 182.654859 173.901201 
Q 182.654859 174.376326 182.951484 174.642764 
Q 183.249421 174.909201 183.786234 174.909201 
Q 184.320421 174.909201 184.620984 174.642764 
Q 184.922859 174.376326 184.922859 173.901201 
Q 184.922859 173.424764 184.620984 173.158326 
Q 184.320421 172.891889 183.786234 172.891889 
Q 183.249421 172.891889 182.951484 173.158326 
Q 182.654859 173.424764 182.654859 173.901201 
z
" style="fill: #111827; stroke: #ffffff; stroke-width: 2.4"/>
    <path d="M 183.786234 175.561514 
Q 183.195609 175.561514 182.856984 175.877826 
Q 182.519671 176.194139 182.519671 176.746701 
Q 182.519671 177.300576 182.856984 177.616889 
Q 183.195609 177.933201 183.786234 177.933201 
Q 184.376859 177.933201 184.716796 177.615576 
Q 185.058046 177.296639 185.058046 176.746701 
Q 185.058046 176.194139 184.719421 175.877826 
Q 184.382109 175.561514 183.786234 175.561514 
z
M 182.958046 175.209764 
Q 182.425171 175.078514 182.127234 174.713639 
Q 181.830609 174.347451 181.830609 173.822451 
Q 181.830609 173.088764 182.352984 172.662201 
Q 182.876671 172.235639 183.786234 172.235639 
Q 184.701046 172.235639 185.222109 172.662201 
Q 185.743171 173.088764 185.743171 173.822451 
Q 185.743171 174.347451 185.445234 174.713639 
Q 185.148609 175.078514 184.619671 175.209764 
Q 185.218171 175.348889 185.551546 175.755764 
Q 185.886234 176.161326 185.886234 176.746701 
Q 185.886234 177.637889 185.342859 178.114326 
Q 184.799484 178.589451 183.786234 178.589451 
Q 182.774296 178.589451 182.229609 178.114326 
Q 181.686234 177.637889 181.686234 176.746701 
Q 181.686234 176.161326 182.022234 175.755764 
Q 182.359546 175.348889 182.958046 175.209764 
z
M 182.654859 173.901201 
Q 182.654859 174.376326 182.951484 174.642764 
Q 183.249421 174.909201 183.786234 174.909201 
Q 184.320421 174.909201 184.620984 174.642764 
Q 184.922859 174.376326 184.922859 173.901201 
Q 184.922859 173.424764 184.620984 173.158326 
Q 184.320421 172.891889 183.786234 172.891889 
Q 183.249421 172.891889 182.951484 173.158326 
Q 182.654859 173.424764 182.654859 173.901201 
z
" style="fill: #111827"/>
   </g>
   <g id="text_11">
    <path d="M 242.77147 100.905845 
L 242.77147 100.151158 
Q 243.083845 100.29947 243.402783 100.376908 
Q 243.723033 100.454345 244.03147 100.454345 
Q 244.851783 100.454345 245.283595 99.903095 
Q 245.71672 99.351845 245.778408 98.227033 
Q 245.540845 98.580095 245.174658 98.769095 
Q 244.809783 98.958095 244.36747 98.958095 
Q 243.44872 98.958095 242.91322 98.402908 
Q 242.37772 97.846408 242.37772 96.88172 
Q 242.37772 95.939345 242.935533 95.36972 
Q 243.493345 94.798783 244.41997 94.798783 
Q 245.483095 94.798783 246.04222 95.613845 
Q 246.602658 96.427595 246.602658 97.977658 
Q 246.602658 99.425345 245.914908 100.28897 
Q 245.22847 101.152595 244.06822 101.152595 
Q 243.755845 101.152595 243.435595 101.090908 
Q 243.116658 101.02922 242.77147 100.905845 
z
M 244.41997 98.30972 
Q 244.977783 98.30972 245.303283 97.929095 
Q 245.630095 97.547158 245.630095 96.88172 
Q 245.630095 96.221533 245.303283 95.838283 
Q 244.977783 95.455033 244.41997 95.455033 
Q 243.862158 95.455033 243.536658 95.838283 
Q 243.211158 96.221533 243.211158 96.88172 
Q 243.211158 97.547158 243.536658 97.929095 
Q 243.862158 98.30972 244.41997 98.30972 
z
" style="fill: #111827; stroke: #ffffff; stroke-width: 2.4"/>
    <path d="M 242.77147 100.905845 
L 242.77147 100.151158 
Q 243.083845 100.29947 243.402783 100.376908 
Q 243.723033 100.454345 244.03147 100.454345 
Q 244.851783 100.454345 245.283595 99.903095 
Q 245.71672 99.351845 245.778408 98.227033 
Q 245.540845 98.580095 245.174658 98.769095 
Q 244.809783 98.958095 244.36747 98.958095 
Q 243.44872 98.958095 242.91322 98.402908 
Q 242.37772 97.846408 242.37772 96.88172 
Q 242.37772 95.939345 242.935533 95.36972 
Q 243.493345 94.798783 244.41997 94.798783 
Q 245.483095 94.798783 246.04222 95.613845 
Q 246.602658 96.427595 246.602658 97.977658 
Q 246.602658 99.425345 245.914908 100.28897 
Q 245.22847 101.152595 244.06822 101.152595 
Q 243.755845 101.152595 243.435595 101.090908 
Q 243.116658 101.02922 242.77147 100.905845 
z
M 244.41997 98.30972 
Q 244.977783 98.30972 245.303283 97.929095 
Q 245.630095 97.547158 245.630095 96.88172 
Q 245.630095 96.221533 245.303283 95.838283 
Q 244.977783 95.455033 244.41997 95.455033 
Q 243.862158 95.455033 243.536658 95.838283 
Q 243.211158 96.221533 243.211158 96.88172 
Q 243.211158 97.547158 243.536658 97.929095 
Q 243.862158 98.30972 244.41997 98.30972 
z
" style="fill: #111827"/>
   </g>
   <g id="text_12">
    <path d="M 198.182718 22.899364 
L 199.535905 22.899364 
L 199.535905 18.226864 
L 198.06328 18.522177 
L 198.06328 17.767489 
L 199.52803 17.472177 
L 200.356218 17.472177 
L 200.356218 22.899364 
L 201.709405 22.899364 
L 201.709405 23.596302 
L 198.182718 23.596302 
L 198.182718 22.899364 
z
M 205.154554 18.018177 
Q 204.515366 18.018177 204.192491 18.648177 
Q 203.870929 19.276864 203.870929 20.540802 
Q 203.870929 21.799489 204.192491 22.429489 
Q 204.515366 23.059489 205.154554 23.059489 
Q 205.798991 23.059489 206.120554 22.429489 
Q 206.443429 21.799489 206.443429 20.540802 
Q 206.443429 19.276864 206.120554 18.648177 
Q 205.798991 18.018177 205.154554 18.018177 
z
M 205.154554 17.361927 
Q 206.184866 17.361927 206.728241 18.176989 
Q 207.271616 18.990739 207.271616 20.540802 
Q 207.271616 22.086927 206.728241 22.901989 
Q 206.184866 23.715739 205.154554 23.715739 
Q 204.125554 23.715739 203.582179 22.901989 
Q 203.038804 22.086927 203.038804 20.540802 
Q 203.038804 18.990739 203.582179 18.176989 
Q 204.125554 17.361927 205.154554 17.361927 
z
" style="fill: #111827; stroke: #ffffff; stroke-width: 2.4"/>
    <path d="M 198.182718 22.899364 
L 199.535905 22.899364 
L 199.535905 18.226864 
L 198.06328 18.522177 
L 198.06328 17.767489 
L 199.52803 17.472177 
L 200.356218 17.472177 
L 200.356218 22.899364 
L 201.709405 22.899364 
L 201.709405 23.596302 
L 198.182718 23.596302 
L 198.182718 22.899364 
z
M 205.154554 18.018177 
Q 204.515366 18.018177 204.192491 18.648177 
Q 203.870929 19.276864 203.870929 20.540802 
Q 203.870929 21.799489 204.192491 22.429489 
Q 204.515366 23.059489 205.154554 23.059489 
Q 205.798991 23.059489 206.120554 22.429489 
Q 206.443429 21.799489 206.443429 20.540802 
Q 206.443429 19.276864 206.120554 18.648177 
Q 205.798991 18.018177 205.154554 18.018177 
z
M 205.154554 17.361927 
Q 206.184866 17.361927 206.728241 18.176989 
Q 207.271616 18.990739 207.271616 20.540802 
Q 207.271616 22.086927 206.728241 22.901989 
Q 206.184866 23.715739 205.154554 23.715739 
Q 204.125554 23.715739 203.582179 22.901989 
Q 203.038804 22.086927 203.038804 20.540802 
Q 203.038804 18.990739 203.582179 18.176989 
Q 204.125554 17.361927 205.154554 17.361927 
z
" style="fill: #111827"/>
   </g>
   <g id="text_13">
    <path d="M 171.266226 159.372415 
L 172.619413 159.372415 
L 172.619413 154.699915 
L 171.146788 154.995228 
L 171.146788 154.24054 
L 172.611538 153.945228 
L 173.439726 153.945228 
L 173.439726 159.372415 
L 174.792913 159.372415 
L 174.792913 160.069353 
L 171.266226 160.069353 
L 171.266226 159.372415 
z
M 176.610561 159.372415 
L 177.963749 159.372415 
L 177.963749 154.699915 
L 176.491124 154.995228 
L 176.491124 154.24054 
L 177.955874 153.945228 
L 178.784061 153.945228 
L 178.784061 159.372415 
L 180.137249 159.372415 
L 180.137249 160.069353 
L 176.610561 160.069353 
L 176.610561 159.372415 
z
" style="fill: #111827; stroke: #ffffff; stroke-width: 2.4"/>
    <path d="M 171.266226 159.372415 
L 172.619413 159.372415 
L 172.619413 154.699915 
L 171.146788 154.995228 
L 171.146788 154.24054 
L 172.611538 153.945228 
L 173.439726 153.945228 
L 173.439726 159.372415 
L 174.792913 159.372415 
L 174.792913 160.069353 
L 171.266226 160.069353 
L 171.266226 159.372415 
z
M 176.610561 159.372415 
L 177.963749 159.372415 
L 177.963749 154.699915 
L 176.491124 154.995228 
L 176.491124 154.24054 
L 177.955874 153.945228 
L 178.784061 153.945228 
L 178.784061 159.372415 
L 180.137249 159.372415 
L 180.137249 160.069353 
L 176.610561 160.069353 
L 176.610561 159.372415 
z
" style="fill: #111827"/>
   </g>
   <g id="text_14">
    <path d="M 222.44017 187.382508 
L 223.793357 187.382508 
L 223.793357 182.710008 
L 222.320732 183.00532 
L 222.320732 182.250633 
L 223.785482 181.95532 
L 224.61367 181.95532 
L 224.61367 187.382508 
L 225.966857 187.382508 
L 225.966857 188.079445 
L 222.44017 188.079445 
L 222.44017 187.382508 
z
M 228.354131 187.382508 
L 231.245568 187.382508 
L 231.245568 188.079445 
L 227.357943 188.079445 
L 227.357943 187.382508 
Q 227.829131 186.894258 228.642881 186.072633 
Q 229.457943 185.249695 229.666631 185.01082 
Q 230.064318 184.56457 230.221818 184.25482 
Q 230.380631 183.94507 230.380631 183.64582 
Q 230.380631 183.15757 230.038068 182.850445 
Q 229.695506 182.542008 229.145568 182.542008 
Q 228.755756 182.542008 228.322631 182.677195 
Q 227.890818 182.812383 227.398631 183.088008 
L 227.398631 182.250633 
Q 227.898693 182.04982 228.333131 181.947445 
Q 228.768881 181.84507 229.129818 181.84507 
Q 230.081381 181.84507 230.647068 182.321508 
Q 231.212756 182.796633 231.212756 183.592008 
Q 231.212756 183.970008 231.071006 184.308633 
Q 230.930568 184.645945 230.556506 185.10532 
Q 230.454131 185.224758 229.904193 185.79307 
Q 229.355568 186.361383 228.354131 187.382508 
z
" style="fill: #111827; stroke: #ffffff; stroke-width: 2.4"/>
    <path d="M 222.44017 187.382508 
L 223.793357 187.382508 
L 223.793357 182.710008 
L 222.320732 183.00532 
L 222.320732 182.250633 
L 223.785482 181.95532 
L 224.61367 181.95532 
L 224.61367 187.382508 
L 225.966857 187.382508 
L 225.966857 188.079445 
L 222.44017 188.079445 
L 222.44017 187.382508 
z
M 228.354131 187.382508 
L 231.245568 187.382508 
L 231.245568 188.079445 
L 227.357943 188.079445 
L 227.357943 187.382508 
Q 227.829131 186.894258 228.642881 186.072633 
Q 229.457943 185.249695 229.666631 185.01082 
Q 230.064318 184.56457 230.221818 184.25482 
Q 230.380631 183.94507 230.380631 183.64582 
Q 230.380631 183.15757 230.038068 182.850445 
Q 229.695506 182.542008 229.145568 182.542008 
Q 228.755756 182.542008 228.322631 182.677195 
Q 227.890818 182.812383 227.398631 183.088008 
L 227.398631 182.250633 
Q 227.898693 182.04982 228.333131 181.947445 
Q 228.768881 181.84507 229.129818 181.84507 
Q 230.081381 181.84507 230.647068 182.321508 
Q 231.212756 182.796633 231.212756 183.592008 
Q 231.212756 183.970008 231.071006 184.308633 
Q 230.930568 184.645945 230.556506 185.10532 
Q 230.454131 185.224758 229.904193 185.79307 
Q 229.355568 186.361383 228.354131 187.382508 
z
" style="fill: #111827"/>
   </g>
   <g id="text_15">
    <path d="M 66.947116 109.945652 
L 68.300304 109.945652 
L 68.300304 105.273152 
L 66.827679 105.568464 
L 66.827679 104.813777 
L 68.292429 104.518464 
L 69.120616 104.518464 
L 69.120616 109.945652 
L 70.473804 109.945652 
L 70.473804 110.642589 
L 66.947116 110.642589 
L 66.947116 109.945652 
z
M 74.65789 107.340339 
Q 75.252452 107.467652 75.585827 107.870589 
Q 75.920515 108.272214 75.920515 108.862839 
Q 75.920515 109.768464 75.297077 110.265902 
Q 74.67364 110.762027 73.525202 110.762027 
Q 73.14064 110.762027 72.732452 110.685902 
Q 72.324265 110.609777 71.889827 110.457527 
L 71.889827 109.658214 
Q 72.233702 109.859027 72.643202 109.961402 
Q 73.054015 110.063777 73.501577 110.063777 
Q 74.27989 110.063777 74.688077 109.756652 
Q 75.096265 109.449527 75.096265 108.862839 
Q 75.096265 108.320777 74.716952 108.016277 
Q 74.33764 107.710464 73.661702 107.710464 
L 72.947702 107.710464 
L 72.947702 107.029277 
L 73.694515 107.029277 
Q 74.304827 107.029277 74.629015 106.785152 
Q 74.953202 106.541027 74.953202 106.081652 
Q 74.953202 105.610464 74.618515 105.358464 
Q 74.28514 105.105152 73.661702 105.105152 
Q 73.320452 105.105152 72.93064 105.179964 
Q 72.540827 105.253464 72.073577 105.408339 
L 72.073577 104.670714 
Q 72.546077 104.539464 72.958202 104.473839 
Q 73.370327 104.408214 73.735202 104.408214 
Q 74.67889 104.408214 75.227515 104.837402 
Q 75.777452 105.265277 75.777452 105.995027 
Q 75.777452 106.504277 75.486077 106.854714 
Q 75.194702 107.205152 74.65789 107.340339 
z
" style="fill: #111827; stroke: #ffffff; stroke-width: 2.4"/>
    <path d="M 66.947116 109.945652 
L 68.300304 109.945652 
L 68.300304 105.273152 
L 66.827679 105.568464 
L 66.827679 104.813777 
L 68.292429 104.518464 
L 69.120616 104.518464 
L 69.120616 109.945652 
L 70.473804 109.945652 
L 70.473804 110.642589 
L 66.947116 110.642589 
L 66.947116 109.945652 
z
M 74.65789 107.340339 
Q 75.252452 107.467652 75.585827 107.870589 
Q 75.920515 108.272214 75.920515 108.862839 
Q 75.920515 109.768464 75.297077 110.265902 
Q 74.67364 110.762027 73.525202 110.762027 
Q 73.14064 110.762027 72.732452 110.685902 
Q 72.324265 110.609777 71.889827 110.457527 
L 71.889827 109.658214 
Q 72.233702 109.859027 72.643202 109.961402 
Q 73.054015 110.063777 73.501577 110.063777 
Q 74.27989 110.063777 74.688077 109.756652 
Q 75.096265 109.449527 75.096265 108.862839 
Q 75.096265 108.320777 74.716952 108.016277 
Q 74.33764 107.710464 73.661702 107.710464 
L 72.947702 107.710464 
L 72.947702 107.029277 
L 73.694515 107.029277 
Q 74.304827 107.029277 74.629015 106.785152 
Q 74.953202 106.541027 74.953202 106.081652 
Q 74.953202 105.610464 74.618515 105.358464 
Q 74.28514 105.105152 73.661702 105.105152 
Q 73.320452 105.105152 72.93064 105.179964 
Q 72.540827 105.253464 72.073577 105.408339 
L 72.073577 104.670714 
Q 72.546077 104.539464 72.958202 104.473839 
Q 73.370327 104.408214 73.735202 104.408214 
Q 74.67889 104.408214 75.227515 104.837402 
Q 75.777452 105.265277 75.777452 105.995027 
Q 75.777452 106.504277 75.486077 106.854714 
Q 75.194702 107.205152 74.65789 107.340339 
z
" style="fill: #111827"/>
   </g>
   <g id="text_16">
    <path d="M 156.363496 109.945652 
L 157.716683 109.945652 
L 157.716683 105.273152 
L 156.244058 105.568464 
L 156.244058 104.813777 
L 157.708808 104.518464 
L 158.536996 104.518464 
L 158.536996 109.945652 
L 159.890183 109.945652 
L 159.890183 110.642589 
L 156.363496 110.642589 
L 156.363496 109.945652 
z
M 163.840644 105.240339 
L 161.748519 108.509777 
L 163.840644 108.509777 
L 163.840644 105.240339 
z
M 163.622769 104.518464 
L 164.664894 104.518464 
L 164.664894 108.509777 
L 165.539019 108.509777 
L 165.539019 109.198839 
L 164.664894 109.198839 
L 164.664894 110.642589 
L 163.840644 110.642589 
L 163.840644 109.198839 
L 161.076519 109.198839 
L 161.076519 108.399527 
L 163.622769 104.518464 
z
" style="fill: #111827; stroke: #ffffff; stroke-width: 2.4"/>
    <path d="M 156.363496 109.945652 
L 157.716683 109.945652 
L 157.716683 105.273152 
L 156.244058 105.568464 
L 156.244058 104.813777 
L 157.708808 104.518464 
L 158.536996 104.518464 
L 158.536996 109.945652 
L 159.890183 109.945652 
L 159.890183 110.642589 
L 156.363496 110.642589 
L 156.363496 109.945652 
z
M 163.840644 105.240339 
L 161.748519 108.509777 
L 163.840644 108.509777 
L 163.840644 105.240339 
z
M 163.622769 104.518464 
L 164.664894 104.518464 
L 164.664894 108.509777 
L 165.539019 108.509777 
L 165.539019 109.198839 
L 164.664894 109.198839 
L 164.664894 110.642589 
L 163.840644 110.642589 
L 163.840644 109.198839 
L 161.076519 109.198839 
L 161.076519 108.399527 
L 163.622769 104.518464 
z
" style="fill: #111827"/>
   </g>
   <g id="text_17">
    <path d="M 186.168955 137.955745 
L 187.522143 137.955745 
L 187.522143 133.283245 
L 186.049518 133.578557 
L 186.049518 132.82387 
L 187.514268 132.528557 
L 188.342455 132.528557 
L 188.342455 137.955745 
L 189.695643 137.955745 
L 189.695643 138.652682 
L 186.168955 138.652682 
L 186.168955 137.955745 
z
M 191.378104 132.528557 
L 194.630479 132.528557 
L 194.630479 133.226807 
L 192.136729 133.226807 
L 192.136729 134.726995 
Q 192.316541 134.665307 192.496354 134.63512 
Q 192.677479 134.604932 192.858604 134.604932 
Q 193.883666 134.604932 194.482166 135.166682 
Q 195.081979 135.728432 195.081979 136.68787 
Q 195.081979 137.676182 194.466416 138.224807 
Q 193.850854 138.77212 192.731291 138.77212 
Q 192.345416 138.77212 191.945104 138.706495 
Q 191.546104 138.64087 191.119541 138.50962 
L 191.119541 137.676182 
Q 191.488354 137.876995 191.882104 137.975432 
Q 192.275854 138.07387 192.714229 138.07387 
Q 193.424291 138.07387 193.837729 137.70112 
Q 194.252479 137.32837 194.252479 136.68787 
Q 194.252479 136.048682 193.837729 135.675932 
Q 193.424291 135.30187 192.714229 135.30187 
Q 192.382166 135.30187 192.051416 135.37537 
Q 191.721979 135.44887 191.378104 135.605057 
L 191.378104 132.528557 
z
" style="fill: #111827; stroke: #ffffff; stroke-width: 2.4"/>
    <path d="M 186.168955 137.955745 
L 187.522143 137.955745 
L 187.522143 133.283245 
L 186.049518 133.578557 
L 186.049518 132.82387 
L 187.514268 132.528557 
L 188.342455 132.528557 
L 188.342455 137.955745 
L 189.695643 137.955745 
L 189.695643 138.652682 
L 186.168955 138.652682 
L 186.168955 137.955745 
z
M 191.378104 132.528557 
L 194.630479 132.528557 
L 194.630479 133.226807 
L 192.136729 133.226807 
L 192.136729 134.726995 
Q 192.316541 134.665307 192.496354 134.63512 
Q 192.677479 134.604932 192.858604 134.604932 
Q 193.883666 134.604932 194.482166 135.166682 
Q 195.081979 135.728432 195.081979 136.68787 
Q 195.081979 137.676182 194.466416 138.224807 
Q 193.850854 138.77212 192.731291 138.77212 
Q 192.345416 138.77212 191.945104 138.706495 
Q 191.546104 138.64087 191.119541 138.50962 
L 191.119541 137.676182 
Q 191.488354 137.876995 191.882104 137.975432 
Q 192.275854 138.07387 192.714229 138.07387 
Q 193.424291 138.07387 193.837729 137.70112 
Q 194.252479 137.32837 194.252479 136.68787 
Q 194.252479 136.048682 193.837729 135.675932 
Q 193.424291 135.30187 192.714229 135.30187 
Q 192.382166 135.30187 192.051416 135.37537 
Q 191.721979 135.44887 191.378104 135.605057 
L 191.378104 132.528557 
z
" style="fill: #111827"/>
   </g>
   <g id="text_18">
    <path d="M 141.460766 60.518888 
L 142.813953 60.518888 
L 142.813953 55.846388 
L 141.341328 56.141701 
L 141.341328 55.387013 
L 142.806078 55.091701 
L 143.634266 55.091701 
L 143.634266 60.518888 
L 144.987453 60.518888 
L 144.987453 61.215826 
L 141.460766 61.215826 
L 141.460766 60.518888 
z
M 148.536289 57.824326 
Q 147.978477 57.824326 147.651664 58.206263 
Q 147.326164 58.586888 147.326164 59.251013 
Q 147.326164 59.911201 147.651664 60.295763 
Q 147.978477 60.679013 148.536289 60.679013 
Q 149.094102 60.679013 149.419602 60.295763 
Q 149.745102 59.911201 149.745102 59.251013 
Q 149.745102 58.586888 149.419602 58.206263 
Q 149.094102 57.824326 148.536289 57.824326 
z
M 150.180852 55.226888 
L 150.180852 55.981576 
Q 149.868477 55.834576 149.550852 55.757138 
Q 149.233227 55.678388 148.920852 55.678388 
Q 148.100539 55.678388 147.667414 56.232263 
Q 147.235602 56.786138 147.173914 57.905701 
Q 147.415414 57.548701 147.780289 57.358388 
Q 148.146477 57.168076 148.584852 57.168076 
Q 149.507539 57.168076 150.043039 57.728513 
Q 150.578539 58.287638 150.578539 59.251013 
Q 150.578539 60.194701 150.020727 60.765638 
Q 149.462914 61.335263 148.536289 61.335263 
Q 147.473164 61.335263 146.911414 60.521513 
Q 146.349664 59.706451 146.349664 58.160326 
Q 146.349664 56.708701 147.038727 55.845076 
Q 147.727789 54.981451 148.888039 54.981451 
Q 149.200414 54.981451 149.518039 55.043138 
Q 149.835664 55.104826 150.180852 55.226888 
z
" style="fill: #111827; stroke: #ffffff; stroke-width: 2.4"/>
    <path d="M 141.460766 60.518888 
L 142.813953 60.518888 
L 142.813953 55.846388 
L 141.341328 56.141701 
L 141.341328 55.387013 
L 142.806078 55.091701 
L 143.634266 55.091701 
L 143.634266 60.518888 
L 144.987453 60.518888 
L 144.987453 61.215826 
L 141.460766 61.215826 
L 141.460766 60.518888 
z
M 148.536289 57.824326 
Q 147.978477 57.824326 147.651664 58.206263 
Q 147.326164 58.586888 147.326164 59.251013 
Q 147.326164 59.911201 147.651664 60.295763 
Q 147.978477 60.679013 148.536289 60.679013 
Q 149.094102 60.679013 149.419602 60.295763 
Q 149.745102 59.911201 149.745102 59.251013 
Q 149.745102 58.586888 149.419602 58.206263 
Q 149.094102 57.824326 148.536289 57.824326 
z
M 150.180852 55.226888 
L 150.180852 55.981576 
Q 149.868477 55.834576 149.550852 55.757138 
Q 149.233227 55.678388 148.920852 55.678388 
Q 148.100539 55.678388 147.667414 56.232263 
Q 147.235602 56.786138 147.173914 57.905701 
Q 147.415414 57.548701 147.780289 57.358388 
Q 148.146477 57.168076 148.584852 57.168076 
Q 149.507539 57.168076 150.043039 57.728513 
Q 150.578539 58.287638 150.578539 59.251013 
Q 150.578539 60.194701 150.020727 60.765638 
Q 149.462914 61.335263 148.536289 61.335263 
Q 147.473164 61.335263 146.911414 60.521513 
Q 146.349664 59.706451 146.349664 58.160326 
Q 146.349664 56.708701 147.038727 55.845076 
Q 147.727789 54.981451 148.888039 54.981451 
Q 149.200414 54.981451 149.518039 55.043138 
Q 149.835664 55.104826 150.180852 55.226888 
z
" style="fill: #111827"/>
   </g>
   <g id="text_19">
    <path d="M 81.849846 88.528981 
L 83.203034 88.528981 
L 83.203034 83.856481 
L 81.730409 84.151794 
L 81.730409 83.397106 
L 83.195159 83.101794 
L 84.023346 83.101794 
L 84.023346 88.528981 
L 85.376534 88.528981 
L 85.376534 89.225919 
L 81.849846 89.225919 
L 81.849846 88.528981 
z
M 86.84112 83.101794 
L 90.77862 83.101794 
L 90.77862 83.454856 
L 88.555245 89.225919 
L 87.690307 89.225919 
L 89.782432 83.800044 
L 86.84112 83.800044 
L 86.84112 83.101794 
z
" style="fill: #111827; stroke: #ffffff; stroke-width: 2.4"/>
    <path d="M 81.849846 88.528981 
L 83.203034 88.528981 
L 83.203034 83.856481 
L 81.730409 84.151794 
L 81.730409 83.397106 
L 83.195159 83.101794 
L 84.023346 83.101794 
L 84.023346 88.528981 
L 85.376534 88.528981 
L 85.376534 89.225919 
L 81.849846 89.225919 
L 81.849846 88.528981 
z
M 86.84112 83.101794 
L 90.77862 83.101794 
L 90.77862 83.454856 
L 88.555245 89.225919 
L 87.690307 89.225919 
L 89.782432 83.800044 
L 86.84112 83.800044 
L 86.84112 83.101794 
z
" style="fill: #111827"/>
   </g>
   <g id="text_20">
    <path d="M 126.558036 11.092125 
L 127.911223 11.092125 
L 127.911223 6.419625 
L 126.438598 6.714937 
L 126.438598 5.96025 
L 127.903348 5.664937 
L 128.731536 5.664937 
L 128.731536 11.092125 
L 130.084723 11.092125 
L 130.084723 11.789062 
L 126.558036 11.789062 
L 126.558036 11.092125 
z
M 133.529872 8.880562 
Q 132.939247 8.880562 132.600622 9.196875 
Q 132.263309 9.513187 132.263309 10.06575 
Q 132.263309 10.619625 132.600622 10.935937 
Q 132.939247 11.25225 133.529872 11.25225 
Q 134.120497 11.25225 134.460434 10.934625 
Q 134.801684 10.615687 134.801684 10.06575 
Q 134.801684 9.513187 134.463059 9.196875 
Q 134.125747 8.880562 133.529872 8.880562 
z
M 132.701684 8.528812 
Q 132.168809 8.397562 131.870872 8.032687 
Q 131.574247 7.6665 131.574247 7.1415 
Q 131.574247 6.407812 132.096622 5.98125 
Q 132.620309 5.554687 133.529872 5.554687 
Q 134.444684 5.554687 134.965747 5.98125 
Q 135.486809 6.407812 135.486809 7.1415 
Q 135.486809 7.6665 135.188872 8.032687 
Q 134.892247 8.397562 134.363309 8.528812 
Q 134.961809 8.667937 135.295184 9.074812 
Q 135.629872 9.480375 135.629872 10.06575 
Q 135.629872 10.956937 135.086497 11.433375 
Q 134.543122 11.9085 133.529872 11.9085 
Q 132.517934 11.9085 131.973247 11.433375 
Q 131.429872 10.956937 131.429872 10.06575 
Q 131.429872 9.480375 131.765872 9.074812 
Q 132.103184 8.667937 132.701684 8.528812 
z
M 132.398497 7.22025 
Q 132.398497 7.695375 132.695122 7.961812 
Q 132.993059 8.22825 133.529872 8.22825 
Q 134.064059 8.22825 134.364622 7.961812 
Q 134.666497 7.695375 134.666497 7.22025 
Q 134.666497 6.743812 134.364622 6.477375 
Q 134.064059 6.210937 133.529872 6.210937 
Q 132.993059 6.210937 132.695122 6.477375 
Q 132.398497 6.743812 132.398497 7.22025 
z
" style="fill: #111827; stroke: #ffffff; stroke-width: 2.4"/>
    <path d="M 126.558036 11.092125 
L 127.911223 11.092125 
L 127.911223 6.419625 
L 126.438598 6.714937 
L 126.438598 5.96025 
L 127.903348 5.664937 
L 128.731536 5.664937 
L 128.731536 11.092125 
L 130.084723 11.092125 
L 130.084723 11.789062 
L 126.558036 11.789062 
L 126.558036 11.092125 
z
M 133.529872 8.880562 
Q 132.939247 8.880562 132.600622 9.196875 
Q 132.263309 9.513187 132.263309 10.06575 
Q 132.263309 10.619625 132.600622 10.935937 
Q 132.939247 11.25225 133.529872 11.25225 
Q 134.120497 11.25225 134.460434 10.934625 
Q 134.801684 10.615687 134.801684 10.06575 
Q 134.801684 9.513187 134.463059 9.196875 
Q 134.125747 8.880562 133.529872 8.880562 
z
M 132.701684 8.528812 
Q 132.168809 8.397562 131.870872 8.032687 
Q 131.574247 7.6665 131.574247 7.1415 
Q 131.574247 6.407812 132.096622 5.98125 
Q 132.620309 5.554687 133.529872 5.554687 
Q 134.444684 5.554687 134.965747 5.98125 
Q 135.486809 6.407812 135.486809 7.1415 
Q 135.486809 7.6665 135.188872 8.032687 
Q 134.892247 8.397562 134.363309 8.528812 
Q 134.961809 8.667937 135.295184 9.074812 
Q 135.629872 9.480375 135.629872 10.06575 
Q 135.629872 10.956937 135.086497 11.433375 
Q 134.543122 11.9085 133.529872 11.9085 
Q 132.517934 11.9085 131.973247 11.433375 
Q 131.429872 10.956937 131.429872 10.06575 
Q 131.429872 9.480375 131.765872 9.074812 
Q 132.103184 8.667937 132.701684 8.528812 
z
M 132.398497 7.22025 
Q 132.398497 7.695375 132.695122 7.961812 
Q 132.993059 8.22825 133.529872 8.22825 
Q 134.064059 8.22825 134.364622 7.961812 
Q 134.666497 7.695375 134.666497 7.22025 
Q 134.666497 6.743812 134.364622 6.477375 
Q 134.064059 6.210937 133.529872 6.210937 
Q 132.993059 6.210937 132.695122 6.477375 
Q 132.398497 6.743812 132.398497 7.22025 
z
" style="fill: #111827"/>
   </g>
   <g id="text_21">
    <path d="M 156.363496 39.102218 
L 157.716683 39.102218 
L 157.716683 34.429718 
L 156.244058 34.72503 
L 156.244058 33.970343 
L 157.708808 33.67503 
L 158.536996 33.67503 
L 158.536996 39.102218 
L 159.890183 39.102218 
L 159.890183 39.799155 
L 156.363496 39.799155 
L 156.363496 39.102218 
z
M 161.588394 39.671843 
L 161.588394 38.917155 
Q 161.900769 39.065468 162.219707 39.142905 
Q 162.539957 39.220343 162.848394 39.220343 
Q 163.668707 39.220343 164.100519 38.669093 
Q 164.533644 38.117843 164.595332 36.99303 
Q 164.357769 37.346093 163.991582 37.535093 
Q 163.626707 37.724093 163.184394 37.724093 
Q 162.265644 37.724093 161.730144 37.168905 
Q 161.194644 36.612405 161.194644 35.647718 
Q 161.194644 34.705343 161.752457 34.135718 
Q 162.310269 33.56478 163.236894 33.56478 
Q 164.300019 33.56478 164.859144 34.379843 
Q 165.419582 35.193593 165.419582 36.743655 
Q 165.419582 38.191343 164.731832 39.054968 
Q 164.045394 39.918593 162.885144 39.918593 
Q 162.572769 39.918593 162.252519 39.856905 
Q 161.933582 39.795218 161.588394 39.671843 
z
M 163.236894 37.075718 
Q 163.794707 37.075718 164.120207 36.695093 
Q 164.447019 36.313155 164.447019 35.647718 
Q 164.447019 34.98753 164.120207 34.60428 
Q 163.794707 34.22103 163.236894 34.22103 
Q 162.679082 34.22103 162.353582 34.60428 
Q 162.028082 34.98753 162.028082 35.647718 
Q 162.028082 36.313155 162.353582 36.695093 
Q 162.679082 37.075718 163.236894 37.075718 
z
" style="fill: #111827; stroke: #ffffff; stroke-width: 2.4"/>
    <path d="M 156.363496 39.102218 
L 157.716683 39.102218 
L 157.716683 34.429718 
L 156.244058 34.72503 
L 156.244058 33.970343 
L 157.708808 33.67503 
L 158.536996 33.67503 
L 158.536996 39.102218 
L 159.890183 39.102218 
L 159.890183 39.799155 
L 156.363496 39.799155 
L 156.363496 39.102218 
z
M 161.588394 39.671843 
L 161.588394 38.917155 
Q 161.900769 39.065468 162.219707 39.142905 
Q 162.539957 39.220343 162.848394 39.220343 
Q 163.668707 39.220343 164.100519 38.669093 
Q 164.533644 38.117843 164.595332 36.99303 
Q 164.357769 37.346093 163.991582 37.535093 
Q 163.626707 37.724093 163.184394 37.724093 
Q 162.265644 37.724093 161.730144 37.168905 
Q 161.194644 36.612405 161.194644 35.647718 
Q 161.194644 34.705343 161.752457 34.135718 
Q 162.310269 33.56478 163.236894 33.56478 
Q 164.300019 33.56478 164.859144 34.379843 
Q 165.419582 35.193593 165.419582 36.743655 
Q 165.419582 38.191343 164.731832 39.054968 
Q 164.045394 39.918593 162.885144 39.918593 
Q 162.572769 39.918593 162.252519 39.856905 
Q 161.933582 39.795218 161.588394 39.671843 
z
M 163.236894 37.075718 
Q 163.794707 37.075718 164.120207 36.695093 
Q 164.447019 36.313155 164.447019 35.647718 
Q 164.447019 34.98753 164.120207 34.60428 
Q 163.794707 34.22103 163.236894 34.22103 
Q 162.679082 34.22103 162.353582 34.60428 
Q 162.028082 34.98753 162.028082 35.647718 
Q 162.028082 36.313155 162.353582 36.695093 
Q 162.679082 37.075718 163.236894 37.075718 
z
" style="fill: #111827"/>
   </g>
   <g id="text_22">
    <path d="M 128.045407 253.012125 
L 130.936845 253.012125 
L 130.936845 253.709062 
L 127.04922 253.709062 
L 127.04922 253.012125 
Q 127.520407 252.523875 128.334157 251.70225 
Q 129.14922 250.879312 129.357907 250.640437 
Q 129.755595 250.194187 129.913095 249.884437 
Q 130.071907 249.574687 130.071907 249.275437 
Q 130.071907 248.787187 129.729345 248.480062 
Q 129.386782 248.171625 128.836845 248.171625 
Q 128.447032 248.171625 128.013907 248.306812 
Q 127.582095 248.442 127.089907 248.717625 
L 127.089907 247.88025 
Q 127.58997 247.679437 128.024407 247.577062 
Q 128.460157 247.474687 128.821095 247.474687 
Q 129.772657 247.474687 130.338345 247.951125 
Q 130.904032 248.42625 130.904032 249.221625 
Q 130.904032 249.599625 130.762282 249.93825 
Q 130.621845 250.275562 130.247782 250.734937 
Q 130.145407 250.854375 129.59547 251.422687 
Q 129.046845 251.991 128.045407 253.012125 
z
M 134.447618 248.130937 
Q 133.808431 248.130937 133.485556 248.760937 
Q 133.163993 249.389625 133.163993 250.653562 
Q 133.163993 251.91225 133.485556 252.54225 
Q 133.808431 253.17225 134.447618 253.17225 
Q 135.092056 253.17225 135.413618 252.54225 
Q 135.736493 251.91225 135.736493 250.653562 
Q 135.736493 249.389625 135.413618 248.760937 
Q 135.092056 248.130937 134.447618 248.130937 
z
M 134.447618 247.474687 
Q 135.477931 247.474687 136.021306 248.28975 
Q 136.564681 249.1035 136.564681 250.653562 
Q 136.564681 252.199687 136.021306 253.01475 
Q 135.477931 253.8285 134.447618 253.8285 
Q 133.418618 253.8285 132.875243 253.01475 
Q 132.331868 252.199687 132.331868 250.653562 
Q 132.331868 249.1035 132.875243 248.28975 
Q 133.418618 247.474687 134.447618 247.474687 
z
" style="fill: #111827; stroke: #ffffff; stroke-width: 2.4"/>
    <path d="M 128.045407 253.012125 
L 130.936845 253.012125 
L 130.936845 253.709062 
L 127.04922 253.709062 
L 127.04922 253.012125 
Q 127.520407 252.523875 128.334157 251.70225 
Q 129.14922 250.879312 129.357907 250.640437 
Q 129.755595 250.194187 129.913095 249.884437 
Q 130.071907 249.574687 130.071907 249.275437 
Q 130.071907 248.787187 129.729345 248.480062 
Q 129.386782 248.171625 128.836845 248.171625 
Q 128.447032 248.171625 128.013907 248.306812 
Q 127.582095 248.442 127.089907 248.717625 
L 127.089907 247.88025 
Q 127.58997 247.679437 128.024407 247.577062 
Q 128.460157 247.474687 128.821095 247.474687 
Q 129.772657 247.474687 130.338345 247.951125 
Q 130.904032 248.42625 130.904032 249.221625 
Q 130.904032 249.599625 130.762282 249.93825 
Q 130.621845 250.275562 130.247782 250.734937 
Q 130.145407 250.854375 129.59547 251.422687 
Q 129.046845 251.991 128.045407 253.012125 
z
M 134.447618 248.130937 
Q 133.808431 248.130937 133.485556 248.760937 
Q 133.163993 249.389625 133.163993 250.653562 
Q 133.163993 251.91225 133.485556 252.54225 
Q 133.808431 253.17225 134.447618 253.17225 
Q 135.092056 253.17225 135.413618 252.54225 
Q 135.736493 251.91225 135.736493 250.653562 
Q 135.736493 249.389625 135.413618 248.760937 
Q 135.092056 248.130937 134.447618 248.130937 
z
M 134.447618 247.474687 
Q 135.477931 247.474687 136.021306 248.28975 
Q 136.564681 249.1035 136.564681 250.653562 
Q 136.564681 252.199687 136.021306 253.01475 
Q 135.477931 253.8285 134.447618 253.8285 
Q 133.418618 253.8285 132.875243 253.01475 
Q 132.331868 252.199687 132.331868 250.653562 
Q 132.331868 249.1035 132.875243 248.28975 
Q 133.418618 247.474687 134.447618 247.474687 
z
" style="fill: #111827"/>
   </g>
   <g id="text_23">
    <path d="M 61.968733 175.575269 
L 64.860171 175.575269 
L 64.860171 176.272206 
L 60.972546 176.272206 
L 60.972546 175.575269 
Q 61.443733 175.087019 62.257483 174.265394 
Q 63.072546 173.442456 63.281233 173.203581 
Q 63.678921 172.757331 63.836421 172.447581 
Q 63.995233 172.137831 63.995233 171.838581 
Q 63.995233 171.350331 63.652671 171.043206 
Q 63.310108 170.734769 62.760171 170.734769 
Q 62.370358 170.734769 61.937233 170.869956 
Q 61.505421 171.005144 61.013233 171.280769 
L 61.013233 170.443394 
Q 61.513296 170.242581 61.947733 170.140206 
Q 62.383483 170.037831 62.744421 170.037831 
Q 63.695983 170.037831 64.261671 170.514269 
Q 64.827358 170.989394 64.827358 171.784769 
Q 64.827358 172.162769 64.685608 172.501394 
Q 64.545171 172.838706 64.171108 173.298081 
Q 64.068733 173.417519 63.518796 173.985831 
Q 62.970171 174.554144 61.968733 175.575269 
z
M 66.743444 175.575269 
L 68.096632 175.575269 
L 68.096632 170.902769 
L 66.624007 171.198081 
L 66.624007 170.443394 
L 68.088757 170.148081 
L 68.916944 170.148081 
L 68.916944 175.575269 
L 70.270132 175.575269 
L 70.270132 176.272206 
L 66.743444 176.272206 
L 66.743444 175.575269 
z
" style="fill: #111827; stroke: #ffffff; stroke-width: 2.4"/>
    <path d="M 61.968733 175.575269 
L 64.860171 175.575269 
L 64.860171 176.272206 
L 60.972546 176.272206 
L 60.972546 175.575269 
Q 61.443733 175.087019 62.257483 174.265394 
Q 63.072546 173.442456 63.281233 173.203581 
Q 63.678921 172.757331 63.836421 172.447581 
Q 63.995233 172.137831 63.995233 171.838581 
Q 63.995233 171.350331 63.652671 171.043206 
Q 63.310108 170.734769 62.760171 170.734769 
Q 62.370358 170.734769 61.937233 170.869956 
Q 61.505421 171.005144 61.013233 171.280769 
L 61.013233 170.443394 
Q 61.513296 170.242581 61.947733 170.140206 
Q 62.383483 170.037831 62.744421 170.037831 
Q 63.695983 170.037831 64.261671 170.514269 
Q 64.827358 170.989394 64.827358 171.784769 
Q 64.827358 172.162769 64.685608 172.501394 
Q 64.545171 172.838706 64.171108 173.298081 
Q 64.068733 173.417519 63.518796 173.985831 
Q 62.970171 174.554144 61.968733 175.575269 
z
M 66.743444 175.575269 
L 68.096632 175.575269 
L 68.096632 170.902769 
L 66.624007 171.198081 
L 66.624007 170.443394 
L 68.088757 170.148081 
L 68.916944 170.148081 
L 68.916944 175.575269 
L 70.270132 175.575269 
L 70.270132 176.272206 
L 66.743444 176.272206 
L 66.743444 175.575269 
z
" style="fill: #111827"/>
   </g>
   <g id="text_24">
    <path d="M 151.385113 175.575269 
L 154.27655 175.575269 
L 154.27655 176.272206 
L 150.388925 176.272206 
L 150.388925 175.575269 
Q 150.860113 175.087019 151.673863 174.265394 
Q 152.488925 173.442456 152.697613 173.203581 
Q 153.0953 172.757331 153.2528 172.447581 
Q 153.411613 172.137831 153.411613 171.838581 
Q 153.411613 171.350331 153.06905 171.043206 
Q 152.726488 170.734769 152.17655 170.734769 
Q 151.786738 170.734769 151.353613 170.869956 
Q 150.9218 171.005144 150.429613 171.280769 
L 150.429613 170.443394 
Q 150.929675 170.242581 151.364113 170.140206 
Q 151.799863 170.037831 152.1608 170.037831 
Q 153.112363 170.037831 153.67805 170.514269 
Q 154.243738 170.989394 154.243738 171.784769 
Q 154.243738 172.162769 154.101988 172.501394 
Q 153.96155 172.838706 153.587488 173.298081 
Q 153.485113 173.417519 152.935175 173.985831 
Q 152.38655 174.554144 151.385113 175.575269 
z
M 156.729449 175.575269 
L 159.620886 175.575269 
L 159.620886 176.272206 
L 155.733261 176.272206 
L 155.733261 175.575269 
Q 156.204449 175.087019 157.018199 174.265394 
Q 157.833261 173.442456 158.041949 173.203581 
Q 158.439636 172.757331 158.597136 172.447581 
Q 158.755949 172.137831 158.755949 171.838581 
Q 158.755949 171.350331 158.413386 171.043206 
Q 158.070824 170.734769 157.520886 170.734769 
Q 157.131074 170.734769 156.697949 170.869956 
Q 156.266136 171.005144 155.773949 171.280769 
L 155.773949 170.443394 
Q 156.274011 170.242581 156.708449 170.140206 
Q 157.144199 170.037831 157.505136 170.037831 
Q 158.456699 170.037831 159.022386 170.514269 
Q 159.588074 170.989394 159.588074 171.784769 
Q 159.588074 172.162769 159.446324 172.501394 
Q 159.305886 172.838706 158.931824 173.298081 
Q 158.829449 173.417519 158.279511 173.985831 
Q 157.730886 174.554144 156.729449 175.575269 
z
" style="fill: #111827; stroke: #ffffff; stroke-width: 2.4"/>
    <path d="M 151.385113 175.575269 
L 154.27655 175.575269 
L 154.27655 176.272206 
L 150.388925 176.272206 
L 150.388925 175.575269 
Q 150.860113 175.087019 151.673863 174.265394 
Q 152.488925 173.442456 152.697613 173.203581 
Q 153.0953 172.757331 153.2528 172.447581 
Q 153.411613 172.137831 153.411613 171.838581 
Q 153.411613 171.350331 153.06905 171.043206 
Q 152.726488 170.734769 152.17655 170.734769 
Q 151.786738 170.734769 151.353613 170.869956 
Q 150.9218 171.005144 150.429613 171.280769 
L 150.429613 170.443394 
Q 150.929675 170.242581 151.364113 170.140206 
Q 151.799863 170.037831 152.1608 170.037831 
Q 153.112363 170.037831 153.67805 170.514269 
Q 154.243738 170.989394 154.243738 171.784769 
Q 154.243738 172.162769 154.101988 172.501394 
Q 153.96155 172.838706 153.587488 173.298081 
Q 153.485113 173.417519 152.935175 173.985831 
Q 152.38655 174.554144 151.385113 175.575269 
z
M 156.729449 175.575269 
L 159.620886 175.575269 
L 159.620886 176.272206 
L 155.733261 176.272206 
L 155.733261 175.575269 
Q 156.204449 175.087019 157.018199 174.265394 
Q 157.833261 173.442456 158.041949 173.203581 
Q 158.439636 172.757331 158.597136 172.447581 
Q 158.755949 172.137831 158.755949 171.838581 
Q 158.755949 171.350331 158.413386 171.043206 
Q 158.070824 170.734769 157.520886 170.734769 
Q 157.131074 170.734769 156.697949 170.869956 
Q 156.266136 171.005144 155.773949 171.280769 
L 155.773949 170.443394 
Q 156.274011 170.242581 156.708449 170.140206 
Q 157.144199 170.037831 157.505136 170.037831 
Q 158.456699 170.037831 159.022386 170.514269 
Q 159.588074 170.989394 159.588074 171.784769 
Q 159.588074 172.162769 159.446324 172.501394 
Q 159.305886 172.838706 158.931824 173.298081 
Q 158.829449 173.417519 158.279511 173.985831 
Q 157.730886 174.554144 156.729449 175.575269 
z
" style="fill: #111827"/>
   </g>
   <g id="text_25">
    <path d="M 47.066003 126.148505 
L 49.957441 126.148505 
L 49.957441 126.845443 
L 46.069816 126.845443 
L 46.069816 126.148505 
Q 46.541003 125.660255 47.354753 124.83863 
Q 48.169816 124.015693 48.378503 123.776818 
Q 48.776191 123.330568 48.933691 123.020818 
Q 49.092503 122.711068 49.092503 122.411818 
Q 49.092503 121.923568 48.749941 121.616443 
Q 48.407378 121.308005 47.857441 121.308005 
Q 47.467628 121.308005 47.034503 121.443193 
Q 46.602691 121.57838 46.110503 121.854005 
L 46.110503 121.01663 
Q 46.610566 120.815818 47.045003 120.713443 
Q 47.480753 120.611068 47.841691 120.611068 
Q 48.793253 120.611068 49.358941 121.087505 
Q 49.924628 121.56263 49.924628 122.358005 
Q 49.924628 122.736005 49.782878 123.07463 
Q 49.642441 123.411943 49.268378 123.871318 
Q 49.166003 123.990755 48.616066 124.559068 
Q 48.067441 125.12738 47.066003 126.148505 
z
M 54.207152 123.543193 
Q 54.801714 123.670505 55.135089 124.073443 
Q 55.469777 124.475068 55.469777 125.065693 
Q 55.469777 125.971318 54.846339 126.468755 
Q 54.222902 126.96488 53.074464 126.96488 
Q 52.689902 126.96488 52.281714 126.888755 
Q 51.873527 126.81263 51.439089 126.66038 
L 51.439089 125.861068 
Q 51.782964 126.06188 52.192464 126.164255 
Q 52.603277 126.26663 53.050839 126.26663 
Q 53.829152 126.26663 54.237339 125.959505 
Q 54.645527 125.65238 54.645527 125.065693 
Q 54.645527 124.52363 54.266214 124.21913 
Q 53.886902 123.913318 53.210964 123.913318 
L 52.496964 123.913318 
L 52.496964 123.23213 
L 53.243777 123.23213 
Q 53.854089 123.23213 54.178277 122.988005 
Q 54.502464 122.74388 54.502464 122.284505 
Q 54.502464 121.813318 54.167777 121.561318 
Q 53.834402 121.308005 53.210964 121.308005 
Q 52.869714 121.308005 52.479902 121.382818 
Q 52.090089 121.456318 51.622839 121.611193 
L 51.622839 120.873568 
Q 52.095339 120.742318 52.507464 120.676693 
Q 52.919589 120.611068 53.284464 120.611068 
Q 54.228152 120.611068 54.776777 121.040255 
Q 55.326714 121.46813 55.326714 122.19788 
Q 55.326714 122.70713 55.035339 123.057568 
Q 54.743964 123.408005 54.207152 123.543193 
z
" style="fill: #111827; stroke: #ffffff; stroke-width: 2.4"/>
    <path d="M 47.066003 126.148505 
L 49.957441 126.148505 
L 49.957441 126.845443 
L 46.069816 126.845443 
L 46.069816 126.148505 
Q 46.541003 125.660255 47.354753 124.83863 
Q 48.169816 124.015693 48.378503 123.776818 
Q 48.776191 123.330568 48.933691 123.020818 
Q 49.092503 122.711068 49.092503 122.411818 
Q 49.092503 121.923568 48.749941 121.616443 
Q 48.407378 121.308005 47.857441 121.308005 
Q 47.467628 121.308005 47.034503 121.443193 
Q 46.602691 121.57838 46.110503 121.854005 
L 46.110503 121.01663 
Q 46.610566 120.815818 47.045003 120.713443 
Q 47.480753 120.611068 47.841691 120.611068 
Q 48.793253 120.611068 49.358941 121.087505 
Q 49.924628 121.56263 49.924628 122.358005 
Q 49.924628 122.736005 49.782878 123.07463 
Q 49.642441 123.411943 49.268378 123.871318 
Q 49.166003 123.990755 48.616066 124.559068 
Q 48.067441 125.12738 47.066003 126.148505 
z
M 54.207152 123.543193 
Q 54.801714 123.670505 55.135089 124.073443 
Q 55.469777 124.475068 55.469777 125.065693 
Q 55.469777 125.971318 54.846339 126.468755 
Q 54.222902 126.96488 53.074464 126.96488 
Q 52.689902 126.96488 52.281714 126.888755 
Q 51.873527 126.81263 51.439089 126.66038 
L 51.439089 125.861068 
Q 51.782964 126.06188 52.192464 126.164255 
Q 52.603277 126.26663 53.050839 126.26663 
Q 53.829152 126.26663 54.237339 125.959505 
Q 54.645527 125.65238 54.645527 125.065693 
Q 54.645527 124.52363 54.266214 124.21913 
Q 53.886902 123.913318 53.210964 123.913318 
L 52.496964 123.913318 
L 52.496964 123.23213 
L 53.243777 123.23213 
Q 53.854089 123.23213 54.178277 122.988005 
Q 54.502464 122.74388 54.502464 122.284505 
Q 54.502464 121.813318 54.167777 121.561318 
Q 53.834402 121.308005 53.210964 121.308005 
Q 52.869714 121.308005 52.479902 121.382818 
Q 52.090089 121.456318 51.622839 121.611193 
L 51.622839 120.873568 
Q 52.095339 120.742318 52.507464 120.676693 
Q 52.919589 120.611068 53.284464 120.611068 
Q 54.228152 120.611068 54.776777 121.040255 
Q 55.326714 121.46813 55.326714 122.19788 
Q 55.326714 122.70713 55.035339 123.057568 
Q 54.743964 123.408005 54.207152 123.543193 
z
" style="fill: #111827"/>
   </g>
   <g id="text_26">
    <path d="M 136.482383 126.148505 
L 139.37382 126.148505 
L 139.37382 126.845443 
L 135.486195 126.845443 
L 135.486195 126.148505 
Q 135.957383 125.660255 136.771133 124.83863 
Q 137.586195 124.015693 137.794883 123.776818 
Q 138.19257 123.330568 138.35007 123.020818 
Q 138.508883 122.711068 138.508883 122.411818 
Q 138.508883 121.923568 138.16632 121.616443 
Q 137.823758 121.308005 137.27382 121.308005 
Q 136.884008 121.308005 136.450883 121.443193 
Q 136.01907 121.57838 135.526883 121.854005 
L 135.526883 121.01663 
Q 136.026945 120.815818 136.461383 120.713443 
Q 136.897133 120.611068 137.25807 120.611068 
Q 138.209633 120.611068 138.77532 121.087505 
Q 139.341008 121.56263 139.341008 122.358005 
Q 139.341008 122.736005 139.199258 123.07463 
Q 139.05882 123.411943 138.684758 123.871318 
Q 138.582383 123.990755 138.032445 124.559068 
Q 137.48382 125.12738 136.482383 126.148505 
z
M 143.389906 121.443193 
L 141.297781 124.71263 
L 143.389906 124.71263 
L 143.389906 121.443193 
z
M 143.172031 120.721318 
L 144.214156 120.721318 
L 144.214156 124.71263 
L 145.088281 124.71263 
L 145.088281 125.401693 
L 144.214156 125.401693 
L 144.214156 126.845443 
L 143.389906 126.845443 
L 143.389906 125.401693 
L 140.625781 125.401693 
L 140.625781 124.60238 
L 143.172031 120.721318 
z
" style="fill: #111827; stroke: #ffffff; stroke-width: 2.4"/>
    <path d="M 136.482383 126.148505 
L 139.37382 126.148505 
L 139.37382 126.845443 
L 135.486195 126.845443 
L 135.486195 126.148505 
Q 135.957383 125.660255 136.771133 124.83863 
Q 137.586195 124.015693 137.794883 123.776818 
Q 138.19257 123.330568 138.35007 123.020818 
Q 138.508883 122.711068 138.508883 122.411818 
Q 138.508883 121.923568 138.16632 121.616443 
Q 137.823758 121.308005 137.27382 121.308005 
Q 136.884008 121.308005 136.450883 121.443193 
Q 136.01907 121.57838 135.526883 121.854005 
L 135.526883 121.01663 
Q 136.026945 120.815818 136.461383 120.713443 
Q 136.897133 120.611068 137.25807 120.611068 
Q 138.209633 120.611068 138.77532 121.087505 
Q 139.341008 121.56263 139.341008 122.358005 
Q 139.341008 122.736005 139.199258 123.07463 
Q 139.05882 123.411943 138.684758 123.871318 
Q 138.582383 123.990755 138.032445 124.559068 
Q 137.48382 125.12738 136.482383 126.148505 
z
M 143.389906 121.443193 
L 141.297781 124.71263 
L 143.389906 124.71263 
L 143.389906 121.443193 
z
M 143.172031 120.721318 
L 144.214156 120.721318 
L 144.214156 124.71263 
L 145.088281 124.71263 
L 145.088281 125.401693 
L 144.214156 125.401693 
L 144.214156 126.845443 
L 143.389906 126.845443 
L 143.389906 125.401693 
L 140.625781 125.401693 
L 140.625781 124.60238 
L 143.172031 120.721318 
z
" style="fill: #111827"/>
   </g>
   <g id="text_27">
    <path d="M 91.774193 48.711649 
L 94.665631 48.711649 
L 94.665631 49.408587 
L 90.778006 49.408587 
L 90.778006 48.711649 
Q 91.249193 48.223399 92.062943 47.401774 
Q 92.878006 46.578837 93.086693 46.339962 
Q 93.484381 45.893712 93.641881 45.583962 
Q 93.800693 45.274212 93.800693 44.974962 
Q 93.800693 44.486712 93.458131 44.179587 
Q 93.115568 43.871149 92.565631 43.871149 
Q 92.175818 43.871149 91.742693 44.006337 
Q 91.310881 44.141524 90.818693 44.417149 
L 90.818693 43.579774 
Q 91.318756 43.378962 91.753193 43.276587 
Q 92.188943 43.174212 92.549881 43.174212 
Q 93.501443 43.174212 94.067131 43.650649 
Q 94.632818 44.125774 94.632818 44.921149 
Q 94.632818 45.299149 94.491068 45.637774 
Q 94.350631 45.975087 93.976568 46.434462 
Q 93.874193 46.553899 93.324256 47.122212 
Q 92.775631 47.690524 91.774193 48.711649 
z
M 96.413716 43.284462 
L 99.666091 43.284462 
L 99.666091 43.982712 
L 97.172341 43.982712 
L 97.172341 45.482899 
Q 97.352154 45.421212 97.531966 45.391024 
Q 97.713091 45.360837 97.894216 45.360837 
Q 98.919279 45.360837 99.517779 45.922587 
Q 100.117591 46.484337 100.117591 47.443774 
Q 100.117591 48.432087 99.502029 48.980712 
Q 98.886466 49.528024 97.766904 49.528024 
Q 97.381029 49.528024 96.980716 49.462399 
Q 96.581716 49.396774 96.155154 49.265524 
L 96.155154 48.432087 
Q 96.523966 48.632899 96.917716 48.731337 
Q 97.311466 48.829774 97.749841 48.829774 
Q 98.459904 48.829774 98.873341 48.457024 
Q 99.288091 48.084274 99.288091 47.443774 
Q 99.288091 46.804587 98.873341 46.431837 
Q 98.459904 46.057774 97.749841 46.057774 
Q 97.417779 46.057774 97.087029 46.131274 
Q 96.757591 46.204774 96.413716 46.360962 
L 96.413716 43.284462 
z
" style="fill: #111827; stroke: #ffffff; stroke-width: 2.4"/>
    <path d="M 91.774193 48.711649 
L 94.665631 48.711649 
L 94.665631 49.408587 
L 90.778006 49.408587 
L 90.778006 48.711649 
Q 91.249193 48.223399 92.062943 47.401774 
Q 92.878006 46.578837 93.086693 46.339962 
Q 93.484381 45.893712 93.641881 45.583962 
Q 93.800693 45.274212 93.800693 44.974962 
Q 93.800693 44.486712 93.458131 44.179587 
Q 93.115568 43.871149 92.565631 43.871149 
Q 92.175818 43.871149 91.742693 44.006337 
Q 91.310881 44.141524 90.818693 44.417149 
L 90.818693 43.579774 
Q 91.318756 43.378962 91.753193 43.276587 
Q 92.188943 43.174212 92.549881 43.174212 
Q 93.501443 43.174212 94.067131 43.650649 
Q 94.632818 44.125774 94.632818 44.921149 
Q 94.632818 45.299149 94.491068 45.637774 
Q 94.350631 45.975087 93.976568 46.434462 
Q 93.874193 46.553899 93.324256 47.122212 
Q 92.775631 47.690524 91.774193 48.711649 
z
M 96.413716 43.284462 
L 99.666091 43.284462 
L 99.666091 43.982712 
L 97.172341 43.982712 
L 97.172341 45.482899 
Q 97.352154 45.421212 97.531966 45.391024 
Q 97.713091 45.360837 97.894216 45.360837 
Q 98.919279 45.360837 99.517779 45.922587 
Q 100.117591 46.484337 100.117591 47.443774 
Q 100.117591 48.432087 99.502029 48.980712 
Q 98.886466 49.528024 97.766904 49.528024 
Q 97.381029 49.528024 96.980716 49.462399 
Q 96.581716 49.396774 96.155154 49.265524 
L 96.155154 48.432087 
Q 96.523966 48.632899 96.917716 48.731337 
Q 97.311466 48.829774 97.749841 48.829774 
Q 98.459904 48.829774 98.873341 48.457024 
Q 99.288091 48.084274 99.288091 47.443774 
Q 99.288091 46.804587 98.873341 46.431837 
Q 98.459904 46.057774 97.749841 46.057774 
Q 97.417779 46.057774 97.087029 46.131274 
Q 96.757591 46.204774 96.413716 46.360962 
L 96.413716 43.284462 
z
" style="fill: #111827"/>
   </g>
   <g id="text_28">
    <path d="M 202.559057 48.711649 
L 205.450494 48.711649 
L 205.450494 49.408587 
L 201.562869 49.408587 
L 201.562869 48.711649 
Q 202.034057 48.223399 202.847807 47.401774 
Q 203.662869 46.578837 203.871557 46.339962 
Q 204.269244 45.893712 204.426744 45.583962 
Q 204.585557 45.274212 204.585557 44.974962 
Q 204.585557 44.486712 204.242994 44.179587 
Q 203.900432 43.871149 203.350494 43.871149 
Q 202.960682 43.871149 202.527557 44.006337 
Q 202.095744 44.141524 201.603557 44.417149 
L 201.603557 43.579774 
Q 202.103619 43.378962 202.538057 43.276587 
Q 202.973807 43.174212 203.334744 43.174212 
Q 204.286307 43.174212 204.851994 43.650649 
Q 205.417682 44.125774 205.417682 44.921149 
Q 205.417682 45.299149 205.275932 45.637774 
Q 205.135494 45.975087 204.761432 46.434462 
Q 204.659057 46.553899 204.109119 47.122212 
Q 203.560494 47.690524 202.559057 48.711649 
z
M 209.064955 46.017087 
Q 208.507143 46.017087 208.18033 46.399024 
Q 207.85483 46.779649 207.85483 47.443774 
Q 207.85483 48.103962 208.18033 48.488524 
Q 208.507143 48.871774 209.064955 48.871774 
Q 209.622768 48.871774 209.948268 48.488524 
Q 210.273768 48.103962 210.273768 47.443774 
Q 210.273768 46.779649 209.948268 46.399024 
Q 209.622768 46.017087 209.064955 46.017087 
z
M 210.709518 43.419649 
L 210.709518 44.174337 
Q 210.397143 44.027337 210.079518 43.949899 
Q 209.761893 43.871149 209.449518 43.871149 
Q 208.629205 43.871149 208.19608 44.425024 
Q 207.764268 44.978899 207.70258 46.098462 
Q 207.94408 45.741462 208.308955 45.551149 
Q 208.675143 45.360837 209.113518 45.360837 
Q 210.036205 45.360837 210.571705 45.921274 
Q 211.107205 46.480399 211.107205 47.443774 
Q 211.107205 48.387462 210.549393 48.958399 
Q 209.99158 49.528024 209.064955 49.528024 
Q 208.00183 49.528024 207.44008 48.714274 
Q 206.87833 47.899212 206.87833 46.353087 
Q 206.87833 44.901462 207.567393 44.037837 
Q 208.256455 43.174212 209.416705 43.174212 
Q 209.72908 43.174212 210.046705 43.235899 
Q 210.36433 43.297587 210.709518 43.419649 
z
" style="fill: #111827; stroke: #ffffff; stroke-width: 2.4"/>
    <path d="M 202.559057 48.711649 
L 205.450494 48.711649 
L 205.450494 49.408587 
L 201.562869 49.408587 
L 201.562869 48.711649 
Q 202.034057 48.223399 202.847807 47.401774 
Q 203.662869 46.578837 203.871557 46.339962 
Q 204.269244 45.893712 204.426744 45.583962 
Q 204.585557 45.274212 204.585557 44.974962 
Q 204.585557 44.486712 204.242994 44.179587 
Q 203.900432 43.871149 203.350494 43.871149 
Q 202.960682 43.871149 202.527557 44.006337 
Q 202.095744 44.141524 201.603557 44.417149 
L 201.603557 43.579774 
Q 202.103619 43.378962 202.538057 43.276587 
Q 202.973807 43.174212 203.334744 43.174212 
Q 204.286307 43.174212 204.851994 43.650649 
Q 205.417682 44.125774 205.417682 44.921149 
Q 205.417682 45.299149 205.275932 45.637774 
Q 205.135494 45.975087 204.761432 46.434462 
Q 204.659057 46.553899 204.109119 47.122212 
Q 203.560494 47.690524 202.559057 48.711649 
z
M 209.064955 46.017087 
Q 208.507143 46.017087 208.18033 46.399024 
Q 207.85483 46.779649 207.85483 47.443774 
Q 207.85483 48.103962 208.18033 48.488524 
Q 208.507143 48.871774 209.064955 48.871774 
Q 209.622768 48.871774 209.948268 48.488524 
Q 210.273768 48.103962 210.273768 47.443774 
Q 210.273768 46.779649 209.948268 46.399024 
Q 209.622768 46.017087 209.064955 46.017087 
z
M 210.709518 43.419649 
L 210.709518 44.174337 
Q 210.397143 44.027337 210.079518 43.949899 
Q 209.761893 43.871149 209.449518 43.871149 
Q 208.629205 43.871149 208.19608 44.425024 
Q 207.764268 44.978899 207.70258 46.098462 
Q 207.94408 45.741462 208.308955 45.551149 
Q 208.675143 45.360837 209.113518 45.360837 
Q 210.036205 45.360837 210.571705 45.921274 
Q 211.107205 46.480399 211.107205 47.443774 
Q 211.107205 48.387462 210.549393 48.958399 
Q 209.99158 49.528024 209.064955 49.528024 
Q 208.00183 49.528024 207.44008 48.714274 
Q 206.87833 47.899212 206.87833 46.353087 
Q 206.87833 44.901462 207.567393 44.037837 
Q 208.256455 43.174212 209.416705 43.174212 
Q 209.72908 43.174212 210.046705 43.235899 
Q 210.36433 43.297587 210.709518 43.419649 
z
" style="fill: #111827"/>
   </g>
   <g id="text_29">
    <path d="M 71.323455 135.757937 
L 74.214893 135.757937 
L 74.214893 136.454875 
L 70.327268 136.454875 
L 70.327268 135.757937 
Q 70.798455 135.269687 71.612205 134.448062 
Q 72.427268 133.625125 72.635955 133.38625 
Q 73.033643 132.94 73.191143 132.63025 
Q 73.349955 132.3205 73.349955 132.02125 
Q 73.349955 131.533 73.007393 131.225875 
Q 72.66483 130.917437 72.114893 130.917437 
Q 71.72508 130.917437 71.291955 131.052625 
Q 70.860143 131.187812 70.367955 131.463437 
L 70.367955 130.626062 
Q 70.868018 130.42525 71.302455 130.322875 
Q 71.738205 130.2205 72.099143 130.2205 
Q 73.050705 130.2205 73.616393 130.696937 
Q 74.18208 131.172062 74.18208 131.967437 
Q 74.18208 132.345437 74.04033 132.684062 
Q 73.899893 133.021375 73.52583 133.48075 
Q 73.423455 133.600187 72.873518 134.1685 
Q 72.324893 134.736812 71.323455 135.757937 
z
M 75.745104 130.33075 
L 79.682604 130.33075 
L 79.682604 130.683812 
L 77.459229 136.454875 
L 76.594291 136.454875 
L 78.686416 131.029 
L 75.745104 131.029 
L 75.745104 130.33075 
z
" style="fill: #111827; stroke: #ffffff; stroke-width: 2.4"/>
    <path d="M 71.323455 135.757937 
L 74.214893 135.757937 
L 74.214893 136.454875 
L 70.327268 136.454875 
L 70.327268 135.757937 
Q 70.798455 135.269687 71.612205 134.448062 
Q 72.427268 133.625125 72.635955 133.38625 
Q 73.033643 132.94 73.191143 132.63025 
Q 73.349955 132.3205 73.349955 132.02125 
Q 73.349955 131.533 73.007393 131.225875 
Q 72.66483 130.917437 72.114893 130.917437 
Q 71.72508 130.917437 71.291955 131.052625 
Q 70.860143 131.187812 70.367955 131.463437 
L 70.367955 130.626062 
Q 70.868018 130.42525 71.302455 130.322875 
Q 71.738205 130.2205 72.099143 130.2205 
Q 73.050705 130.2205 73.616393 130.696937 
Q 74.18208 131.172062 74.18208 131.967437 
Q 74.18208 132.345437 74.04033 132.684062 
Q 73.899893 133.021375 73.52583 133.48075 
Q 73.423455 133.600187 72.873518 134.1685 
Q 72.324893 134.736812 71.323455 135.757937 
z
M 75.745104 130.33075 
L 79.682604 130.33075 
L 79.682604 130.683812 
L 77.459229 136.454875 
L 76.594291 136.454875 
L 78.686416 131.029 
L 75.745104 131.029 
L 75.745104 130.33075 
z
" style="fill: #111827"/>
   </g>
   <g id="PathCollection_1">
    <defs>
     <path id="C0_0_fefefbef72" d="M 0 3.162278 
C 0.838646 3.162278 1.643056 2.82908 2.236068 2.236068 
C 2.82908 1.643056 3.162278 0.838646 3.162278 -0 
C 3.162278 -0.838646 2.82908 -1.643056 2.236068 -2.236068 
C 1.643056 -2.82908 0.838646 -3.162278 0 -3.162278 
C -0.838646 -3.162278 -1.643056 -2.82908 -2.236068 -2.236068 
C -2.82908 -1.643056 -3.162278 -0.838646 -3.162278 0 
C -3.162278 0.838646 -2.82908 1.643056 -2.236068 2.236068 
C -1.643056 2.82908 -0.838646 3.162278 0 3.162278 
z
"/>
    </defs>
    <g clip-path="url(#p057172ce68)">
     <use xlink:href="#C0_0_fefefbef72" x="20.515656" y="215.103933" style="fill: #2b2d42"/>
    </g>
    <g clip-path="url(#p057172ce68)">
     <use xlink:href="#C0_0_fefefbef72" x="13.343394" y="242.871176" style="fill: #2b2d42"/>
    </g>
    <g clip-path="url(#p057172ce68)">
     <use xlink:href="#C0_0_fefefbef72" x="212.251096" y="164.014098" style="fill: #2b2d42"/>
    </g>
    <g clip-path="url(#p057172ce68)">
     <use xlink:href="#C0_0_fefefbef72" x="197.348367" y="114.587334" style="fill: #2b2d42"/>
    </g>
    <g clip-path="url(#p057172ce68)">
     <use xlink:href="#C0_0_fefefbef72" x="102.383979" y="251.060385" style="fill: #2b2d42"/>
    </g>
    <g clip-path="url(#p057172ce68)">
     <use xlink:href="#C0_0_fefefbef72" x="176.897629" y="201.633622" style="fill: #2b2d42"/>
    </g>
    <g clip-path="url(#p057172ce68)">
     <use xlink:href="#C0_0_fefefbef72" x="161.994899" y="152.206859" style="fill: #2b2d42"/>
    </g>
    <g clip-path="url(#p057172ce68)">
     <use xlink:href="#C0_0_fefefbef72" x="251.411278" y="152.206859" style="fill: #2b2d42"/>
    </g>
    <g clip-path="url(#p057172ce68)">
     <use xlink:href="#C0_0_fefefbef72" x="206.703088" y="74.770002" style="fill: #2b2d42"/>
    </g>
    <g clip-path="url(#p057172ce68)">
     <use xlink:href="#C0_0_fefefbef72" x="191.800359" y="180.216951" style="fill: #2b2d42"/>
    </g>
    <g clip-path="url(#p057172ce68)">
     <use xlink:href="#C0_0_fefefbef72" x="236.508548" y="102.780095" style="fill: #2b2d42"/>
    </g>
    <g clip-path="url(#p057172ce68)">
     <use xlink:href="#C0_0_fefefbef72" x="191.800359" y="25.343239" style="fill: #2b2d42"/>
    </g>
    <g clip-path="url(#p057172ce68)">
     <use xlink:href="#C0_0_fefefbef72" x="186.252351" y="161.81629" style="fill: #2b2d42"/>
    </g>
    <g clip-path="url(#p057172ce68)">
     <use xlink:href="#C0_0_fefefbef72" x="216.05781" y="189.826383" style="fill: #2b2d42"/>
    </g>
    <g clip-path="url(#p057172ce68)">
     <use xlink:href="#C0_0_fefefbef72" x="81.933241" y="112.389527" style="fill: #2b2d42"/>
    </g>
    <g clip-path="url(#p057172ce68)">
     <use xlink:href="#C0_0_fefefbef72" x="171.349621" y="112.389527" style="fill: #2b2d42"/>
    </g>
    <g clip-path="url(#p057172ce68)">
     <use xlink:href="#C0_0_fefefbef72" x="201.15508" y="140.39962" style="fill: #2b2d42"/>
    </g>
    <g clip-path="url(#p057172ce68)">
     <use xlink:href="#C0_0_fefefbef72" x="156.446891" y="62.962763" style="fill: #2b2d42"/>
    </g>
    <g clip-path="url(#p057172ce68)">
     <use xlink:href="#C0_0_fefefbef72" x="96.835971" y="90.972856" style="fill: #2b2d42"/>
    </g>
    <g clip-path="url(#p057172ce68)">
     <use xlink:href="#C0_0_fefefbef72" x="141.544161" y="13.536" style="fill: #2b2d42"/>
    </g>
    <g clip-path="url(#p057172ce68)">
     <use xlink:href="#C0_0_fefefbef72" x="171.349621" y="41.546093" style="fill: #2b2d42"/>
    </g>
    <g clip-path="url(#p057172ce68)">
     <use xlink:href="#C0_0_fefefbef72" x="121.093423" y="255.456" style="fill: #2b2d42"/>
    </g>
    <g clip-path="url(#p057172ce68)">
     <use xlink:href="#C0_0_fefefbef72" x="76.385233" y="178.019144" style="fill: #2b2d42"/>
    </g>
    <g clip-path="url(#p057172ce68)">
     <use xlink:href="#C0_0_fefefbef72" x="165.801613" y="178.019144" style="fill: #2b2d42"/>
    </g>
    <g clip-path="url(#p057172ce68)">
     <use xlink:href="#C0_0_fefefbef72" x="61.482503" y="128.59238" style="fill: #2b2d42"/>
    </g>
    <g clip-path="url(#p057172ce68)">
     <use xlink:href="#C0_0_fefefbef72" x="150.898883" y="128.59238" style="fill: #2b2d42"/>
    </g>
    <g clip-path="url(#p057172ce68)">
     <use xlink:href="#C0_0_fefefbef72" x="106.190693" y="51.155524" style="fill: #2b2d42"/>
    </g>
    <g clip-path="url(#p057172ce68)">
     <use xlink:href="#C0_0_fefefbef72" x="195.607072" y="51.155524" style="fill: #2b2d42"/>
    </g>
    <g clip-path="url(#p057172ce68)">
     <use xlink:href="#C0_0_fefefbef72" x="85.739955" y="138.201812" style="fill: #2b2d42"/>
    </g>
   </g>
  </g>
 </g>
 <defs>
  <clipPath id="p057172ce68">
   <rect x="1.44" y="1.44" width="261.874672" height="266.112"/>
  </clipPath>
 </defs>
</svg>
