<?xml version="1.0" encoding="utf-8" standalone="no"?>
<!DOCTYPE svg PUBLIC "-//W3C//DTD SVG 1.1//EN"
  "http://www.w3.org/Graphics/SVG/1.1/DTD/svg11.dtd">
<svg xmlns:xlink="http://www.w3.org/1999/xlink" width="263.178649pt" height="314.39952pt" viewBox="0 0 263.178649 314.39952" xmlns="http://www.w3.org/2000/svg" version="1.1">
 <metadata>
  <rdf:RDF xmlns:dc="http://purl.org/dc/elements/1.1/" xmlns:cc="http://creativecommons.org/ns#" xmlns:rdf="http://www.w3.org/1999/02/22-rdf-syntax-ns#">
   <cc:Work>
    <dc:type rdf:resource="http://purl.org/dc/dcmitype/StillImage"/>
    <dc:date>2026-06-26T12:46:05.002245</dc:date>
    <dc:format>image/svg+xml</dc:format>
    <dc:creator>
     <cc:Agent>
      <dc:title>Matplotlib v3.10.9, https://matplotlib.org/</dc:title>
     </cc:Agent>
    </dc:creator>
   </cc:Work>
  </rdf:RDF>
 </metadata>
 <defs>
  <style type="text/css">*{stroke-linejoin: round; stroke-linecap: butt}</style>
 </defs>
 <g id="figure_1">
  <g id="patch_1">
   <path d="M 0 314.39952 
L 263.178649 314.39952 
L 263.178649 0 
L 0 0 
z
" style="fill: #ffffff"/>
  </g>
  <g id="axes_1">
   <g id="line2d_1">
    <path d="M 186.566679 186.280488 
L 181.100876 98.358722 
" clip-path="url(#pb1d247df4b)" style="fill: none; stroke: #4c78a8; stroke-width: 0.65; stroke-linecap: square"/>
   </g>
   <g id="line2d_2">
    <path d="M 171.884763 137.586081 
L 151.737044 223.342604 
" clip-path="url(#pb1d247df4b)" style="fill: none; stroke: #4c78a8; stroke-width: 0.65; stroke-linecap: square"/>
   </g>
   <g id="line2d_3">
    <path d="M 171.884763 137.586081 
L 166.41896 49.664315 
" clip-path="url(#pb1d247df4b)" style="fill: none; stroke: #4c78a8; stroke-width: 0.65; stroke-linecap: square"/>
   </g>
   <g id="line2d_4">
    <path d="M 78.327463 272.037011 
L 151.737044 223.342604 
" clip-path="url(#pb1d247df4b)" style="fill: none; stroke: #4c78a8; stroke-width: 0.65; stroke-linecap: square"/>
   </g>
   <g id="line2d_5">
    <path d="M 151.737044 223.342604 
L 225.146625 174.648197 
" clip-path="url(#pb1d247df4b)" style="fill: none; stroke: #4c78a8; stroke-width: 0.65; stroke-linecap: square"/>
   </g>
   <g id="line2d_6">
    <path d="M 151.737044 223.342604 
L 146.271241 135.420838 
" clip-path="url(#pb1d247df4b)" style="fill: none; stroke: #4c78a8; stroke-width: 0.65; stroke-linecap: square"/>
   </g>
   <g id="line2d_7">
    <path d="M 137.055128 174.648197 
L 225.146625 174.648197 
" clip-path="url(#pb1d247df4b)" style="fill: none; stroke: #4c78a8; stroke-width: 0.65; stroke-linecap: square"/>
   </g>
   <g id="line2d_8">
    <path d="M 137.055128 174.648197 
L 181.100876 98.358722 
" clip-path="url(#pb1d247df4b)" style="fill: none; stroke: #4c78a8; stroke-width: 0.65; stroke-linecap: square"/>
   </g>
   <g id="line2d_9">
    <path d="M 137.055128 174.648197 
L 210.464708 125.95379 
" clip-path="url(#pb1d247df4b)" style="fill: none; stroke: #4c78a8; stroke-width: 0.65; stroke-linecap: square"/>
   </g>
   <g id="line2d_10">
    <path d="M 137.055128 174.648197 
L 58.179743 135.420838 
" clip-path="url(#pb1d247df4b)" style="fill: none; stroke: #4c78a8; stroke-width: 0.65; stroke-linecap: square"/>
   </g>
   <g id="line2d_11">
    <path d="M 137.055128 174.648197 
L 131.589324 86.726431 
" clip-path="url(#pb1d247df4b)" style="fill: none; stroke: #4c78a8; stroke-width: 0.65; stroke-linecap: square"/>
   </g>
   <g id="line2d_12">
    <path d="M 137.055128 174.648197 
L 72.86166 114.321498 
" clip-path="url(#pb1d247df4b)" style="fill: none; stroke: #4c78a8; stroke-width: 0.65; stroke-linecap: square"/>
   </g>
   <g id="line2d_13">
    <path d="M 137.055128 174.648197 
L 52.71394 200.078022 
" clip-path="url(#pb1d247df4b)" style="fill: none; stroke: #4c78a8; stroke-width: 0.65; stroke-linecap: square"/>
   </g>
   <g id="line2d_14">
    <path d="M 225.146625 174.648197 
L 181.100876 98.358722 
" clip-path="url(#pb1d247df4b)" style="fill: none; stroke: #4c78a8; stroke-width: 0.65; stroke-linecap: square"/>
   </g>
   <g id="line2d_15">
    <path d="M 225.146625 174.648197 
L 146.271241 135.420838 
" clip-path="url(#pb1d247df4b)" style="fill: none; stroke: #4c78a8; stroke-width: 0.65; stroke-linecap: square"/>
   </g>
   <g id="line2d_16">
    <path d="M 225.146625 174.648197 
L 140.805437 200.078022 
" clip-path="url(#pb1d247df4b)" style="fill: none; stroke: #4c78a8; stroke-width: 0.65; stroke-linecap: square"/>
   </g>
   <g id="line2d_17">
    <path d="M 181.100876 98.358722 
L 160.953157 184.115246 
" clip-path="url(#pb1d247df4b)" style="fill: none; stroke: #4c78a8; stroke-width: 0.65; stroke-linecap: square"/>
   </g>
   <g id="line2d_18">
    <path d="M 181.100876 98.358722 
L 116.907408 38.032024 
" clip-path="url(#pb1d247df4b)" style="fill: none; stroke: #4c78a8; stroke-width: 0.65; stroke-linecap: square"/>
   </g>
   <g id="line2d_19">
    <path d="M 166.41896 202.243264 
L 210.464708 125.95379 
" clip-path="url(#pb1d247df4b)" style="fill: none; stroke: #4c78a8; stroke-width: 0.65; stroke-linecap: square"/>
   </g>
   <g id="line2d_20">
    <path d="M 210.464708 125.95379 
L 166.41896 49.664315 
" clip-path="url(#pb1d247df4b)" style="fill: none; stroke: #4c78a8; stroke-width: 0.65; stroke-linecap: square"/>
   </g>
   <g id="line2d_21">
    <path d="M 210.464708 125.95379 
L 190.316989 211.710313 
" clip-path="url(#pb1d247df4b)" style="fill: none; stroke: #4c78a8; stroke-width: 0.65; stroke-linecap: square"/>
   </g>
   <g id="line2d_22">
    <path d="M 210.464708 125.95379 
L 131.589324 86.726431 
" clip-path="url(#pb1d247df4b)" style="fill: none; stroke: #4c78a8; stroke-width: 0.65; stroke-linecap: square"/>
   </g>
   <g id="line2d_23">
    <path d="M 210.464708 125.95379 
L 146.271241 65.627091 
" clip-path="url(#pb1d247df4b)" style="fill: none; stroke: #4c78a8; stroke-width: 0.65; stroke-linecap: square"/>
   </g>
   <g id="line2d_24">
    <path d="M 210.464708 125.95379 
L 126.123521 151.383614 
" clip-path="url(#pb1d247df4b)" style="fill: none; stroke: #4c78a8; stroke-width: 0.65; stroke-linecap: square"/>
   </g>
   <g id="line2d_25">
    <path d="M 166.41896 49.664315 
L 146.271241 135.420838 
" clip-path="url(#pb1d247df4b)" style="fill: none; stroke: #4c78a8; stroke-width: 0.65; stroke-linecap: square"/>
   </g>
   <g id="line2d_26">
    <path d="M 166.41896 49.664315 
L 82.077773 75.09414 
" clip-path="url(#pb1d247df4b)" style="fill: none; stroke: #4c78a8; stroke-width: 0.65; stroke-linecap: square"/>
   </g>
   <g id="line2d_27">
    <path d="M 190.316989 211.710313 
L 146.271241 135.420838 
" clip-path="url(#pb1d247df4b)" style="fill: none; stroke: #4c78a8; stroke-width: 0.65; stroke-linecap: square"/>
   </g>
   <g id="line2d_28">
    <path d="M 190.316989 211.710313 
L 126.123521 151.383614 
" clip-path="url(#pb1d247df4b)" style="fill: none; stroke: #4c78a8; stroke-width: 0.65; stroke-linecap: square"/>
   </g>
   <g id="line2d_29">
    <path d="M 58.179743 135.420838 
L 146.271241 135.420838 
" clip-path="url(#pb1d247df4b)" style="fill: none; stroke: #4c78a8; stroke-width: 0.65; stroke-linecap: square"/>
   </g>
   <g id="line2d_30">
    <path d="M 58.179743 135.420838 
L 131.589324 86.726431 
" clip-path="url(#pb1d247df4b)" style="fill: none; stroke: #4c78a8; stroke-width: 0.65; stroke-linecap: square"/>
   </g>
   <g id="line2d_31">
    <path d="M 146.271241 135.420838 
L 82.077773 75.09414 
" clip-path="url(#pb1d247df4b)" style="fill: none; stroke: #4c78a8; stroke-width: 0.65; stroke-linecap: square"/>
   </g>
   <g id="line2d_32">
    <path d="M 146.271241 135.420838 
L 61.930053 160.850663 
" clip-path="url(#pb1d247df4b)" style="fill: none; stroke: #4c78a8; stroke-width: 0.65; stroke-linecap: square"/>
   </g>
   <g id="line2d_33">
    <path d="M 175.635073 163.015906 
L 131.589324 86.726431 
" clip-path="url(#pb1d247df4b)" style="fill: none; stroke: #4c78a8; stroke-width: 0.65; stroke-linecap: square"/>
   </g>
   <g id="line2d_34">
    <path d="M 175.635073 163.015906 
L 170.16927 75.09414 
" clip-path="url(#pb1d247df4b)" style="fill: none; stroke: #4c78a8; stroke-width: 0.65; stroke-linecap: square"/>
   </g>
   <g id="line2d_35">
    <path d="M 72.86166 114.321498 
L 116.907408 38.032024 
" clip-path="url(#pb1d247df4b)" style="fill: none; stroke: #4c78a8; stroke-width: 0.65; stroke-linecap: square"/>
   </g>
   <g id="line2d_36">
    <path d="M 72.86166 114.321498 
L 146.271241 65.627091 
" clip-path="url(#pb1d247df4b)" style="fill: none; stroke: #4c78a8; stroke-width: 0.65; stroke-linecap: square"/>
   </g>
   <g id="line2d_37">
    <path d="M 72.86166 114.321498 
L 52.71394 200.078022 
" clip-path="url(#pb1d247df4b)" style="fill: none; stroke: #4c78a8; stroke-width: 0.65; stroke-linecap: square"/>
   </g>
   <g id="line2d_38">
    <path d="M 146.271241 65.627091 
L 126.123521 151.383614 
" clip-path="url(#pb1d247df4b)" style="fill: none; stroke: #4c78a8; stroke-width: 0.65; stroke-linecap: square"/>
   </g>
   <g id="line2d_39">
    <path d="M 96.759689 276.367496 
L 52.71394 200.078022 
" clip-path="url(#pb1d247df4b)" style="fill: none; stroke: #4c78a8; stroke-width: 0.65; stroke-linecap: square"/>
   </g>
   <g id="line2d_40">
    <path d="M 96.759689 276.367496 
L 140.805437 200.078022 
" clip-path="url(#pb1d247df4b)" style="fill: none; stroke: #4c78a8; stroke-width: 0.65; stroke-linecap: square"/>
   </g>
   <g id="line2d_41">
    <path d="M 52.71394 200.078022 
L 140.805437 200.078022 
" clip-path="url(#pb1d247df4b)" style="fill: none; stroke: #4c78a8; stroke-width: 0.65; stroke-linecap: square"/>
   </g>
   <g id="line2d_42">
    <path d="M 52.71394 200.078022 
L 126.123521 151.383614 
" clip-path="url(#pb1d247df4b)" style="fill: none; stroke: #4c78a8; stroke-width: 0.65; stroke-linecap: square"/>
   </g>
   <g id="line2d_43">
    <path d="M 140.805437 200.078022 
L 61.930053 160.850663 
" clip-path="url(#pb1d247df4b)" style="fill: none; stroke: #4c78a8; stroke-width: 0.65; stroke-linecap: square"/>
   </g>
   <g id="line2d_44">
    <path d="M 38.032024 151.383614 
L 126.123521 151.383614 
" clip-path="url(#pb1d247df4b)" style="fill: none; stroke: #4c78a8; stroke-width: 0.65; stroke-linecap: square"/>
   </g>
   <g id="line2d_45">
    <path d="M 38.032024 151.383614 
L 82.077773 75.09414 
" clip-path="url(#pb1d247df4b)" style="fill: none; stroke: #4c78a8; stroke-width: 0.65; stroke-linecap: square"/>
   </g>
   <g id="line2d_46">
    <path d="M 126.123521 151.383614 
L 82.077773 75.09414 
" clip-path="url(#pb1d247df4b)" style="fill: none; stroke: #4c78a8; stroke-width: 0.65; stroke-linecap: square"/>
   </g>
   <g id="line2d_47">
    <path d="M 126.123521 151.383614 
L 170.16927 75.09414 
" clip-path="url(#pb1d247df4b)" style="fill: none; stroke: #4c78a8; stroke-width: 0.65; stroke-linecap: square"/>
   </g>
   <g id="line2d_48">
    <path d="M 82.077773 75.09414 
L 170.16927 75.09414 
" clip-path="url(#pb1d247df4b)" style="fill: none; stroke: #4c78a8; stroke-width: 0.65; stroke-linecap: square"/>
   </g>
   <g id="line2d_49">
    <path d="M 82.077773 75.09414 
L 61.930053 160.850663 
" clip-path="url(#pb1d247df4b)" style="fill: none; stroke: #4c78a8; stroke-width: 0.65; stroke-linecap: square"/>
   </g>
   <g id="patch_2">
    <path d="M 195.816286 186.280488 
C 195.816286 185.065841 195.577027 183.863004 195.112202 182.740817 
C 194.647377 181.618629 193.966025 180.598913 193.107139 179.740028 
C 192.248254 178.881143 191.228538 178.199791 190.106351 177.734965 
C 188.984163 177.27014 187.781327 177.030881 186.566679 177.030881 
C 185.352032 177.030881 184.149196 177.27014 183.027008 177.734965 
C 181.90482 178.199791 180.885105 178.881143 180.026219 179.740028 
C 179.167334 180.598913 178.485982 181.618629 178.021157 182.740817 
C 177.556331 183.863004 177.317072 185.065841 177.317072 186.280488 
C 177.317072 187.495135 177.556331 188.697972 178.021157 189.820159 
C 178.485982 190.942347 179.167334 191.962063 180.026219 192.820948 
C 180.885105 193.679833 181.90482 194.361185 183.027008 194.826011 
C 184.149196 195.290836 185.352032 195.530095 186.566679 195.530095 
C 187.781327 195.530095 188.984163 195.290836 190.106351 194.826011 
C 191.228538 194.361185 192.248254 193.679833 193.107139 192.820948 
C 193.966025 191.962063 194.647377 190.942347 195.112202 189.820159 
C 195.577027 188.697972 195.816286 187.495135 195.816286 186.280488 
M 186.566679 186.280488 
z
" clip-path="url(#pb1d247df4b)" style="fill: #009e73"/>
   </g>
   <g id="patch_3">
    <path d="M 181.13437 137.586081 
C 181.13437 136.371434 180.895111 135.168597 180.430286 134.046409 
C 179.96546 132.924222 179.284108 131.904506 178.425223 131.045621 
C 177.566338 130.186735 176.546622 129.505383 175.424435 129.040558 
C 174.302247 128.575733 173.09941 128.336474 171.884763 128.336474 
C 170.670116 128.336474 169.467279 128.575733 168.345092 129.040558 
C 167.222904 129.505383 166.203188 130.186735 165.344303 131.045621 
C 164.485418 131.904506 163.804066 132.924222 163.33924 134.046409 
C 162.874415 135.168597 162.635156 136.371434 162.635156 137.586081 
C 162.635156 138.800728 162.874415 140.003564 163.33924 141.125752 
C 163.804066 142.24794 164.485418 143.267655 165.344303 144.126541 
C 166.203188 144.985426 167.222904 145.666778 168.345092 146.131604 
C 169.467279 146.596429 170.670116 146.835688 171.884763 146.835688 
C 173.09941 146.835688 174.302247 146.596429 175.424435 146.131604 
C 176.546622 145.666778 177.566338 144.985426 178.425223 144.126541 
C 179.284108 143.267655 179.96546 142.24794 180.430286 141.125752 
C 180.895111 140.003564 181.13437 138.800728 181.13437 137.586081 
M 171.884763 137.586081 
z
" clip-path="url(#pb1d247df4b)" style="fill: #cc79a7"/>
   </g>
   <g id="patch_4">
    <path d="M 87.57707 272.037011 
C 87.57707 270.822364 87.337811 269.619528 86.872986 268.49734 
C 86.40816 267.375152 85.726808 266.355437 84.867923 265.496551 
C 84.009037 264.637666 82.989322 263.956314 81.867134 263.491488 
C 80.744946 263.026663 79.54211 262.787404 78.327463 262.787404 
C 77.112815 262.787404 75.909979 263.026663 74.787791 263.491488 
C 73.665604 263.956314 72.645888 264.637666 71.787003 265.496551 
C 70.928117 266.355437 70.246765 267.375152 69.78194 268.49734 
C 69.317115 269.619528 69.077856 270.822364 69.077856 272.037011 
C 69.077856 273.251659 69.317115 274.454495 69.78194 275.576683 
C 70.246765 276.69887 70.928117 277.718586 71.787003 278.577471 
C 72.645888 279.436357 73.665604 280.117709 74.787791 280.582534 
C 75.909979 281.047359 77.112815 281.286618 78.327463 281.286618 
C 79.54211 281.286618 80.744946 281.047359 81.867134 280.582534 
C 82.989322 280.117709 84.009037 279.436357 84.867923 278.577471 
C 85.726808 277.718586 86.40816 276.69887 86.872986 275.576683 
C 87.337811 274.454495 87.57707 273.251659 87.57707 272.037011 
M 78.327463 272.037011 
z
" clip-path="url(#pb1d247df4b)" style="fill: #cc79a7"/>
   </g>
   <g id="patch_5">
    <path d="M 160.986651 223.342604 
C 160.986651 222.127957 160.747392 220.92512 160.282566 219.802933 
C 159.817741 218.680745 159.136389 217.661029 158.277504 216.802144 
C 157.418618 215.943259 156.398903 215.261907 155.276715 214.797081 
C 154.154527 214.332256 152.951691 214.092997 151.737044 214.092997 
C 150.522396 214.092997 149.31956 214.332256 148.197372 214.797081 
C 147.075185 215.261907 146.055469 215.943259 145.196584 216.802144 
C 144.337698 217.661029 143.656346 218.680745 143.191521 219.802933 
C 142.726696 220.92512 142.487437 222.127957 142.487437 223.342604 
C 142.487437 224.557251 142.726696 225.760088 143.191521 226.882275 
C 143.656346 228.004463 144.337698 229.024179 145.196584 229.883064 
C 146.055469 230.741949 147.075185 231.423301 148.197372 231.888127 
C 149.31956 232.352952 150.522396 232.592211 151.737044 232.592211 
C 152.951691 232.592211 154.154527 232.352952 155.276715 231.888127 
C 156.398903 231.423301 157.418618 230.741949 158.277504 229.883064 
C 159.136389 229.024179 159.817741 228.004463 160.282566 226.882275 
C 160.747392 225.760088 160.986651 224.557251 160.986651 223.342604 
M 151.737044 223.342604 
z
" clip-path="url(#pb1d247df4b)" style="fill: #e69f00"/>
   </g>
   <g id="patch_6">
    <path d="M 146.304735 174.648197 
C 146.304735 173.43355 146.065476 172.230713 145.60065 171.108525 
C 145.135825 169.986338 144.454473 168.966622 143.595588 168.107737 
C 142.736702 167.248852 141.716987 166.567499 140.594799 166.102674 
C 139.472611 165.637849 138.269775 165.39859 137.055128 165.39859 
C 135.84048 165.39859 134.637644 165.637849 133.515456 166.102674 
C 132.393268 166.567499 131.373553 167.248852 130.514668 168.107737 
C 129.655782 168.966622 128.97443 169.986338 128.509605 171.108525 
C 128.044779 172.230713 127.80552 173.43355 127.80552 174.648197 
C 127.80552 175.862844 128.044779 177.06568 128.509605 178.187868 
C 128.97443 179.310056 129.655782 180.329771 130.514668 181.188657 
C 131.373553 182.047542 132.393268 182.728894 133.515456 183.19372 
C 134.637644 183.658545 135.84048 183.897804 137.055128 183.897804 
C 138.269775 183.897804 139.472611 183.658545 140.594799 183.19372 
C 141.716987 182.728894 142.736702 182.047542 143.595588 181.188657 
C 144.454473 180.329771 145.135825 179.310056 145.60065 178.187868 
C 146.065476 177.06568 146.304735 175.862844 146.304735 174.648197 
M 137.055128 174.648197 
z
" clip-path="url(#pb1d247df4b)" style="fill: #0072b2"/>
   </g>
   <g id="patch_7">
    <path d="M 234.396232 174.648197 
C 234.396232 173.43355 234.156973 172.230713 233.692147 171.108525 
C 233.227322 169.986338 232.54597 168.966622 231.687085 168.107737 
C 230.828199 167.248852 229.808484 166.567499 228.686296 166.102674 
C 227.564108 165.637849 226.361272 165.39859 225.146625 165.39859 
C 223.931977 165.39859 222.729141 165.637849 221.606953 166.102674 
C 220.484765 166.567499 219.46505 167.248852 218.606165 168.107737 
C 217.747279 168.966622 217.065927 169.986338 216.601102 171.108525 
C 216.136277 172.230713 215.897017 173.43355 215.897017 174.648197 
C 215.897017 175.862844 216.136277 177.06568 216.601102 178.187868 
C 217.065927 179.310056 217.747279 180.329771 218.606165 181.188657 
C 219.46505 182.047542 220.484765 182.728894 221.606953 183.19372 
C 222.729141 183.658545 223.931977 183.897804 225.146625 183.897804 
C 226.361272 183.897804 227.564108 183.658545 228.686296 183.19372 
C 229.808484 182.728894 230.828199 182.047542 231.687085 181.188657 
C 232.54597 180.329771 233.227322 179.310056 233.692147 178.187868 
C 234.156973 177.06568 234.396232 175.862844 234.396232 174.648197 
M 225.146625 174.648197 
z
" clip-path="url(#pb1d247df4b)" style="fill: #cc79a7"/>
   </g>
   <g id="patch_8">
    <path d="M 190.350483 98.358722 
C 190.350483 97.144075 190.111224 95.941239 189.646399 94.819051 
C 189.181573 93.696863 188.500221 92.677148 187.641336 91.818262 
C 186.782451 90.959377 185.762735 90.278025 184.640548 89.8132 
C 183.51836 89.348374 182.315523 89.109115 181.100876 89.109115 
C 179.886229 89.109115 178.683392 89.348374 177.561205 89.8132 
C 176.439017 90.278025 175.419301 90.959377 174.560416 91.818262 
C 173.701531 92.677148 173.020179 93.696863 172.555353 94.819051 
C 172.090528 95.941239 171.851269 97.144075 171.851269 98.358722 
C 171.851269 99.57337 172.090528 100.776206 172.555353 101.898394 
C 173.020179 103.020582 173.701531 104.040297 174.560416 104.899182 
C 175.419301 105.758068 176.439017 106.43942 177.561205 106.904245 
C 178.683392 107.369071 179.886229 107.60833 181.100876 107.60833 
C 182.315523 107.60833 183.51836 107.369071 184.640548 106.904245 
C 185.762735 106.43942 186.782451 105.758068 187.641336 104.899182 
C 188.500221 104.040297 189.181573 103.020582 189.646399 101.898394 
C 190.111224 100.776206 190.350483 99.57337 190.350483 98.358722 
M 181.100876 98.358722 
z
" clip-path="url(#pb1d247df4b)" style="fill: #e69f00"/>
   </g>
   <g id="patch_9">
    <path d="M 175.668567 202.243264 
C 175.668567 201.028617 175.429308 199.82578 174.964483 198.703593 
C 174.499657 197.581405 173.818305 196.561689 172.95942 195.702804 
C 172.100535 194.843919 171.080819 194.162567 169.958631 193.697741 
C 168.836444 193.232916 167.633607 192.993657 166.41896 192.993657 
C 165.204313 192.993657 164.001476 193.232916 162.879288 193.697741 
C 161.757101 194.162567 160.737385 194.843919 159.8785 195.702804 
C 159.019615 196.561689 158.338263 197.581405 157.873437 198.703593 
C 157.408612 199.82578 157.169353 201.028617 157.169353 202.243264 
C 157.169353 203.457911 157.408612 204.660748 157.873437 205.782935 
C 158.338263 206.905123 159.019615 207.924839 159.8785 208.783724 
C 160.737385 209.642609 161.757101 210.323961 162.879288 210.788787 
C 164.001476 211.253612 165.204313 211.492871 166.41896 211.492871 
C 167.633607 211.492871 168.836444 211.253612 169.958631 210.788787 
C 171.080819 210.323961 172.100535 209.642609 172.95942 208.783724 
C 173.818305 207.924839 174.499657 206.905123 174.964483 205.782935 
C 175.429308 204.660748 175.668567 203.457911 175.668567 202.243264 
M 166.41896 202.243264 
z
" clip-path="url(#pb1d247df4b)" style="fill: #cc79a7"/>
   </g>
   <g id="patch_10">
    <path d="M 219.714316 125.95379 
C 219.714316 124.739142 219.475057 123.536306 219.010231 122.414118 
C 218.545406 121.29193 217.864054 120.272215 217.005168 119.41333 
C 216.146283 118.554444 215.126568 117.873092 214.00438 117.408267 
C 212.882192 116.943441 211.679356 116.704182 210.464708 116.704182 
C 209.250061 116.704182 208.047225 116.943441 206.925037 117.408267 
C 205.802849 117.873092 204.783134 118.554444 203.924249 119.41333 
C 203.065363 120.272215 202.384011 121.29193 201.919186 122.414118 
C 201.45436 123.536306 201.215101 124.739142 201.215101 125.95379 
C 201.215101 127.168437 201.45436 128.371273 201.919186 129.493461 
C 202.384011 130.615649 203.065363 131.635364 203.924249 132.49425 
C 204.783134 133.353135 205.802849 134.034487 206.925037 134.499312 
C 208.047225 134.964138 209.250061 135.203397 210.464708 135.203397 
C 211.679356 135.203397 212.882192 134.964138 214.00438 134.499312 
C 215.126568 134.034487 216.146283 133.353135 217.005168 132.49425 
C 217.864054 131.635364 218.545406 130.615649 219.010231 129.493461 
C 219.475057 128.371273 219.714316 127.168437 219.714316 125.95379 
M 210.464708 125.95379 
z
" clip-path="url(#pb1d247df4b)" style="fill: #009e73"/>
   </g>
   <g id="patch_11">
    <path d="M 175.668567 49.664315 
C 175.668567 48.449668 175.429308 47.246832 174.964483 46.124644 
C 174.499657 45.002456 173.818305 43.982741 172.95942 43.123855 
C 172.100535 42.26497 171.080819 41.583618 169.958631 41.118792 
C 168.836444 40.653967 167.633607 40.414708 166.41896 40.414708 
C 165.204313 40.414708 164.001476 40.653967 162.879288 41.118792 
C 161.757101 41.583618 160.737385 42.26497 159.8785 43.123855 
C 159.019615 43.982741 158.338263 45.002456 157.873437 46.124644 
C 157.408612 47.246832 157.169353 48.449668 157.169353 49.664315 
C 157.169353 50.878962 157.408612 52.081799 157.873437 53.203987 
C 158.338263 54.326174 159.019615 55.34589 159.8785 56.204775 
C 160.737385 57.063661 161.757101 57.745013 162.879288 58.209838 
C 164.001476 58.674663 165.204313 58.913922 166.41896 58.913922 
C 167.633607 58.913922 168.836444 58.674663 169.958631 58.209838 
C 171.080819 57.745013 172.100535 57.063661 172.95942 56.204775 
C 173.818305 55.34589 174.499657 54.326174 174.964483 53.203987 
C 175.429308 52.081799 175.668567 50.878962 175.668567 49.664315 
M 166.41896 49.664315 
z
" clip-path="url(#pb1d247df4b)" style="fill: #0072b2"/>
   </g>
   <g id="patch_12">
    <path d="M 170.202764 184.115246 
C 170.202764 182.900598 169.963505 181.697762 169.49868 180.575574 
C 169.033854 179.453386 168.352502 178.433671 167.493617 177.574786 
C 166.634731 176.7159 165.615016 176.034548 164.492828 175.569723 
C 163.37064 175.104897 162.167804 174.865638 160.953157 174.865638 
C 159.738509 174.865638 158.535673 175.104897 157.413485 175.569723 
C 156.291298 176.034548 155.271582 176.7159 154.412697 177.574786 
C 153.553811 178.433671 152.872459 179.453386 152.407634 180.575574 
C 151.942809 181.697762 151.70355 182.900598 151.70355 184.115246 
C 151.70355 185.329893 151.942809 186.532729 152.407634 187.654917 
C 152.872459 188.777105 153.553811 189.79682 154.412697 190.655706 
C 155.271582 191.514591 156.291298 192.195943 157.413485 192.660768 
C 158.535673 193.125594 159.738509 193.364853 160.953157 193.364853 
C 162.167804 193.364853 163.37064 193.125594 164.492828 192.660768 
C 165.615016 192.195943 166.634731 191.514591 167.493617 190.655706 
C 168.352502 189.79682 169.033854 188.777105 169.49868 187.654917 
C 169.963505 186.532729 170.202764 185.329893 170.202764 184.115246 
M 160.953157 184.115246 
z
" clip-path="url(#pb1d247df4b)" style="fill: #cc79a7"/>
   </g>
   <g id="patch_13">
    <path d="M 199.566596 211.710313 
C 199.566596 210.495666 199.327337 209.292829 198.862512 208.170641 
C 198.397686 207.048454 197.716334 206.028738 196.857449 205.169853 
C 195.998564 204.310968 194.978848 203.629615 193.856661 203.16479 
C 192.734473 202.699965 191.531636 202.460706 190.316989 202.460706 
C 189.102342 202.460706 187.899505 202.699965 186.777318 203.16479 
C 185.65513 203.629615 184.635414 204.310968 183.776529 205.169853 
C 182.917644 206.028738 182.236292 207.048454 181.771466 208.170641 
C 181.306641 209.292829 181.067382 210.495666 181.067382 211.710313 
C 181.067382 212.92496 181.306641 214.127796 181.771466 215.249984 
C 182.236292 216.372172 182.917644 217.391887 183.776529 218.250773 
C 184.635414 219.109658 185.65513 219.79101 186.777318 220.255836 
C 187.899505 220.720661 189.102342 220.95992 190.316989 220.95992 
C 191.531636 220.95992 192.734473 220.720661 193.856661 220.255836 
C 194.978848 219.79101 195.998564 219.109658 196.857449 218.250773 
C 197.716334 217.391887 198.397686 216.372172 198.862512 215.249984 
C 199.327337 214.127796 199.566596 212.92496 199.566596 211.710313 
M 190.316989 211.710313 
z
" clip-path="url(#pb1d247df4b)" style="fill: #0072b2"/>
   </g>
   <g id="patch_14">
    <path d="M 67.429351 135.420838 
C 67.429351 134.206191 67.190092 133.003355 66.725266 131.881167 
C 66.260441 130.758979 65.579089 129.739264 64.720203 128.880378 
C 63.861318 128.021493 62.841603 127.340141 61.719415 126.875316 
C 60.597227 126.41049 59.394391 126.171231 58.179743 126.171231 
C 56.965096 126.171231 55.76226 126.41049 54.640072 126.875316 
C 53.517884 127.340141 52.498169 128.021493 51.639283 128.880378 
C 50.780398 129.739264 50.099046 130.758979 49.634221 131.881167 
C 49.169395 133.003355 48.930136 134.206191 48.930136 135.420838 
C 48.930136 136.635486 49.169395 137.838322 49.634221 138.96051 
C 50.099046 140.082698 50.780398 141.102413 51.639283 141.961298 
C 52.498169 142.820184 53.517884 143.501536 54.640072 143.966361 
C 55.76226 144.431187 56.965096 144.670446 58.179743 144.670446 
C 59.394391 144.670446 60.597227 144.431187 61.719415 143.966361 
C 62.841603 143.501536 63.861318 142.820184 64.720203 141.961298 
C 65.579089 141.102413 66.260441 140.082698 66.725266 138.96051 
C 67.190092 137.838322 67.429351 136.635486 67.429351 135.420838 
M 58.179743 135.420838 
z
" clip-path="url(#pb1d247df4b)" style="fill: #e69f00"/>
   </g>
   <g id="patch_15">
    <path d="M 155.520848 135.420838 
C 155.520848 134.206191 155.281589 133.003355 154.816763 131.881167 
C 154.351938 130.758979 153.670586 129.739264 152.811701 128.880378 
C 151.952815 128.021493 150.9331 127.340141 149.810912 126.875316 
C 148.688724 126.41049 147.485888 126.171231 146.271241 126.171231 
C 145.056593 126.171231 143.853757 126.41049 142.731569 126.875316 
C 141.609381 127.340141 140.589666 128.021493 139.730781 128.880378 
C 138.871895 129.739264 138.190543 130.758979 137.725718 131.881167 
C 137.260892 133.003355 137.021633 134.206191 137.021633 135.420838 
C 137.021633 136.635486 137.260892 137.838322 137.725718 138.96051 
C 138.190543 140.082698 138.871895 141.102413 139.730781 141.961298 
C 140.589666 142.820184 141.609381 143.501536 142.731569 143.966361 
C 143.853757 144.431187 145.056593 144.670446 146.271241 144.670446 
C 147.485888 144.670446 148.688724 144.431187 149.810912 143.966361 
C 150.9331 143.501536 151.952815 142.820184 152.811701 141.961298 
C 153.670586 141.102413 154.351938 140.082698 154.816763 138.96051 
C 155.281589 137.838322 155.520848 136.635486 155.520848 135.420838 
M 146.271241 135.420838 
z
" clip-path="url(#pb1d247df4b)" style="fill: #009e73"/>
   </g>
   <g id="patch_16">
    <path d="M 184.88468 163.015906 
C 184.88468 161.801258 184.645421 160.598422 184.180596 159.476234 
C 183.71577 158.354046 183.034418 157.334331 182.175533 156.475446 
C 181.316648 155.61656 180.296932 154.935208 179.174744 154.470383 
C 178.052557 154.005557 176.84972 153.766298 175.635073 153.766298 
C 174.420426 153.766298 173.217589 154.005557 172.095401 154.470383 
C 170.973214 154.935208 169.953498 155.61656 169.094613 156.475446 
C 168.235728 157.334331 167.554376 158.354046 167.08955 159.476234 
C 166.624725 160.598422 166.385466 161.801258 166.385466 163.015906 
C 166.385466 164.230553 166.624725 165.433389 167.08955 166.555577 
C 167.554376 167.677765 168.235728 168.69748 169.094613 169.556366 
C 169.953498 170.415251 170.973214 171.096603 172.095401 171.561428 
C 173.217589 172.026254 174.420426 172.265513 175.635073 172.265513 
C 176.84972 172.265513 178.052557 172.026254 179.174744 171.561428 
C 180.296932 171.096603 181.316648 170.415251 182.175533 169.556366 
C 183.034418 168.69748 183.71577 167.677765 184.180596 166.555577 
C 184.645421 165.433389 184.88468 164.230553 184.88468 163.015906 
M 175.635073 163.015906 
z
" clip-path="url(#pb1d247df4b)" style="fill: #e69f00"/>
   </g>
   <g id="patch_17">
    <path d="M 140.838932 86.726431 
C 140.838932 85.511784 140.599673 84.308948 140.134847 83.18676 
C 139.670022 82.064572 138.98867 81.044857 138.129784 80.185971 
C 137.270899 79.327086 136.251184 78.645734 135.128996 78.180908 
C 134.006808 77.716083 132.803972 77.476824 131.589324 77.476824 
C 130.374677 77.476824 129.171841 77.716083 128.049653 78.180908 
C 126.927465 78.645734 125.90775 79.327086 125.048864 80.185971 
C 124.189979 81.044857 123.508627 82.064572 123.043802 83.18676 
C 122.578976 84.308948 122.339717 85.511784 122.339717 86.726431 
C 122.339717 87.941079 122.578976 89.143915 123.043802 90.266103 
C 123.508627 91.38829 124.189979 92.408006 125.048864 93.266891 
C 125.90775 94.125777 126.927465 94.807129 128.049653 95.271954 
C 129.171841 95.736779 130.374677 95.976038 131.589324 95.976038 
C 132.803972 95.976038 134.006808 95.736779 135.128996 95.271954 
C 136.251184 94.807129 137.270899 94.125777 138.129784 93.266891 
C 138.98867 92.408006 139.670022 91.38829 140.134847 90.266103 
C 140.599673 89.143915 140.838932 87.941079 140.838932 86.726431 
M 131.589324 86.726431 
z
" clip-path="url(#pb1d247df4b)" style="fill: #cc79a7"/>
   </g>
   <g id="patch_18">
    <path d="M 82.111267 114.321498 
C 82.111267 113.106851 81.872008 111.904015 81.407182 110.781827 
C 80.942357 109.659639 80.261005 108.639924 79.40212 107.781038 
C 78.543234 106.922153 77.523519 106.240801 76.401331 105.775976 
C 75.279143 105.31115 74.076307 105.071891 72.86166 105.071891 
C 71.647012 105.071891 70.444176 105.31115 69.321988 105.775976 
C 68.1998 106.240801 67.180085 106.922153 66.3212 107.781038 
C 65.462314 108.639924 64.780962 109.659639 64.316137 110.781827 
C 63.851311 111.904015 63.612052 113.106851 63.612052 114.321498 
C 63.612052 115.536146 63.851311 116.738982 64.316137 117.86117 
C 64.780962 118.983358 65.462314 120.003073 66.3212 120.861958 
C 67.180085 121.720844 68.1998 122.402196 69.321988 122.867021 
C 70.444176 123.331847 71.647012 123.571106 72.86166 123.571106 
C 74.076307 123.571106 75.279143 123.331847 76.401331 122.867021 
C 77.523519 122.402196 78.543234 121.720844 79.40212 120.861958 
C 80.261005 120.003073 80.942357 118.983358 81.407182 117.86117 
C 81.872008 116.738982 82.111267 115.536146 82.111267 114.321498 
M 72.86166 114.321498 
z
" clip-path="url(#pb1d247df4b)" style="fill: #cc79a7"/>
   </g>
   <g id="patch_19">
    <path d="M 126.157015 38.032024 
C 126.157015 36.817377 125.917756 35.61454 125.452931 34.492353 
C 124.988106 33.370165 124.306753 32.350449 123.447868 31.491564 
C 122.588983 30.632679 121.569267 29.951327 120.44708 29.486501 
C 119.324892 29.021676 118.122055 28.782417 116.907408 28.782417 
C 115.692761 28.782417 114.489924 29.021676 113.367737 29.486501 
C 112.245549 29.951327 111.225834 30.632679 110.366948 31.491564 
C 109.508063 32.350449 108.826711 33.370165 108.361885 34.492353 
C 107.89706 35.61454 107.657801 36.817377 107.657801 38.032024 
C 107.657801 39.246671 107.89706 40.449508 108.361885 41.571695 
C 108.826711 42.693883 109.508063 43.713599 110.366948 44.572484 
C 111.225834 45.431369 112.245549 46.112721 113.367737 46.577547 
C 114.489924 47.042372 115.692761 47.281631 116.907408 47.281631 
C 118.122055 47.281631 119.324892 47.042372 120.44708 46.577547 
C 121.569267 46.112721 122.588983 45.431369 123.447868 44.572484 
C 124.306753 43.713599 124.988106 42.693883 125.452931 41.571695 
C 125.917756 40.449508 126.157015 39.246671 126.157015 38.032024 
M 116.907408 38.032024 
z
" clip-path="url(#pb1d247df4b)" style="fill: #009e73"/>
   </g>
   <g id="patch_20">
    <path d="M 155.520848 65.627091 
C 155.520848 64.412444 155.281589 63.209608 154.816763 62.08742 
C 154.351938 60.965232 153.670586 59.945517 152.811701 59.086631 
C 151.952815 58.227746 150.9331 57.546394 149.810912 57.081568 
C 148.688724 56.616743 147.485888 56.377484 146.271241 56.377484 
C 145.056593 56.377484 143.853757 56.616743 142.731569 57.081568 
C 141.609381 57.546394 140.589666 58.227746 139.730781 59.086631 
C 138.871895 59.945517 138.190543 60.965232 137.725718 62.08742 
C 137.260892 63.209608 137.021633 64.412444 137.021633 65.627091 
C 137.021633 66.841738 137.260892 68.044575 137.725718 69.166763 
C 138.190543 70.28895 138.871895 71.308666 139.730781 72.167551 
C 140.589666 73.026436 141.609381 73.707789 142.731569 74.172614 
C 143.853757 74.637439 145.056593 74.876698 146.271241 74.876698 
C 147.485888 74.876698 148.688724 74.637439 149.810912 74.172614 
C 150.9331 73.707789 151.952815 73.026436 152.811701 72.167551 
C 153.670586 71.308666 154.351938 70.28895 154.816763 69.166763 
C 155.281589 68.044575 155.520848 66.841738 155.520848 65.627091 
M 146.271241 65.627091 
z
" clip-path="url(#pb1d247df4b)" style="fill: #e69f00"/>
   </g>
   <g id="patch_21">
    <path d="M 106.009296 276.367496 
C 106.009296 275.152849 105.770037 273.950012 105.305212 272.827825 
C 104.840386 271.705637 104.159034 270.685921 103.300149 269.827036 
C 102.441263 268.968151 101.421548 268.286799 100.29936 267.821973 
C 99.177172 267.357148 97.974336 267.117889 96.759689 267.117889 
C 95.545041 267.117889 94.342205 267.357148 93.220017 267.821973 
C 92.09783 268.286799 91.078114 268.968151 90.219229 269.827036 
C 89.360343 270.685921 88.678991 271.705637 88.214166 272.827825 
C 87.749341 273.950012 87.510082 275.152849 87.510082 276.367496 
C 87.510082 277.582143 87.749341 278.78498 88.214166 279.907167 
C 88.678991 281.029355 89.360343 282.049071 90.219229 282.907956 
C 91.078114 283.766841 92.09783 284.448193 93.220017 284.913019 
C 94.342205 285.377844 95.545041 285.617103 96.759689 285.617103 
C 97.974336 285.617103 99.177172 285.377844 100.29936 284.913019 
C 101.421548 284.448193 102.441263 283.766841 103.300149 282.907956 
C 104.159034 282.049071 104.840386 281.029355 105.305212 279.907167 
C 105.770037 278.78498 106.009296 277.582143 106.009296 276.367496 
M 96.759689 276.367496 
z
" clip-path="url(#pb1d247df4b)" style="fill: #cc79a7"/>
   </g>
   <g id="patch_22">
    <path d="M 61.963547 200.078022 
C 61.963547 198.863374 61.724288 197.660538 61.259463 196.53835 
C 60.794638 195.416162 60.113286 194.396447 59.2544 193.537562 
C 58.395515 192.678676 57.375799 191.997324 56.253612 191.532499 
C 55.131424 191.067673 53.928587 190.828414 52.71394 190.828414 
C 51.499293 190.828414 50.296457 191.067673 49.174269 191.532499 
C 48.052081 191.997324 47.032366 192.678676 46.17348 193.537562 
C 45.314595 194.396447 44.633243 195.416162 44.168417 196.53835 
C 43.703592 197.660538 43.464333 198.863374 43.464333 200.078022 
C 43.464333 201.292669 43.703592 202.495505 44.168417 203.617693 
C 44.633243 204.739881 45.314595 205.759596 46.17348 206.618482 
C 47.032366 207.477367 48.052081 208.158719 49.174269 208.623544 
C 50.296457 209.08837 51.499293 209.327629 52.71394 209.327629 
C 53.928587 209.327629 55.131424 209.08837 56.253612 208.623544 
C 57.375799 208.158719 58.395515 207.477367 59.2544 206.618482 
C 60.113286 205.759596 60.794638 204.739881 61.259463 203.617693 
C 61.724288 202.495505 61.963547 201.292669 61.963547 200.078022 
M 52.71394 200.078022 
z
" clip-path="url(#pb1d247df4b)" style="fill: #e69f00"/>
   </g>
   <g id="patch_23">
    <path d="M 150.055045 200.078022 
C 150.055045 198.863374 149.815786 197.660538 149.35096 196.53835 
C 148.886135 195.416162 148.204783 194.396447 147.345897 193.537562 
C 146.487012 192.678676 145.467297 191.997324 144.345109 191.532499 
C 143.222921 191.067673 142.020085 190.828414 140.805437 190.828414 
C 139.59079 190.828414 138.387954 191.067673 137.265766 191.532499 
C 136.143578 191.997324 135.123863 192.678676 134.264977 193.537562 
C 133.406092 194.396447 132.72474 195.416162 132.259915 196.53835 
C 131.795089 197.660538 131.55583 198.863374 131.55583 200.078022 
C 131.55583 201.292669 131.795089 202.495505 132.259915 203.617693 
C 132.72474 204.739881 133.406092 205.759596 134.264977 206.618482 
C 135.123863 207.477367 136.143578 208.158719 137.265766 208.623544 
C 138.387954 209.08837 139.59079 209.327629 140.805437 209.327629 
C 142.020085 209.327629 143.222921 209.08837 144.345109 208.623544 
C 145.467297 208.158719 146.487012 207.477367 147.345897 206.618482 
C 148.204783 205.759596 148.886135 204.739881 149.35096 203.617693 
C 149.815786 202.495505 150.055045 201.292669 150.055045 200.078022 
M 140.805437 200.078022 
z
" clip-path="url(#pb1d247df4b)" style="fill: #009e73"/>
   </g>
   <g id="patch_24">
    <path d="M 47.281631 151.383614 
C 47.281631 150.168967 47.042372 148.966131 46.577547 147.843943 
C 46.112721 146.721755 45.431369 145.70204 44.572484 144.843154 
C 43.713599 143.984269 42.693883 143.302917 41.571695 142.838092 
C 40.449508 142.373266 39.246671 142.134007 38.032024 142.134007 
C 36.817377 142.134007 35.61454 142.373266 34.492353 142.838092 
C 33.370165 143.302917 32.350449 143.984269 31.491564 144.843154 
C 30.632679 145.70204 29.951327 146.721755 29.486501 147.843943 
C 29.021676 148.966131 28.782417 150.168967 28.782417 151.383614 
C 28.782417 152.598262 29.021676 153.801098 29.486501 154.923286 
C 29.951327 156.045474 30.632679 157.065189 31.491564 157.924074 
C 32.350449 158.78296 33.370165 159.464312 34.492353 159.929137 
C 35.61454 160.393963 36.817377 160.633222 38.032024 160.633222 
C 39.246671 160.633222 40.449508 160.393963 41.571695 159.929137 
C 42.693883 159.464312 43.713599 158.78296 44.572484 157.924074 
C 45.431369 157.065189 46.112721 156.045474 46.577547 154.923286 
C 47.042372 153.801098 47.281631 152.598262 47.281631 151.383614 
M 38.032024 151.383614 
z
" clip-path="url(#pb1d247df4b)" style="fill: #0072b2"/>
   </g>
   <g id="patch_25">
    <path d="M 135.373128 151.383614 
C 135.373128 150.168967 135.133869 148.966131 134.669044 147.843943 
C 134.204219 146.721755 133.522866 145.70204 132.663981 144.843154 
C 131.805096 143.984269 130.78538 143.302917 129.663193 142.838092 
C 128.541005 142.373266 127.338168 142.134007 126.123521 142.134007 
C 124.908874 142.134007 123.706037 142.373266 122.58385 142.838092 
C 121.461662 143.302917 120.441947 143.984269 119.583061 144.843154 
C 118.724176 145.70204 118.042824 146.721755 117.577998 147.843943 
C 117.113173 148.966131 116.873914 150.168967 116.873914 151.383614 
C 116.873914 152.598262 117.113173 153.801098 117.577998 154.923286 
C 118.042824 156.045474 118.724176 157.065189 119.583061 157.924074 
C 120.441947 158.78296 121.461662 159.464312 122.58385 159.929137 
C 123.706037 160.393963 124.908874 160.633222 126.123521 160.633222 
C 127.338168 160.633222 128.541005 160.393963 129.663193 159.929137 
C 130.78538 159.464312 131.805096 158.78296 132.663981 157.924074 
C 133.522866 157.065189 134.204219 156.045474 134.669044 154.923286 
C 135.133869 153.801098 135.373128 152.598262 135.373128 151.383614 
M 126.123521 151.383614 
z
" clip-path="url(#pb1d247df4b)" style="fill: #cc79a7"/>
   </g>
   <g id="patch_26">
    <path d="M 91.32738 75.09414 
C 91.32738 73.879493 91.088121 72.676656 90.623295 71.554469 
C 90.15847 70.432281 89.477118 69.412565 88.618233 68.55368 
C 87.759347 67.694795 86.739632 67.013443 85.617444 66.548617 
C 84.495256 66.083792 83.29242 65.844533 82.077773 65.844533 
C 80.863125 65.844533 79.660289 66.083792 78.538101 66.548617 
C 77.415913 67.013443 76.396198 67.694795 75.537313 68.55368 
C 74.678427 69.412565 73.997075 70.432281 73.53225 71.554469 
C 73.067424 72.676656 72.828165 73.879493 72.828165 75.09414 
C 72.828165 76.308787 73.067424 77.511624 73.53225 78.633811 
C 73.997075 79.755999 74.678427 80.775715 75.537313 81.6346 
C 76.396198 82.493485 77.415913 83.174837 78.538101 83.639663 
C 79.660289 84.104488 80.863125 84.343747 82.077773 84.343747 
C 83.29242 84.343747 84.495256 84.104488 85.617444 83.639663 
C 86.739632 83.174837 87.759347 82.493485 88.618233 81.6346 
C 89.477118 80.775715 90.15847 79.755999 90.623295 78.633811 
C 91.088121 77.511624 91.32738 76.308787 91.32738 75.09414 
M 82.077773 75.09414 
z
" clip-path="url(#pb1d247df4b)" style="fill: #e69f00"/>
   </g>
   <g id="patch_27">
    <path d="M 179.418877 75.09414 
C 179.418877 73.879493 179.179618 72.676656 178.714793 71.554469 
C 178.249967 70.432281 177.568615 69.412565 176.70973 68.55368 
C 175.850844 67.694795 174.831129 67.013443 173.708941 66.548617 
C 172.586753 66.083792 171.383917 65.844533 170.16927 65.844533 
C 168.954622 65.844533 167.751786 66.083792 166.629598 66.548617 
C 165.507411 67.013443 164.487695 67.694795 163.62881 68.55368 
C 162.769924 69.412565 162.088572 70.432281 161.623747 71.554469 
C 161.158922 72.676656 160.919663 73.879493 160.919663 75.09414 
C 160.919663 76.308787 161.158922 77.511624 161.623747 78.633811 
C 162.088572 79.755999 162.769924 80.775715 163.62881 81.6346 
C 164.487695 82.493485 165.507411 83.174837 166.629598 83.639663 
C 167.751786 84.104488 168.954622 84.343747 170.16927 84.343747 
C 171.383917 84.343747 172.586753 84.104488 173.708941 83.639663 
C 174.831129 83.174837 175.850844 82.493485 176.70973 81.6346 
C 177.568615 80.775715 178.249967 79.755999 178.714793 78.633811 
C 179.179618 77.511624 179.418877 76.308787 179.418877 75.09414 
M 170.16927 75.09414 
z
" clip-path="url(#pb1d247df4b)" style="fill: #009e73"/>
   </g>
   <g id="patch_28">
    <path d="M 71.17966 160.850663 
C 71.17966 159.636016 70.940401 158.43318 70.475576 157.310992 
C 70.010751 156.188804 69.329399 155.169089 68.470513 154.310203 
C 67.611628 153.451318 66.591912 152.769966 65.469725 152.30514 
C 64.347537 151.840315 63.1447 151.601056 61.930053 151.601056 
C 60.715406 151.601056 59.51257 151.840315 58.390382 152.30514 
C 57.268194 152.769966 56.248479 153.451318 55.389593 154.310203 
C 54.530708 155.169089 53.849356 156.188804 53.38453 157.310992 
C 52.919705 158.43318 52.680446 159.636016 52.680446 160.850663 
C 52.680446 162.065311 52.919705 163.268147 53.38453 164.390335 
C 53.849356 165.512522 54.530708 166.532238 55.389593 167.391123 
C 56.248479 168.250009 57.268194 168.931361 58.390382 169.396186 
C 59.51257 169.861011 60.715406 170.10027 61.930053 170.10027 
C 63.1447 170.10027 64.347537 169.861011 65.469725 169.396186 
C 66.591912 168.931361 67.611628 168.250009 68.470513 167.391123 
C 69.329399 166.532238 70.010751 165.512522 70.475576 164.390335 
C 70.940401 163.268147 71.17966 162.065311 71.17966 160.850663 
M 61.930053 160.850663 
z
" clip-path="url(#pb1d247df4b)" style="fill: #cc79a7"/>
   </g>
   <g id="text_1">
    <!-- 1 -->
    <g style="fill: #111827" transform="translate(185.357804 187.329051) scale(0.038 -0.038)">
     <defs>
      <path id="DejaVuSans-31" d="M 794 531 
L 1825 531 
L 1825 4091 
L 703 3866 
L 703 4441 
L 1819 4666 
L 2450 4666 
L 2450 531 
L 3481 531 
L 3481 0 
L 794 0 
L 794 531 
z
" transform="scale(0.015625)"/>
     </defs>
     <use xlink:href="#DejaVuSans-31"/>
    </g>
   </g>
   <g id="text_2">
    <!-- 2 -->
    <g style="fill: #111827" transform="translate(170.675888 138.634643) scale(0.038 -0.038)">
     <defs>
      <path id="DejaVuSans-32" d="M 1228 531 
L 3431 531 
L 3431 0 
L 469 0 
L 469 531 
Q 828 903 1448 1529 
Q 2069 2156 2228 2338 
Q 2531 2678 2651 2914 
Q 2772 3150 2772 3378 
Q 2772 3750 2511 3984 
Q 2250 4219 1831 4219 
Q 1534 4219 1204 4116 
Q 875 4013 500 3803 
L 500 4441 
Q 881 4594 1212 4672 
Q 1544 4750 1819 4750 
Q 2544 4750 2975 4387 
Q 3406 4025 3406 3419 
Q 3406 3131 3298 2873 
Q 3191 2616 2906 2266 
Q 2828 2175 2409 1742 
Q 1991 1309 1228 531 
z
" transform="scale(0.015625)"/>
     </defs>
     <use xlink:href="#DejaVuSans-32"/>
    </g>
   </g>
   <g id="text_3">
    <!-- 3 -->
    <g style="fill: #111827" transform="translate(77.118588 273.085574) scale(0.038 -0.038)">
     <defs>
      <path id="DejaVuSans-33" d="M 2597 2516 
Q 3050 2419 3304 2112 
Q 3559 1806 3559 1356 
Q 3559 666 3084 287 
Q 2609 -91 1734 -91 
Q 1441 -91 1130 -33 
Q 819 25 488 141 
L 488 750 
Q 750 597 1062 519 
Q 1375 441 1716 441 
Q 2309 441 2620 675 
Q 2931 909 2931 1356 
Q 2931 1769 2642 2001 
Q 2353 2234 1838 2234 
L 1294 2234 
L 1294 2753 
L 1863 2753 
Q 2328 2753 2575 2939 
Q 2822 3125 2822 3475 
Q 2822 3834 2567 4026 
Q 2313 4219 1838 4219 
Q 1578 4219 1281 4162 
Q 984 4106 628 3988 
L 628 4550 
Q 988 4650 1302 4700 
Q 1616 4750 1894 4750 
Q 2613 4750 3031 4423 
Q 3450 4097 3450 3541 
Q 3450 3153 3228 2886 
Q 3006 2619 2597 2516 
z
" transform="scale(0.015625)"/>
     </defs>
     <use xlink:href="#DejaVuSans-33"/>
    </g>
   </g>
   <g id="text_4">
    <!-- 4 -->
    <g style="fill: #111827" transform="translate(150.528169 224.391167) scale(0.038 -0.038)">
     <defs>
      <path id="DejaVuSans-34" d="M 2419 4116 
L 825 1625 
L 2419 1625 
L 2419 4116 
z
M 2253 4666 
L 3047 4666 
L 3047 1625 
L 3713 1625 
L 3713 1100 
L 3047 1100 
L 3047 0 
L 2419 0 
L 2419 1100 
L 313 1100 
L 313 1709 
L 2253 4666 
z
" transform="scale(0.015625)"/>
     </defs>
     <use xlink:href="#DejaVuSans-34"/>
    </g>
   </g>
   <g id="text_5">
    <!-- 5 -->
    <g style="fill: #111827" transform="translate(135.846253 175.696759) scale(0.038 -0.038)">
     <defs>
      <path id="DejaVuSans-35" d="M 691 4666 
L 3169 4666 
L 3169 4134 
L 1269 4134 
L 1269 2991 
Q 1406 3038 1543 3061 
Q 1681 3084 1819 3084 
Q 2600 3084 3056 2656 
Q 3513 2228 3513 1497 
Q 3513 744 3044 326 
Q 2575 -91 1722 -91 
Q 1428 -91 1123 -41 
Q 819 9 494 109 
L 494 744 
Q 775 591 1075 516 
Q 1375 441 1709 441 
Q 2250 441 2565 725 
Q 2881 1009 2881 1497 
Q 2881 1984 2565 2268 
Q 2250 2553 1709 2553 
Q 1456 2553 1204 2497 
Q 953 2441 691 2322 
L 691 4666 
z
" transform="scale(0.015625)"/>
     </defs>
     <use xlink:href="#DejaVuSans-35"/>
    </g>
   </g>
   <g id="text_6">
    <!-- 6 -->
    <g style="fill: #111827" transform="translate(223.93775 175.696759) scale(0.038 -0.038)">
     <defs>
      <path id="DejaVuSans-36" d="M 2113 2584 
Q 1688 2584 1439 2293 
Q 1191 2003 1191 1497 
Q 1191 994 1439 701 
Q 1688 409 2113 409 
Q 2538 409 2786 701 
Q 3034 994 3034 1497 
Q 3034 2003 2786 2293 
Q 2538 2584 2113 2584 
z
M 3366 4563 
L 3366 3988 
Q 3128 4100 2886 4159 
Q 2644 4219 2406 4219 
Q 1781 4219 1451 3797 
Q 1122 3375 1075 2522 
Q 1259 2794 1537 2939 
Q 1816 3084 2150 3084 
Q 2853 3084 3261 2657 
Q 3669 2231 3669 1497 
Q 3669 778 3244 343 
Q 2819 -91 2113 -91 
Q 1303 -91 875 529 
Q 447 1150 447 2328 
Q 447 3434 972 4092 
Q 1497 4750 2381 4750 
Q 2619 4750 2861 4703 
Q 3103 4656 3366 4563 
z
" transform="scale(0.015625)"/>
     </defs>
     <use xlink:href="#DejaVuSans-36"/>
    </g>
   </g>
   <g id="text_7">
    <!-- 7 -->
    <g style="fill: #111827" transform="translate(179.892001 99.407285) scale(0.038 -0.038)">
     <defs>
      <path id="DejaVuSans-37" d="M 525 4666 
L 3525 4666 
L 3525 4397 
L 1831 0 
L 1172 0 
L 2766 4134 
L 525 4134 
L 525 4666 
z
" transform="scale(0.015625)"/>
     </defs>
     <use xlink:href="#DejaVuSans-37"/>
    </g>
   </g>
   <g id="text_8">
    <!-- 8 -->
    <g style="fill: #111827" transform="translate(165.210085 203.291826) scale(0.038 -0.038)">
     <defs>
      <path id="DejaVuSans-38" d="M 2034 2216 
Q 1584 2216 1326 1975 
Q 1069 1734 1069 1313 
Q 1069 891 1326 650 
Q 1584 409 2034 409 
Q 2484 409 2743 651 
Q 3003 894 3003 1313 
Q 3003 1734 2745 1975 
Q 2488 2216 2034 2216 
z
M 1403 2484 
Q 997 2584 770 2862 
Q 544 3141 544 3541 
Q 544 4100 942 4425 
Q 1341 4750 2034 4750 
Q 2731 4750 3128 4425 
Q 3525 4100 3525 3541 
Q 3525 3141 3298 2862 
Q 3072 2584 2669 2484 
Q 3125 2378 3379 2068 
Q 3634 1759 3634 1313 
Q 3634 634 3220 271 
Q 2806 -91 2034 -91 
Q 1263 -91 848 271 
Q 434 634 434 1313 
Q 434 1759 690 2068 
Q 947 2378 1403 2484 
z
M 1172 3481 
Q 1172 3119 1398 2916 
Q 1625 2713 2034 2713 
Q 2441 2713 2670 2916 
Q 2900 3119 2900 3481 
Q 2900 3844 2670 4047 
Q 2441 4250 2034 4250 
Q 1625 4250 1398 4047 
Q 1172 3844 1172 3481 
z
" transform="scale(0.015625)"/>
     </defs>
     <use xlink:href="#DejaVuSans-38"/>
    </g>
   </g>
   <g id="text_9">
    <!-- 9 -->
    <g style="fill: #111827" transform="translate(209.255833 127.002352) scale(0.038 -0.038)">
     <defs>
      <path id="DejaVuSans-39" d="M 703 97 
L 703 672 
Q 941 559 1184 500 
Q 1428 441 1663 441 
Q 2288 441 2617 861 
Q 2947 1281 2994 2138 
Q 2813 1869 2534 1725 
Q 2256 1581 1919 1581 
Q 1219 1581 811 2004 
Q 403 2428 403 3163 
Q 403 3881 828 4315 
Q 1253 4750 1959 4750 
Q 2769 4750 3195 4129 
Q 3622 3509 3622 2328 
Q 3622 1225 3098 567 
Q 2575 -91 1691 -91 
Q 1453 -91 1209 -44 
Q 966 3 703 97 
z
M 1959 2075 
Q 2384 2075 2632 2365 
Q 2881 2656 2881 3163 
Q 2881 3666 2632 3958 
Q 2384 4250 1959 4250 
Q 1534 4250 1286 3958 
Q 1038 3666 1038 3163 
Q 1038 2656 1286 2365 
Q 1534 2075 1959 2075 
z
" transform="scale(0.015625)"/>
     </defs>
     <use xlink:href="#DejaVuSans-39"/>
    </g>
   </g>
   <g id="text_10">
    <!-- 10 -->
    <g style="fill: #111827" transform="translate(164.00121 50.712878) scale(0.038 -0.038)">
     <defs>
      <path id="DejaVuSans-30" d="M 2034 4250 
Q 1547 4250 1301 3770 
Q 1056 3291 1056 2328 
Q 1056 1369 1301 889 
Q 1547 409 2034 409 
Q 2525 409 2770 889 
Q 3016 1369 3016 2328 
Q 3016 3291 2770 3770 
Q 2525 4250 2034 4250 
z
M 2034 4750 
Q 2819 4750 3233 4129 
Q 3647 3509 3647 2328 
Q 3647 1150 3233 529 
Q 2819 -91 2034 -91 
Q 1250 -91 836 529 
Q 422 1150 422 2328 
Q 422 3509 836 4129 
Q 1250 4750 2034 4750 
z
" transform="scale(0.015625)"/>
     </defs>
     <use xlink:href="#DejaVuSans-31"/>
     <use xlink:href="#DejaVuSans-30" transform="translate(63.623047 0)"/>
    </g>
   </g>
   <g id="text_11">
    <!-- 11 -->
    <g style="fill: #111827" transform="translate(158.535407 185.163808) scale(0.038 -0.038)">
     <use xlink:href="#DejaVuSans-31"/>
     <use xlink:href="#DejaVuSans-31" transform="translate(63.623047 0)"/>
    </g>
   </g>
   <g id="text_12">
    <!-- 12 -->
    <g style="fill: #111827" transform="translate(187.899239 212.758875) scale(0.038 -0.038)">
     <use xlink:href="#DejaVuSans-31"/>
     <use xlink:href="#DejaVuSans-32" transform="translate(63.623047 0)"/>
    </g>
   </g>
   <g id="text_13">
    <!-- 13 -->
    <g style="fill: #111827" transform="translate(55.761993 136.469401) scale(0.038 -0.038)">
     <use xlink:href="#DejaVuSans-31"/>
     <use xlink:href="#DejaVuSans-33" transform="translate(63.623047 0)"/>
    </g>
   </g>
   <g id="text_14">
    <!-- 14 -->
    <g style="fill: #111827" transform="translate(143.853491 136.469401) scale(0.038 -0.038)">
     <use xlink:href="#DejaVuSans-31"/>
     <use xlink:href="#DejaVuSans-34" transform="translate(63.623047 0)"/>
    </g>
   </g>
   <g id="text_15">
    <!-- 15 -->
    <g style="fill: #111827" transform="translate(173.217323 164.064468) scale(0.038 -0.038)">
     <use xlink:href="#DejaVuSans-31"/>
     <use xlink:href="#DejaVuSans-35" transform="translate(63.623047 0)"/>
    </g>
   </g>
   <g id="text_16">
    <!-- 16 -->
    <g style="fill: #111827" transform="translate(129.171574 87.774994) scale(0.038 -0.038)">
     <use xlink:href="#DejaVuSans-31"/>
     <use xlink:href="#DejaVuSans-36" transform="translate(63.623047 0)"/>
    </g>
   </g>
   <g id="text_17">
    <!-- 17 -->
    <g style="fill: #111827" transform="translate(70.44391 115.370061) scale(0.038 -0.038)">
     <use xlink:href="#DejaVuSans-31"/>
     <use xlink:href="#DejaVuSans-37" transform="translate(63.623047 0)"/>
    </g>
   </g>
   <g id="text_18">
    <!-- 18 -->
    <g style="fill: #111827" transform="translate(114.489658 39.080587) scale(0.038 -0.038)">
     <use xlink:href="#DejaVuSans-31"/>
     <use xlink:href="#DejaVuSans-38" transform="translate(63.623047 0)"/>
    </g>
   </g>
   <g id="text_19">
    <!-- 19 -->
    <g style="fill: #111827" transform="translate(143.853491 66.675654) scale(0.038 -0.038)">
     <use xlink:href="#DejaVuSans-31"/>
     <use xlink:href="#DejaVuSans-39" transform="translate(63.623047 0)"/>
    </g>
   </g>
   <g id="text_20">
    <!-- 20 -->
    <g style="fill: #111827" transform="translate(94.341939 277.416058) scale(0.038 -0.038)">
     <use xlink:href="#DejaVuSans-32"/>
     <use xlink:href="#DejaVuSans-30" transform="translate(63.623047 0)"/>
    </g>
   </g>
   <g id="text_21">
    <!-- 21 -->
    <g style="fill: #111827" transform="translate(50.29619 201.126584) scale(0.038 -0.038)">
     <use xlink:href="#DejaVuSans-32"/>
     <use xlink:href="#DejaVuSans-31" transform="translate(63.623047 0)"/>
    </g>
   </g>
   <g id="text_22">
    <!-- 22 -->
    <g style="fill: #111827" transform="translate(138.387687 201.126584) scale(0.038 -0.038)">
     <use xlink:href="#DejaVuSans-32"/>
     <use xlink:href="#DejaVuSans-32" transform="translate(63.623047 0)"/>
    </g>
   </g>
   <g id="text_23">
    <!-- 23 -->
    <g style="fill: #111827" transform="translate(35.614274 152.432177) scale(0.038 -0.038)">
     <use xlink:href="#DejaVuSans-32"/>
     <use xlink:href="#DejaVuSans-33" transform="translate(63.623047 0)"/>
    </g>
   </g>
   <g id="text_24">
    <!-- 24 -->
    <g style="fill: #111827" transform="translate(123.705771 152.432177) scale(0.038 -0.038)">
     <use xlink:href="#DejaVuSans-32"/>
     <use xlink:href="#DejaVuSans-34" transform="translate(63.623047 0)"/>
    </g>
   </g>
   <g id="text_25">
    <!-- 25 -->
    <g style="fill: #111827" transform="translate(79.660023 76.142703) scale(0.038 -0.038)">
     <use xlink:href="#DejaVuSans-32"/>
     <use xlink:href="#DejaVuSans-35" transform="translate(63.623047 0)"/>
    </g>
   </g>
   <g id="text_26">
    <!-- 26 -->
    <g style="fill: #111827" transform="translate(167.75152 76.142703) scale(0.038 -0.038)">
     <use xlink:href="#DejaVuSans-32"/>
     <use xlink:href="#DejaVuSans-36" transform="translate(63.623047 0)"/>
    </g>
   </g>
   <g id="text_27">
    <!-- 27 -->
    <g style="fill: #111827" transform="translate(59.512303 161.899226) scale(0.038 -0.038)">
     <use xlink:href="#DejaVuSans-32"/>
     <use xlink:href="#DejaVuSans-37" transform="translate(63.623047 0)"/>
    </g>
   </g>
  </g>
 </g>
 <defs>
  <clipPath id="pb1d247df4b">
   <rect x="7.2" y="7.2" width="248.778649" height="299.99952"/>
  </clipPath>
 </defs>
</svg>
