<?xml version="1.0" encoding="utf-8" standalone="no"?>
<!DOCTYPE svg PUBLIC "-//W3C//DTD SVG 1.1//EN"
  "http://www.w3.org/Graphics/SVG/1.1/DTD/svg11.dtd">
<svg xmlns:xlink="http://www.w3.org/1999/xlink" width="263.178649pt" height="314.39952pt" viewBox="0 0 263.178649 314.39952" xmlns="http://www.w3.org/2000/svg" version="1.1">
 <metadata>
  <rdf:RDF xmlns:dc="http://purl.org/dc/elements/1.1/" xmlns:cc="http://creativecommons.org/ns#" xmlns:rdf="http://www.w3.org/1999/02/22-rdf-syntax-ns#">
   <cc:Work>
    <dc:type rdf:resource="http://purl.org/dc/dcmitype/StillImage"/>
    <dc:date>2026-06-26T12:46:06.734463</dc:date>
    <dc:format>image/svg+xml</dc:format>
    <dc:creator>
     <cc:Agent>
      <dc:title>Matplotlib v3.10.9, https://matplotlib.org/</dc:title>
     </cc:Agent>
    </dc:creator>
   </cc:Work>
  </rdf:RDF>
 </metadata>
 <defs>
  <style type="text/css">*{stroke-linejoin: round; stroke-linecap: butt}</style>
 </defs>
 <g id="figure_1">
  <g id="patch_1">
   <path d="M 0 314.39952 
L 263.178649 314.39952 
L 263.178649 0 
L 0 0 
z
" style="fill: #ffffff"/>
  </g>
  <g id="axes_1">
   <g id="line2d_1">
    <path d="M 186.566679 186.280488 
L 181.100876 98.358722 
" clip-path="url(#pb142155bc9)" style="fill: none; stroke: #4c78a8; stroke-width: 0.65; stroke-linecap: square"/>
   </g>
   <g id="line2d_2">
    <path d="M 171.884763 137.586081 
L 151.737044 223.342604 
" clip-path="url(#pb142155bc9)" style="fill: none; stroke: #4c78a8; stroke-width: 0.65; stroke-linecap: square"/>
   </g>
   <g id="line2d_3">
    <path d="M 171.884763 137.586081 
L 166.41896 49.664315 
" clip-path="url(#pb142155bc9)" style="fill: none; stroke: #4c78a8; stroke-width: 0.65; stroke-linecap: square"/>
   </g>
   <g id="line2d_4">
    <path d="M 78.327463 272.037011 
L 151.737044 223.342604 
" clip-path="url(#pb142155bc9)" style="fill: none; stroke: #4c78a8; stroke-width: 0.65; stroke-linecap: square"/>
   </g>
   <g id="line2d_5">
    <path d="M 151.737044 223.342604 
L 225.146625 174.648197 
" clip-path="url(#pb142155bc9)" style="fill: none; stroke: #4c78a8; stroke-width: 0.65; stroke-linecap: square"/>
   </g>
   <g id="line2d_6">
    <path d="M 151.737044 223.342604 
L 146.271241 135.420838 
" clip-path="url(#pb142155bc9)" style="fill: none; stroke: #4c78a8; stroke-width: 0.65; stroke-linecap: square"/>
   </g>
   <g id="line2d_7">
    <path d="M 137.055128 174.648197 
L 225.146625 174.648197 
" clip-path="url(#pb142155bc9)" style="fill: none; stroke: #4c78a8; stroke-width: 0.65; stroke-linecap: square"/>
   </g>
   <g id="line2d_8">
    <path d="M 137.055128 174.648197 
L 181.100876 98.358722 
" clip-path="url(#pb142155bc9)" style="fill: none; stroke: #4c78a8; stroke-width: 0.65; stroke-linecap: square"/>
   </g>
   <g id="line2d_9">
    <path d="M 137.055128 174.648197 
L 210.464708 125.95379 
" clip-path="url(#pb142155bc9)" style="fill: none; stroke: #4c78a8; stroke-width: 0.65; stroke-linecap: square"/>
   </g>
   <g id="line2d_10">
    <path d="M 137.055128 174.648197 
L 58.179743 135.420838 
" clip-path="url(#pb142155bc9)" style="fill: none; stroke: #4c78a8; stroke-width: 0.65; stroke-linecap: square"/>
   </g>
   <g id="line2d_11">
    <path d="M 137.055128 174.648197 
L 131.589324 86.726431 
" clip-path="url(#pb142155bc9)" style="fill: none; stroke: #4c78a8; stroke-width: 0.65; stroke-linecap: square"/>
   </g>
   <g id="line2d_12">
    <path d="M 137.055128 174.648197 
L 72.86166 114.321498 
" clip-path="url(#pb142155bc9)" style="fill: none; stroke: #4c78a8; stroke-width: 0.65; stroke-linecap: square"/>
   </g>
   <g id="line2d_13">
    <path d="M 137.055128 174.648197 
L 52.71394 200.078022 
" clip-path="url(#pb142155bc9)" style="fill: none; stroke: #4c78a8; stroke-width: 0.65; stroke-linecap: square"/>
   </g>
   <g id="line2d_14">
    <path d="M 225.146625 174.648197 
L 181.100876 98.358722 
" clip-path="url(#pb142155bc9)" style="fill: none; stroke: #4c78a8; stroke-width: 0.65; stroke-linecap: square"/>
   </g>
   <g id="line2d_15">
    <path d="M 225.146625 174.648197 
L 146.271241 135.420838 
" clip-path="url(#pb142155bc9)" style="fill: none; stroke: #4c78a8; stroke-width: 0.65; stroke-linecap: square"/>
   </g>
   <g id="line2d_16">
    <path d="M 225.146625 174.648197 
L 140.805437 200.078022 
" clip-path="url(#pb142155bc9)" style="fill: none; stroke: #4c78a8; stroke-width: 0.65; stroke-linecap: square"/>
   </g>
   <g id="line2d_17">
    <path d="M 181.100876 98.358722 
L 160.953157 184.115246 
" clip-path="url(#pb142155bc9)" style="fill: none; stroke: #4c78a8; stroke-width: 0.65; stroke-linecap: square"/>
   </g>
   <g id="line2d_18">
    <path d="M 181.100876 98.358722 
L 116.907408 38.032024 
" clip-path="url(#pb142155bc9)" style="fill: none; stroke: #4c78a8; stroke-width: 0.65; stroke-linecap: square"/>
   </g>
   <g id="line2d_19">
    <path d="M 166.41896 202.243264 
L 210.464708 125.95379 
" clip-path="url(#pb142155bc9)" style="fill: none; stroke: #4c78a8; stroke-width: 0.65; stroke-linecap: square"/>
   </g>
   <g id="line2d_20">
    <path d="M 210.464708 125.95379 
L 166.41896 49.664315 
" clip-path="url(#pb142155bc9)" style="fill: none; stroke: #4c78a8; stroke-width: 0.65; stroke-linecap: square"/>
   </g>
   <g id="line2d_21">
    <path d="M 210.464708 125.95379 
L 190.316989 211.710313 
" clip-path="url(#pb142155bc9)" style="fill: none; stroke: #4c78a8; stroke-width: 0.65; stroke-linecap: square"/>
   </g>
   <g id="line2d_22">
    <path d="M 210.464708 125.95379 
L 131.589324 86.726431 
" clip-path="url(#pb142155bc9)" style="fill: none; stroke: #4c78a8; stroke-width: 0.65; stroke-linecap: square"/>
   </g>
   <g id="line2d_23">
    <path d="M 210.464708 125.95379 
L 146.271241 65.627091 
" clip-path="url(#pb142155bc9)" style="fill: none; stroke: #4c78a8; stroke-width: 0.65; stroke-linecap: square"/>
   </g>
   <g id="line2d_24">
    <path d="M 210.464708 125.95379 
L 126.123521 151.383614 
" clip-path="url(#pb142155bc9)" style="fill: none; stroke: #4c78a8; stroke-width: 0.65; stroke-linecap: square"/>
   </g>
   <g id="line2d_25">
    <path d="M 166.41896 49.664315 
L 146.271241 135.420838 
" clip-path="url(#pb142155bc9)" style="fill: none; stroke: #4c78a8; stroke-width: 0.65; stroke-linecap: square"/>
   </g>
   <g id="line2d_26">
    <path d="M 166.41896 49.664315 
L 82.077773 75.09414 
" clip-path="url(#pb142155bc9)" style="fill: none; stroke: #4c78a8; stroke-width: 0.65; stroke-linecap: square"/>
   </g>
   <g id="line2d_27">
    <path d="M 190.316989 211.710313 
L 146.271241 135.420838 
" clip-path="url(#pb142155bc9)" style="fill: none; stroke: #4c78a8; stroke-width: 0.65; stroke-linecap: square"/>
   </g>
   <g id="line2d_28">
    <path d="M 190.316989 211.710313 
L 126.123521 151.383614 
" clip-path="url(#pb142155bc9)" style="fill: none; stroke: #4c78a8; stroke-width: 0.65; stroke-linecap: square"/>
   </g>
   <g id="line2d_29">
    <path d="M 58.179743 135.420838 
L 146.271241 135.420838 
" clip-path="url(#pb142155bc9)" style="fill: none; stroke: #4c78a8; stroke-width: 0.65; stroke-linecap: square"/>
   </g>
   <g id="line2d_30">
    <path d="M 58.179743 135.420838 
L 131.589324 86.726431 
" clip-path="url(#pb142155bc9)" style="fill: none; stroke: #4c78a8; stroke-width: 0.65; stroke-linecap: square"/>
   </g>
   <g id="line2d_31">
    <path d="M 146.271241 135.420838 
L 82.077773 75.09414 
" clip-path="url(#pb142155bc9)" style="fill: none; stroke: #4c78a8; stroke-width: 0.65; stroke-linecap: square"/>
   </g>
   <g id="line2d_32">
    <path d="M 146.271241 135.420838 
L 61.930053 160.850663 
" clip-path="url(#pb142155bc9)" style="fill: none; stroke: #4c78a8; stroke-width: 0.65; stroke-linecap: square"/>
   </g>
   <g id="line2d_33">
    <path d="M 175.635073 163.015906 
L 131.589324 86.726431 
" clip-path="url(#pb142155bc9)" style="fill: none; stroke: #4c78a8; stroke-width: 0.65; stroke-linecap: square"/>
   </g>
   <g id="line2d_34">
    <path d="M 175.635073 163.015906 
L 170.16927 75.09414 
" clip-path="url(#pb142155bc9)" style="fill: none; stroke: #4c78a8; stroke-width: 0.65; stroke-linecap: square"/>
   </g>
   <g id="line2d_35">
    <path d="M 72.86166 114.321498 
L 116.907408 38.032024 
" clip-path="url(#pb142155bc9)" style="fill: none; stroke: #4c78a8; stroke-width: 0.65; stroke-linecap: square"/>
   </g>
   <g id="line2d_36">
    <path d="M 72.86166 114.321498 
L 146.271241 65.627091 
" clip-path="url(#pb142155bc9)" style="fill: none; stroke: #4c78a8; stroke-width: 0.65; stroke-linecap: square"/>
   </g>
   <g id="line2d_37">
    <path d="M 72.86166 114.321498 
L 52.71394 200.078022 
" clip-path="url(#pb142155bc9)" style="fill: none; stroke: #4c78a8; stroke-width: 0.65; stroke-linecap: square"/>
   </g>
   <g id="line2d_38">
    <path d="M 146.271241 65.627091 
L 126.123521 151.383614 
" clip-path="url(#pb142155bc9)" style="fill: none; stroke: #4c78a8; stroke-width: 0.65; stroke-linecap: square"/>
   </g>
   <g id="line2d_39">
    <path d="M 96.759689 276.367496 
L 52.71394 200.078022 
" clip-path="url(#pb142155bc9)" style="fill: none; stroke: #4c78a8; stroke-width: 0.65; stroke-linecap: square"/>
   </g>
   <g id="line2d_40">
    <path d="M 96.759689 276.367496 
L 140.805437 200.078022 
" clip-path="url(#pb142155bc9)" style="fill: none; stroke: #4c78a8; stroke-width: 0.65; stroke-linecap: square"/>
   </g>
   <g id="line2d_41">
    <path d="M 52.71394 200.078022 
L 140.805437 200.078022 
" clip-path="url(#pb142155bc9)" style="fill: none; stroke: #4c78a8; stroke-width: 0.65; stroke-linecap: square"/>
   </g>
   <g id="line2d_42">
    <path d="M 52.71394 200.078022 
L 126.123521 151.383614 
" clip-path="url(#pb142155bc9)" style="fill: none; stroke: #4c78a8; stroke-width: 0.65; stroke-linecap: square"/>
   </g>
   <g id="line2d_43">
    <path d="M 140.805437 200.078022 
L 61.930053 160.850663 
" clip-path="url(#pb142155bc9)" style="fill: none; stroke: #4c78a8; stroke-width: 0.65; stroke-linecap: square"/>
   </g>
   <g id="line2d_44">
    <path d="M 38.032024 151.383614 
L 126.123521 151.383614 
" clip-path="url(#pb142155bc9)" style="fill: none; stroke: #4c78a8; stroke-width: 0.65; stroke-linecap: square"/>
   </g>
   <g id="line2d_45">
    <path d="M 38.032024 151.383614 
L 82.077773 75.09414 
" clip-path="url(#pb142155bc9)" style="fill: none; stroke: #4c78a8; stroke-width: 0.65; stroke-linecap: square"/>
   </g>
   <g id="line2d_46">
    <path d="M 126.123521 151.383614 
L 82.077773 75.09414 
" clip-path="url(#pb142155bc9)" style="fill: none; stroke: #4c78a8; stroke-width: 0.65; stroke-linecap: square"/>
   </g>
   <g id="line2d_47">
    <path d="M 126.123521 151.383614 
L 170.16927 75.09414 
" clip-path="url(#pb142155bc9)" style="fill: none; stroke: #4c78a8; stroke-width: 0.65; stroke-linecap: square"/>
   </g>
   <g id="line2d_48">
    <path d="M 82.077773 75.09414 
L 170.16927 75.09414 
" clip-path="url(#pb142155bc9)" style="fill: none; stroke: #4c78a8; stroke-width: 0.65; stroke-linecap: square"/>
   </g>
   <g id="line2d_49">
    <path d="M 82.077773 75.09414 
L 61.930053 160.850663 
" clip-path="url(#pb142155bc9)" style="fill: none; stroke: #4c78a8; stroke-width: 0.65; stroke-linecap: square"/>
   </g>
   <g id="patch_2">
    <path d="M 186.566679 177.030881 
C 184.943155 177.030881 183.347889 177.458331 181.941876 178.270093 
C 180.535862 179.081855 179.368047 180.249671 178.556284 181.655684 
L 186.566679 186.280488 
z
" clip-path="url(#pb142155bc9)" style="fill: #cc79a7"/>
   </g>
   <g id="patch_3">
    <path d="M 178.556284 181.655684 
C 177.744522 183.061698 177.317072 184.656964 177.317072 186.280488 
C 177.317072 187.904012 177.744522 189.499278 178.556284 190.905292 
L 186.566679 186.280488 
z
" clip-path="url(#pb142155bc9)" style="fill: #4e79a7"/>
   </g>
   <g id="patch_4">
    <path d="M 178.556284 190.905292 
C 179.368047 192.311305 180.535862 193.479121 181.941876 194.290883 
C 183.347889 195.102645 184.943155 195.530095 186.566679 195.530095 
L 186.566679 186.280488 
z
" clip-path="url(#pb142155bc9)" style="fill: #f28e2b"/>
   </g>
   <g id="patch_5">
    <path d="M 186.566679 195.530095 
C 188.190204 195.530095 189.78547 195.102645 191.191483 194.290883 
C 192.597496 193.479121 193.765312 192.311305 194.577074 190.905292 
L 186.566679 186.280488 
z
" clip-path="url(#pb142155bc9)" style="fill: #b07aa1"/>
   </g>
   <g id="patch_6">
    <path d="M 194.577074 190.905292 
C 195.388836 189.499278 195.816286 187.904012 195.816286 186.280488 
C 195.816286 184.656964 195.388836 183.061698 194.577074 181.655684 
L 186.566679 186.280488 
z
" clip-path="url(#pb142155bc9)" style="fill: #ffbe7d"/>
   </g>
   <g id="patch_7">
    <path d="M 194.577074 181.655684 
C 193.765312 180.249671 192.597496 179.081855 191.191483 178.270093 
C 189.78547 177.458331 188.190204 177.030881 186.566679 177.030881 
L 186.566679 186.280488 
z
" clip-path="url(#pb142155bc9)" style="fill: #f1ce63"/>
   </g>
   <g id="patch_8">
    <path d="M 171.884763 128.336474 
C 170.261239 128.336474 168.665973 128.763924 167.25996 129.575686 
C 165.853946 130.387448 164.68613 131.555264 163.874368 132.961277 
L 171.884763 137.586081 
z
" clip-path="url(#pb142155bc9)" style="fill: #e69f00"/>
   </g>
   <g id="patch_9">
    <path d="M 163.874368 132.961277 
C 163.062606 134.367291 162.635156 135.962556 162.635156 137.586081 
C 162.635156 139.209605 163.062606 140.804871 163.874368 142.210884 
L 171.884763 137.586081 
z
" clip-path="url(#pb142155bc9)" style="fill: #56b4e9"/>
   </g>
   <g id="patch_10">
    <path d="M 163.874368 142.210884 
C 164.68613 143.616898 165.853946 144.784713 167.25996 145.596476 
C 168.665973 146.408238 170.261239 146.835688 171.884763 146.835688 
L 171.884763 137.586081 
z
" clip-path="url(#pb142155bc9)" style="fill: #b07aa1"/>
   </g>
   <g id="patch_11">
    <path d="M 171.884763 146.835688 
C 173.508287 146.835688 175.103553 146.408238 176.509567 145.596476 
C 177.91558 144.784713 179.083396 143.616898 179.895158 142.210884 
L 171.884763 137.586081 
z
" clip-path="url(#pb142155bc9)" style="fill: #e15759"/>
   </g>
   <g id="patch_12">
    <path d="M 179.895158 142.210884 
C 180.70692 140.804871 181.13437 139.209605 181.13437 137.586081 
C 181.13437 135.962556 180.70692 134.367291 179.895158 132.961277 
L 171.884763 137.586081 
z
" clip-path="url(#pb142155bc9)" style="fill: #ff9d9a"/>
   </g>
   <g id="patch_13">
    <path d="M 179.895158 132.961277 
C 179.083396 131.555264 177.91558 130.387448 176.509567 129.575686 
C 175.103553 128.763924 173.508287 128.336474 171.884763 128.336474 
L 171.884763 137.586081 
z
" clip-path="url(#pb142155bc9)" style="fill: #bab0ac"/>
   </g>
   <g id="patch_14">
    <path d="M 78.327463 262.787404 
C 76.703938 262.787404 75.108672 263.214854 73.702659 264.026616 
C 72.296646 264.838379 71.12883 266.006194 70.317068 267.412208 
L 78.327463 272.037011 
z
" clip-path="url(#pb142155bc9)" style="fill: #cc79a7"/>
   </g>
   <g id="patch_15">
    <path d="M 70.317068 267.412208 
C 69.505306 268.818221 69.077856 270.413487 69.077856 272.037011 
C 69.077856 273.660536 69.505306 275.255802 70.317068 276.661815 
L 78.327463 272.037011 
z
" clip-path="url(#pb142155bc9)" style="fill: #f28e2b"/>
   </g>
   <g id="patch_16">
    <path d="M 70.317068 276.661815 
C 71.12883 278.067828 72.296646 279.235644 73.702659 280.047406 
C 75.108672 280.859168 76.703938 281.286618 78.327463 281.286618 
L 78.327463 272.037011 
z
" clip-path="url(#pb142155bc9)" style="fill: #b07aa1"/>
   </g>
   <g id="patch_17">
    <path d="M 78.327463 281.286618 
C 79.950987 281.286618 81.546253 280.859168 82.952266 280.047406 
C 84.35828 279.235644 85.526095 278.067828 86.337858 276.661815 
L 78.327463 272.037011 
z
" clip-path="url(#pb142155bc9)" style="fill: #e15759"/>
   </g>
   <g id="patch_18">
    <path d="M 86.337858 276.661815 
C 87.14962 275.255802 87.57707 273.660536 87.57707 272.037011 
C 87.57707 270.413487 87.14962 268.818221 86.337858 267.412208 
L 78.327463 272.037011 
z
" clip-path="url(#pb142155bc9)" style="fill: #86bcb6"/>
   </g>
   <g id="patch_19">
    <path d="M 86.337858 267.412208 
C 85.526095 266.006194 84.35828 264.838379 82.952266 264.026616 
C 81.546253 263.214854 79.950987 262.787404 78.327463 262.787404 
L 78.327463 272.037011 
z
" clip-path="url(#pb142155bc9)" style="fill: #f1ce63"/>
   </g>
   <g id="patch_20">
    <path d="M 151.737044 214.092997 
C 150.113519 214.092997 148.518253 214.520447 147.11224 215.332209 
C 145.706227 216.143971 144.538411 217.311787 143.726649 218.7178 
L 151.737044 223.342604 
z
" clip-path="url(#pb142155bc9)" style="fill: #f0e442"/>
   </g>
   <g id="patch_21">
    <path d="M 143.726649 218.7178 
C 142.914887 220.123814 142.487437 221.71908 142.487437 223.342604 
C 142.487437 224.966128 142.914887 226.561394 143.726649 227.967408 
L 151.737044 223.342604 
z
" clip-path="url(#pb142155bc9)" style="fill: #edc948"/>
   </g>
   <g id="patch_22">
    <path d="M 143.726649 227.967408 
C 144.538411 229.373421 145.706227 230.541237 147.11224 231.352999 
C 148.518253 232.164761 150.113519 232.592211 151.737044 232.592211 
L 151.737044 223.342604 
z
" clip-path="url(#pb142155bc9)" style="fill: #9c755f"/>
   </g>
   <g id="patch_23">
    <path d="M 151.737044 232.592211 
C 153.360568 232.592211 154.955834 232.164761 156.361847 231.352999 
C 157.767861 230.541237 158.935676 229.373421 159.747439 227.967408 
L 151.737044 223.342604 
z
" clip-path="url(#pb142155bc9)" style="fill: #ffbe7d"/>
   </g>
   <g id="patch_24">
    <path d="M 159.747439 227.967408 
C 160.559201 226.561394 160.986651 224.966128 160.986651 223.342604 
C 160.986651 221.71908 160.559201 220.123814 159.747439 218.7178 
L 151.737044 223.342604 
z
" clip-path="url(#pb142155bc9)" style="fill: #d4a6c8"/>
   </g>
   <g id="patch_25">
    <path d="M 159.747439 218.7178 
C 158.935676 217.311787 157.767861 216.143971 156.361847 215.332209 
C 154.955834 214.520447 153.360568 214.092997 151.737044 214.092997 
L 151.737044 223.342604 
z
" clip-path="url(#pb142155bc9)" style="fill: #8da0cb"/>
   </g>
   <g id="patch_26">
    <path d="M 137.055128 165.39859 
C 135.431603 165.39859 133.836337 165.82604 132.430324 166.637802 
C 131.024311 167.449564 129.856495 168.61738 129.044733 170.023393 
L 137.055128 174.648197 
z
" clip-path="url(#pb142155bc9)" style="fill: #0072b2"/>
   </g>
   <g id="patch_27">
    <path d="M 129.044733 170.023393 
C 128.232971 171.429407 127.80552 173.024673 127.80552 174.648197 
C 127.80552 176.271721 128.232971 177.866987 129.044733 179.273 
L 137.055128 174.648197 
z
" clip-path="url(#pb142155bc9)" style="fill: #56b4e9"/>
   </g>
   <g id="patch_28">
    <path d="M 129.044733 179.273 
C 129.856495 180.679014 131.024311 181.846829 132.430324 182.658592 
C 133.836337 183.470354 135.431603 183.897804 137.055128 183.897804 
L 137.055128 174.648197 
z
" clip-path="url(#pb142155bc9)" style="fill: #d55e00"/>
   </g>
   <g id="patch_29">
    <path d="M 137.055128 183.897804 
C 138.678652 183.897804 140.273918 183.470354 141.679931 182.658592 
C 143.085944 181.846829 144.25376 180.679014 145.065522 179.273 
L 137.055128 174.648197 
z
" clip-path="url(#pb142155bc9)" style="fill: #f28e2b"/>
   </g>
   <g id="patch_30">
    <path d="M 145.065522 179.273 
C 145.877284 177.866987 146.304735 176.271721 146.304735 174.648197 
C 146.304735 173.024673 145.877284 171.429407 145.065522 170.023393 
L 137.055128 174.648197 
z
" clip-path="url(#pb142155bc9)" style="fill: #a0cbe8"/>
   </g>
   <g id="patch_31">
    <path d="M 145.065522 170.023393 
C 144.25376 168.61738 143.085944 167.449564 141.679931 166.637802 
C 140.273918 165.82604 138.678652 165.39859 137.055128 165.39859 
L 137.055128 174.648197 
z
" clip-path="url(#pb142155bc9)" style="fill: #d4a6c8"/>
   </g>
   <g id="patch_32">
    <path d="M 225.146625 165.39859 
C 223.5231 165.39859 221.927834 165.82604 220.521821 166.637802 
C 219.115808 167.449564 217.947992 168.61738 217.13623 170.023393 
L 225.146625 174.648197 
z
" clip-path="url(#pb142155bc9)" style="fill: #009e73"/>
   </g>
   <g id="patch_33">
    <path d="M 217.13623 170.023393 
C 216.324468 171.429407 215.897017 173.024673 215.897017 174.648197 
C 215.897017 176.271721 216.324468 177.866987 217.13623 179.273 
L 225.146625 174.648197 
z
" clip-path="url(#pb142155bc9)" style="fill: #cc79a7"/>
   </g>
   <g id="patch_34">
    <path d="M 217.13623 179.273 
C 217.947992 180.679014 219.115808 181.846829 220.521821 182.658592 
C 221.927834 183.470354 223.5231 183.897804 225.146625 183.897804 
L 225.146625 174.648197 
z
" clip-path="url(#pb142155bc9)" style="fill: #4e79a7"/>
   </g>
   <g id="patch_35">
    <path d="M 225.146625 183.897804 
C 226.770149 183.897804 228.365415 183.470354 229.771428 182.658592 
C 231.177442 181.846829 232.345257 180.679014 233.157019 179.273 
L 225.146625 174.648197 
z
" clip-path="url(#pb142155bc9)" style="fill: #b07aa1"/>
   </g>
   <g id="patch_36">
    <path d="M 233.157019 179.273 
C 233.968782 177.866987 234.396232 176.271721 234.396232 174.648197 
C 234.396232 173.024673 233.968782 171.429407 233.157019 170.023393 
L 225.146625 174.648197 
z
" clip-path="url(#pb142155bc9)" style="fill: #86bcb6"/>
   </g>
   <g id="patch_37">
    <path d="M 233.157019 170.023393 
C 232.345257 168.61738 231.177442 167.449564 229.771428 166.637802 
C 228.365415 165.82604 226.770149 165.39859 225.146625 165.39859 
L 225.146625 174.648197 
z
" clip-path="url(#pb142155bc9)" style="fill: #f1ce63"/>
   </g>
   <g id="patch_38">
    <path d="M 181.100876 89.109115 
C 179.477352 89.109115 177.882086 89.536565 176.476073 90.348328 
C 175.070059 91.16009 173.902243 92.327906 173.090481 93.733919 
L 181.100876 98.358722 
z
" clip-path="url(#pb142155bc9)" style="fill: #e69f00"/>
   </g>
   <g id="patch_39">
    <path d="M 173.090481 93.733919 
C 172.278719 95.139932 171.851269 96.735198 171.851269 98.358722 
C 171.851269 99.982247 172.278719 101.577513 173.090481 102.983526 
L 181.100876 98.358722 
z
" clip-path="url(#pb142155bc9)" style="fill: #59a14f"/>
   </g>
   <g id="patch_40">
    <path d="M 173.090481 102.983526 
C 173.902243 104.389539 175.070059 105.557355 176.476073 106.369117 
C 177.882086 107.180879 179.477352 107.60833 181.100876 107.60833 
L 181.100876 98.358722 
z
" clip-path="url(#pb142155bc9)" style="fill: #76b7b2"/>
   </g>
   <g id="patch_41">
    <path d="M 181.100876 107.60833 
C 182.7244 107.60833 184.319666 107.180879 185.72568 106.369117 
C 187.131693 105.557355 188.299509 104.389539 189.111271 102.983526 
L 181.100876 98.358722 
z
" clip-path="url(#pb142155bc9)" style="fill: #e15759"/>
   </g>
   <g id="patch_42">
    <path d="M 189.111271 102.983526 
C 189.923033 101.577513 190.350483 99.982247 190.350483 98.358722 
C 190.350483 96.735198 189.923033 95.139932 189.111271 93.733919 
L 181.100876 98.358722 
z
" clip-path="url(#pb142155bc9)" style="fill: #ff9d9a"/>
   </g>
   <g id="patch_43">
    <path d="M 189.111271 93.733919 
C 188.299509 92.327906 187.131693 91.16009 185.72568 90.348328 
C 184.319666 89.536565 182.7244 89.109115 181.100876 89.109115 
L 181.100876 98.358722 
z
" clip-path="url(#pb142155bc9)" style="fill: #bab0ac"/>
   </g>
   <g id="patch_44">
    <path d="M 166.41896 192.993657 
C 164.795436 192.993657 163.20017 193.421107 161.794156 194.232869 
C 160.388143 195.044631 159.220327 196.212447 158.408565 197.61846 
L 166.41896 202.243264 
z
" clip-path="url(#pb142155bc9)" style="fill: #cc79a7"/>
   </g>
   <g id="patch_45">
    <path d="M 158.408565 197.61846 
C 157.596803 199.024474 157.169353 200.61974 157.169353 202.243264 
C 157.169353 203.866788 157.596803 205.462054 158.408565 206.868068 
L 166.41896 202.243264 
z
" clip-path="url(#pb142155bc9)" style="fill: #56b4e9"/>
   </g>
   <g id="patch_46">
    <path d="M 158.408565 206.868068 
C 159.220327 208.274081 160.388143 209.441897 161.794156 210.253659 
C 163.20017 211.065421 164.795436 211.492871 166.41896 211.492871 
L 166.41896 202.243264 
z
" clip-path="url(#pb142155bc9)" style="fill: #f28e2b"/>
   </g>
   <g id="patch_47">
    <path d="M 166.41896 211.492871 
C 168.042484 211.492871 169.63775 211.065421 171.043764 210.253659 
C 172.449777 209.441897 173.617593 208.274081 174.429355 206.868068 
L 166.41896 202.243264 
z
" clip-path="url(#pb142155bc9)" style="fill: #a0cbe8"/>
   </g>
   <g id="patch_48">
    <path d="M 174.429355 206.868068 
C 175.241117 205.462054 175.668567 203.866788 175.668567 202.243264 
C 175.668567 200.61974 175.241117 199.024474 174.429355 197.61846 
L 166.41896 202.243264 
z
" clip-path="url(#pb142155bc9)" style="fill: #d4a6c8"/>
   </g>
   <g id="patch_49">
    <path d="M 174.429355 197.61846 
C 173.617593 196.212447 172.449777 195.044631 171.043764 194.232869 
C 169.63775 193.421107 168.042484 192.993657 166.41896 192.993657 
L 166.41896 202.243264 
z
" clip-path="url(#pb142155bc9)" style="fill: #8da0cb"/>
   </g>
   <g id="patch_50">
    <path d="M 210.464708 116.704182 
C 208.841184 116.704182 207.245918 117.131633 205.839905 117.943395 
C 204.433892 118.755157 203.266076 119.922973 202.454314 121.328986 
L 210.464708 125.95379 
z
" clip-path="url(#pb142155bc9)" style="fill: #e69f00"/>
   </g>
   <g id="patch_51">
    <path d="M 202.454314 121.328986 
C 201.642552 122.734999 201.215101 124.330265 201.215101 125.95379 
C 201.215101 127.577314 201.642552 129.17258 202.454314 130.578593 
L 210.464708 125.95379 
z
" clip-path="url(#pb142155bc9)" style="fill: #b07aa1"/>
   </g>
   <g id="patch_52">
    <path d="M 202.454314 130.578593 
C 203.266076 131.984606 204.433892 133.152422 205.839905 133.964184 
C 207.245918 134.775947 208.841184 135.203397 210.464708 135.203397 
L 210.464708 125.95379 
z
" clip-path="url(#pb142155bc9)" style="fill: #76b7b2"/>
   </g>
   <g id="patch_53">
    <path d="M 210.464708 135.203397 
C 212.088233 135.203397 213.683499 134.775947 215.089512 133.964184 
C 216.495525 133.152422 217.663341 131.984606 218.475103 130.578593 
L 210.464708 125.95379 
z
" clip-path="url(#pb142155bc9)" style="fill: #e15759"/>
   </g>
   <g id="patch_54">
    <path d="M 218.475103 130.578593 
C 219.286865 129.17258 219.714316 127.577314 219.714316 125.95379 
C 219.714316 124.330265 219.286865 122.734999 218.475103 121.328986 
L 210.464708 125.95379 
z
" clip-path="url(#pb142155bc9)" style="fill: #edc948"/>
   </g>
   <g id="patch_55">
    <path d="M 218.475103 121.328986 
C 217.663341 119.922973 216.495525 118.755157 215.089512 117.943395 
C 213.683499 117.131633 212.088233 116.704182 210.464708 116.704182 
L 210.464708 125.95379 
z
" clip-path="url(#pb142155bc9)" style="fill: #ff9d9a"/>
   </g>
   <g id="patch_56">
    <path d="M 166.41896 40.414708 
C 164.795436 40.414708 163.20017 40.842158 161.794156 41.65392 
C 160.388143 42.465683 159.220327 43.633498 158.408565 45.039512 
L 166.41896 49.664315 
z
" clip-path="url(#pb142155bc9)" style="fill: #009e73"/>
   </g>
   <g id="patch_57">
    <path d="M 158.408565 45.039512 
C 157.596803 46.445525 157.169353 48.040791 157.169353 49.664315 
C 157.169353 51.28784 157.596803 52.883106 158.408565 54.289119 
L 166.41896 49.664315 
z
" clip-path="url(#pb142155bc9)" style="fill: #cc79a7"/>
   </g>
   <g id="patch_58">
    <path d="M 158.408565 54.289119 
C 159.220327 55.695132 160.388143 56.862948 161.794156 57.67471 
C 163.20017 58.486472 164.795436 58.913922 166.41896 58.913922 
L 166.41896 49.664315 
z
" clip-path="url(#pb142155bc9)" style="fill: #4e79a7"/>
   </g>
   <g id="patch_59">
    <path d="M 166.41896 58.913922 
C 168.042484 58.913922 169.63775 58.486472 171.043764 57.67471 
C 172.449777 56.862948 173.617593 55.695132 174.429355 54.289119 
L 166.41896 49.664315 
z
" clip-path="url(#pb142155bc9)" style="fill: #59a14f"/>
   </g>
   <g id="patch_60">
    <path d="M 174.429355 54.289119 
C 175.241117 52.883106 175.668567 51.28784 175.668567 49.664315 
C 175.668567 48.040791 175.241117 46.445525 174.429355 45.039512 
L 166.41896 49.664315 
z
" clip-path="url(#pb142155bc9)" style="fill: #ffbe7d"/>
   </g>
   <g id="patch_61">
    <path d="M 174.429355 45.039512 
C 173.617593 43.633498 172.449777 42.465683 171.043764 41.65392 
C 169.63775 40.842158 168.042484 40.414708 166.41896 40.414708 
L 166.41896 49.664315 
z
" clip-path="url(#pb142155bc9)" style="fill: #f1ce63"/>
   </g>
   <g id="patch_62">
    <path d="M 160.953157 174.865638 
C 159.329632 174.865638 157.734366 175.293089 156.328353 176.104851 
C 154.92234 176.916613 153.754524 178.084429 152.942762 179.490442 
L 160.953157 184.115246 
z
" clip-path="url(#pb142155bc9)" style="fill: #0072b2"/>
   </g>
   <g id="patch_63">
    <path d="M 152.942762 179.490442 
C 152.131 180.896455 151.70355 182.491721 151.70355 184.115246 
C 151.70355 185.73877 152.131 187.334036 152.942762 188.740049 
L 160.953157 184.115246 
z
" clip-path="url(#pb142155bc9)" style="fill: #edc948"/>
   </g>
   <g id="patch_64">
    <path d="M 152.942762 188.740049 
C 153.754524 190.146063 154.92234 191.313878 156.328353 192.12564 
C 157.734366 192.937403 159.329632 193.364853 160.953157 193.364853 
L 160.953157 184.115246 
z
" clip-path="url(#pb142155bc9)" style="fill: #9c755f"/>
   </g>
   <g id="patch_65">
    <path d="M 160.953157 193.364853 
C 162.576681 193.364853 164.171947 192.937403 165.57796 192.12564 
C 166.983974 191.313878 168.151789 190.146063 168.963552 188.740049 
L 160.953157 184.115246 
z
" clip-path="url(#pb142155bc9)" style="fill: #ffbe7d"/>
   </g>
   <g id="patch_66">
    <path d="M 168.963552 188.740049 
C 169.775314 187.334036 170.202764 185.73877 170.202764 184.115246 
C 170.202764 182.491721 169.775314 180.896455 168.963552 179.490442 
L 160.953157 184.115246 
z
" clip-path="url(#pb142155bc9)" style="fill: #d4a6c8"/>
   </g>
   <g id="patch_67">
    <path d="M 168.963552 179.490442 
C 168.151789 178.084429 166.983974 176.916613 165.57796 176.104851 
C 164.171947 175.293089 162.576681 174.865638 160.953157 174.865638 
L 160.953157 184.115246 
z
" clip-path="url(#pb142155bc9)" style="fill: #f1ce63"/>
   </g>
   <g id="patch_68">
    <path d="M 190.316989 202.460706 
C 188.693465 202.460706 187.098199 202.888156 185.692186 203.699918 
C 184.286172 204.51168 183.118356 205.679496 182.306594 207.085509 
L 190.316989 211.710313 
z
" clip-path="url(#pb142155bc9)" style="fill: #9c755f"/>
   </g>
   <g id="patch_69">
    <path d="M 182.306594 207.085509 
C 181.494832 208.491523 181.067382 210.086789 181.067382 211.710313 
C 181.067382 213.333837 181.494832 214.929103 182.306594 216.335116 
L 190.316989 211.710313 
z
" clip-path="url(#pb142155bc9)" style="fill: #ffbe7d"/>
   </g>
   <g id="patch_70">
    <path d="M 182.306594 216.335116 
C 183.118356 217.74113 184.286172 218.908945 185.692186 219.720708 
C 187.098199 220.53247 188.693465 220.95992 190.316989 220.95992 
L 190.316989 211.710313 
z
" clip-path="url(#pb142155bc9)" style="fill: #d4a6c8"/>
   </g>
   <g id="patch_71">
    <path d="M 190.316989 220.95992 
C 191.940513 220.95992 193.535779 220.53247 194.941793 219.720708 
C 196.347806 218.908945 197.515622 217.74113 198.327384 216.335116 
L 190.316989 211.710313 
z
" clip-path="url(#pb142155bc9)" style="fill: #f1ce63"/>
   </g>
   <g id="patch_72">
    <path d="M 198.327384 216.335116 
C 199.139146 214.929103 199.566596 213.333837 199.566596 211.710313 
C 199.566596 210.086789 199.139146 208.491523 198.327384 207.085509 
L 190.316989 211.710313 
z
" clip-path="url(#pb142155bc9)" style="fill: #bab0ac"/>
   </g>
   <g id="patch_73">
    <path d="M 198.327384 207.085509 
C 197.515622 205.679496 196.347806 204.51168 194.941793 203.699918 
C 193.535779 202.888156 191.940513 202.460706 190.316989 202.460706 
L 190.316989 211.710313 
z
" clip-path="url(#pb142155bc9)" style="fill: #8da0cb"/>
   </g>
   <g id="patch_74">
    <path d="M 58.179743 126.171231 
C 56.556219 126.171231 54.960953 126.598681 53.55494 127.410444 
C 52.148926 128.222206 50.981111 129.390022 50.169349 130.796035 
L 58.179743 135.420838 
z
" clip-path="url(#pb142155bc9)" style="fill: #009e73"/>
   </g>
   <g id="patch_75">
    <path d="M 50.169349 130.796035 
C 49.357586 132.202048 48.930136 133.797314 48.930136 135.420838 
C 48.930136 137.044363 49.357586 138.639629 50.169349 140.045642 
L 58.179743 135.420838 
z
" clip-path="url(#pb142155bc9)" style="fill: #cc79a7"/>
   </g>
   <g id="patch_76">
    <path d="M 50.169349 140.045642 
C 50.981111 141.451655 52.148926 142.619471 53.55494 143.431233 
C 54.960953 144.242995 56.556219 144.670446 58.179743 144.670446 
L 58.179743 135.420838 
z
" clip-path="url(#pb142155bc9)" style="fill: #4e79a7"/>
   </g>
   <g id="patch_77">
    <path d="M 58.179743 144.670446 
C 59.803268 144.670446 61.398534 144.242995 62.804547 143.431233 
C 64.21056 142.619471 65.378376 141.451655 66.190138 140.045642 
L 58.179743 135.420838 
z
" clip-path="url(#pb142155bc9)" style="fill: #b07aa1"/>
   </g>
   <g id="patch_78">
    <path d="M 66.190138 140.045642 
C 67.0019 138.639629 67.429351 137.044363 67.429351 135.420838 
C 67.429351 133.797314 67.0019 132.202048 66.190138 130.796035 
L 58.179743 135.420838 
z
" clip-path="url(#pb142155bc9)" style="fill: #86bcb6"/>
   </g>
   <g id="patch_79">
    <path d="M 66.190138 130.796035 
C 65.378376 129.390022 64.21056 128.222206 62.804547 127.410444 
C 61.398534 126.598681 59.803268 126.171231 58.179743 126.171231 
L 58.179743 135.420838 
z
" clip-path="url(#pb142155bc9)" style="fill: #f1ce63"/>
   </g>
   <g id="patch_80">
    <path d="M 146.271241 126.171231 
C 144.647716 126.171231 143.05245 126.598681 141.646437 127.410444 
C 140.240424 128.222206 139.072608 129.390022 138.260846 130.796035 
L 146.271241 135.420838 
z
" clip-path="url(#pb142155bc9)" style="fill: #0072b2"/>
   </g>
   <g id="patch_81">
    <path d="M 138.260846 130.796035 
C 137.449084 132.202048 137.021633 133.797314 137.021633 135.420838 
C 137.021633 137.044363 137.449084 138.639629 138.260846 140.045642 
L 146.271241 135.420838 
z
" clip-path="url(#pb142155bc9)" style="fill: #e69f00"/>
   </g>
   <g id="patch_82">
    <path d="M 138.260846 140.045642 
C 139.072608 141.451655 140.240424 142.619471 141.646437 143.431233 
C 143.05245 144.242995 144.647716 144.670446 146.271241 144.670446 
L 146.271241 135.420838 
z
" clip-path="url(#pb142155bc9)" style="fill: #56b4e9"/>
   </g>
   <g id="patch_83">
    <path d="M 146.271241 144.670446 
C 147.894765 144.670446 149.490031 144.242995 150.896044 143.431233 
C 152.302057 142.619471 153.469873 141.451655 154.281635 140.045642 
L 146.271241 135.420838 
z
" clip-path="url(#pb142155bc9)" style="fill: #d55e00"/>
   </g>
   <g id="patch_84">
    <path d="M 154.281635 140.045642 
C 155.093397 138.639629 155.520848 137.044363 155.520848 135.420838 
C 155.520848 133.797314 155.093397 132.202048 154.281635 130.796035 
L 146.271241 135.420838 
z
" clip-path="url(#pb142155bc9)" style="fill: #f28e2b"/>
   </g>
   <g id="patch_85">
    <path d="M 154.281635 130.796035 
C 153.469873 129.390022 152.302057 128.222206 150.896044 127.410444 
C 149.490031 126.598681 147.894765 126.171231 146.271241 126.171231 
L 146.271241 135.420838 
z
" clip-path="url(#pb142155bc9)" style="fill: #8cd17d"/>
   </g>
   <g id="patch_86">
    <path d="M 175.635073 153.766298 
C 174.011549 153.766298 172.416283 154.193749 171.010269 155.005511 
C 169.604256 155.817273 168.43644 156.985089 167.624678 158.391102 
L 175.635073 163.015906 
z
" clip-path="url(#pb142155bc9)" style="fill: #0072b2"/>
   </g>
   <g id="patch_87">
    <path d="M 167.624678 158.391102 
C 166.812916 159.797115 166.385466 161.392381 166.385466 163.015906 
C 166.385466 164.63943 166.812916 166.234696 167.624678 167.640709 
L 175.635073 163.015906 
z
" clip-path="url(#pb142155bc9)" style="fill: #e69f00"/>
   </g>
   <g id="patch_88">
    <path d="M 167.624678 167.640709 
C 168.43644 169.046722 169.604256 170.214538 171.010269 171.0263 
C 172.416283 171.838063 174.011549 172.265513 175.635073 172.265513 
L 175.635073 163.015906 
z
" clip-path="url(#pb142155bc9)" style="fill: #cc79a7"/>
   </g>
   <g id="patch_89">
    <path d="M 175.635073 172.265513 
C 177.258597 172.265513 178.853863 171.838063 180.259877 171.0263 
C 181.66589 170.214538 182.833706 169.046722 183.645468 167.640709 
L 175.635073 163.015906 
z
" clip-path="url(#pb142155bc9)" style="fill: #56b4e9"/>
   </g>
   <g id="patch_90">
    <path d="M 183.645468 167.640709 
C 184.45723 166.234696 184.88468 164.63943 184.88468 163.015906 
C 184.88468 161.392381 184.45723 159.797115 183.645468 158.391102 
L 175.635073 163.015906 
z
" clip-path="url(#pb142155bc9)" style="fill: #f28e2b"/>
   </g>
   <g id="patch_91">
    <path d="M 183.645468 158.391102 
C 182.833706 156.985089 181.66589 155.817273 180.259877 155.005511 
C 178.853863 154.193749 177.258597 153.766298 175.635073 153.766298 
L 175.635073 163.015906 
z
" clip-path="url(#pb142155bc9)" style="fill: #d4a6c8"/>
   </g>
   <g id="patch_92">
    <path d="M 131.589324 77.476824 
C 129.9658 77.476824 128.370534 77.904274 126.964521 78.716036 
C 125.558507 79.527799 124.390692 80.695614 123.57893 82.101628 
L 131.589324 86.726431 
z
" clip-path="url(#pb142155bc9)" style="fill: #f0e442"/>
   </g>
   <g id="patch_93">
    <path d="M 123.57893 82.101628 
C 122.767167 83.507641 122.339717 85.102907 122.339717 86.726431 
C 122.339717 88.349956 122.767167 89.945222 123.57893 91.351235 
L 131.589324 86.726431 
z
" clip-path="url(#pb142155bc9)" style="fill: #9c755f"/>
   </g>
   <g id="patch_94">
    <path d="M 123.57893 91.351235 
C 124.390692 92.757248 125.558507 93.925064 126.964521 94.736826 
C 128.370534 95.548588 129.9658 95.976038 131.589324 95.976038 
L 131.589324 86.726431 
z
" clip-path="url(#pb142155bc9)" style="fill: #ffbe7d"/>
   </g>
   <g id="patch_95">
    <path d="M 131.589324 95.976038 
C 133.212849 95.976038 134.808115 95.548588 136.214128 94.736826 
C 137.620141 93.925064 138.787957 92.757248 139.599719 91.351235 
L 131.589324 86.726431 
z
" clip-path="url(#pb142155bc9)" style="fill: #8cd17d"/>
   </g>
   <g id="patch_96">
    <path d="M 139.599719 91.351235 
C 140.411481 89.945222 140.838932 88.349956 140.838932 86.726431 
C 140.838932 85.102907 140.411481 83.507641 139.599719 82.101628 
L 131.589324 86.726431 
z
" clip-path="url(#pb142155bc9)" style="fill: #bab0ac"/>
   </g>
   <g id="patch_97">
    <path d="M 139.599719 82.101628 
C 138.787957 80.695614 137.620141 79.527799 136.214128 78.716036 
C 134.808115 77.904274 133.212849 77.476824 131.589324 77.476824 
L 131.589324 86.726431 
z
" clip-path="url(#pb142155bc9)" style="fill: #8da0cb"/>
   </g>
   <g id="patch_98">
    <path d="M 72.86166 105.071891 
C 71.238135 105.071891 69.642869 105.499341 68.236856 106.311104 
C 66.830843 107.122866 65.663027 108.290681 64.851265 109.696695 
L 72.86166 114.321498 
z
" clip-path="url(#pb142155bc9)" style="fill: #e69f00"/>
   </g>
   <g id="patch_99">
    <path d="M 64.851265 109.696695 
C 64.039503 111.102708 63.612052 112.697974 63.612052 114.321498 
C 63.612052 115.945023 64.039503 117.540289 64.851265 118.946302 
L 72.86166 114.321498 
z
" clip-path="url(#pb142155bc9)" style="fill: #4e79a7"/>
   </g>
   <g id="patch_100">
    <path d="M 64.851265 118.946302 
C 65.663027 120.352315 66.830843 121.520131 68.236856 122.331893 
C 69.642869 123.143655 71.238135 123.571106 72.86166 123.571106 
L 72.86166 114.321498 
z
" clip-path="url(#pb142155bc9)" style="fill: #b07aa1"/>
   </g>
   <g id="patch_101">
    <path d="M 72.86166 123.571106 
C 74.485184 123.571106 76.08045 123.143655 77.486463 122.331893 
C 78.892476 121.520131 80.060292 120.352315 80.872054 118.946302 
L 72.86166 114.321498 
z
" clip-path="url(#pb142155bc9)" style="fill: #76b7b2"/>
   </g>
   <g id="patch_102">
    <path d="M 80.872054 118.946302 
C 81.683817 117.540289 82.111267 115.945023 82.111267 114.321498 
C 82.111267 112.697974 81.683817 111.102708 80.872054 109.696695 
L 72.86166 114.321498 
z
" clip-path="url(#pb142155bc9)" style="fill: #edc948"/>
   </g>
   <g id="patch_103">
    <path d="M 80.872054 109.696695 
C 80.060292 108.290681 78.892476 107.122866 77.486463 106.311104 
C 76.08045 105.499341 74.485184 105.071891 72.86166 105.071891 
L 72.86166 114.321498 
z
" clip-path="url(#pb142155bc9)" style="fill: #9c755f"/>
   </g>
   <g id="patch_104">
    <path d="M 116.907408 28.782417 
C 115.283884 28.782417 113.688618 29.209867 112.282605 30.021629 
C 110.876591 30.833391 109.708775 32.001207 108.897013 33.40722 
L 116.907408 38.032024 
z
" clip-path="url(#pb142155bc9)" style="fill: #cc79a7"/>
   </g>
   <g id="patch_105">
    <path d="M 108.897013 33.40722 
C 108.085251 34.813234 107.657801 36.4085 107.657801 38.032024 
C 107.657801 39.655548 108.085251 41.250814 108.897013 42.656828 
L 116.907408 38.032024 
z
" clip-path="url(#pb142155bc9)" style="fill: #56b4e9"/>
   </g>
   <g id="patch_106">
    <path d="M 108.897013 42.656828 
C 109.708775 44.062841 110.876591 45.230657 112.282605 46.042419 
C 113.688618 46.854181 115.283884 47.281631 116.907408 47.281631 
L 116.907408 38.032024 
z
" clip-path="url(#pb142155bc9)" style="fill: #f28e2b"/>
   </g>
   <g id="patch_107">
    <path d="M 116.907408 47.281631 
C 118.530932 47.281631 120.126198 46.854181 121.532212 46.042419 
C 122.938225 45.230657 124.106041 44.062841 124.917803 42.656828 
L 116.907408 38.032024 
z
" clip-path="url(#pb142155bc9)" style="fill: #a0cbe8"/>
   </g>
   <g id="patch_108">
    <path d="M 124.917803 42.656828 
C 125.729565 41.250814 126.157015 39.655548 126.157015 38.032024 
C 126.157015 36.4085 125.729565 34.813234 124.917803 33.40722 
L 116.907408 38.032024 
z
" clip-path="url(#pb142155bc9)" style="fill: #d4a6c8"/>
   </g>
   <g id="patch_109">
    <path d="M 124.917803 33.40722 
C 124.106041 32.001207 122.938225 30.833391 121.532212 30.021629 
C 120.126198 29.209867 118.530932 28.782417 116.907408 28.782417 
L 116.907408 38.032024 
z
" clip-path="url(#pb142155bc9)" style="fill: #8da0cb"/>
   </g>
   <g id="patch_110">
    <path d="M 146.271241 56.377484 
C 144.647716 56.377484 143.05245 56.804934 141.646437 57.616696 
C 140.240424 58.428459 139.072608 59.596274 138.260846 61.002288 
L 146.271241 65.627091 
z
" clip-path="url(#pb142155bc9)" style="fill: #009e73"/>
   </g>
   <g id="patch_111">
    <path d="M 138.260846 61.002288 
C 137.449084 62.408301 137.021633 64.003567 137.021633 65.627091 
C 137.021633 67.250615 137.449084 68.845881 138.260846 70.251895 
L 146.271241 65.627091 
z
" clip-path="url(#pb142155bc9)" style="fill: #cc79a7"/>
   </g>
   <g id="patch_112">
    <path d="M 138.260846 70.251895 
C 139.072608 71.657908 140.240424 72.825724 141.646437 73.637486 
C 143.05245 74.449248 144.647716 74.876698 146.271241 74.876698 
L 146.271241 65.627091 
z
" clip-path="url(#pb142155bc9)" style="fill: #56b4e9"/>
   </g>
   <g id="patch_113">
    <path d="M 146.271241 74.876698 
C 147.894765 74.876698 149.490031 74.449248 150.896044 73.637486 
C 152.302057 72.825724 153.469873 71.657908 154.281635 70.251895 
L 146.271241 65.627091 
z
" clip-path="url(#pb142155bc9)" style="fill: #a0cbe8"/>
   </g>
   <g id="patch_114">
    <path d="M 154.281635 70.251895 
C 155.093397 68.845881 155.520848 67.250615 155.520848 65.627091 
C 155.520848 64.003567 155.093397 62.408301 154.281635 61.002288 
L 146.271241 65.627091 
z
" clip-path="url(#pb142155bc9)" style="fill: #8cd17d"/>
   </g>
   <g id="patch_115">
    <path d="M 154.281635 61.002288 
C 153.469873 59.596274 152.302057 58.428459 150.896044 57.616696 
C 149.490031 56.804934 147.894765 56.377484 146.271241 56.377484 
L 146.271241 65.627091 
z
" clip-path="url(#pb142155bc9)" style="fill: #8da0cb"/>
   </g>
   <g id="patch_116">
    <path d="M 96.759689 267.117889 
C 95.136164 267.117889 93.540898 267.545339 92.134885 268.357101 
C 90.728872 269.168863 89.561056 270.336679 88.749294 271.742692 
L 96.759689 276.367496 
z
" clip-path="url(#pb142155bc9)" style="fill: #0072b2"/>
   </g>
   <g id="patch_117">
    <path d="M 88.749294 271.742692 
C 87.937532 273.148706 87.510082 274.743972 87.510082 276.367496 
C 87.510082 277.99102 87.937532 279.586286 88.749294 280.9923 
L 96.759689 276.367496 
z
" clip-path="url(#pb142155bc9)" style="fill: #e69f00"/>
   </g>
   <g id="patch_118">
    <path d="M 88.749294 280.9923 
C 89.561056 282.398313 90.728872 283.566129 92.134885 284.377891 
C 93.540898 285.189653 95.136164 285.617103 96.759689 285.617103 
L 96.759689 276.367496 
z
" clip-path="url(#pb142155bc9)" style="fill: #009e73"/>
   </g>
   <g id="patch_119">
    <path d="M 96.759689 285.617103 
C 98.383213 285.617103 99.978479 285.189653 101.384492 284.377891 
C 102.790506 283.566129 103.958321 282.398313 104.770084 280.9923 
L 96.759689 276.367496 
z
" clip-path="url(#pb142155bc9)" style="fill: #cc79a7"/>
   </g>
   <g id="patch_120">
    <path d="M 104.770084 280.9923 
C 105.581846 279.586286 106.009296 277.99102 106.009296 276.367496 
C 106.009296 274.743972 105.581846 273.148706 104.770084 271.742692 
L 96.759689 276.367496 
z
" clip-path="url(#pb142155bc9)" style="fill: #76b7b2"/>
   </g>
   <g id="patch_121">
    <path d="M 104.770084 271.742692 
C 103.958321 270.336679 102.790506 269.168863 101.384492 268.357101 
C 99.978479 267.545339 98.383213 267.117889 96.759689 267.117889 
L 96.759689 276.367496 
z
" clip-path="url(#pb142155bc9)" style="fill: #d4a6c8"/>
   </g>
   <g id="patch_122">
    <path d="M 52.71394 190.828414 
C 51.090416 190.828414 49.49515 191.255865 48.089137 192.067627 
C 46.683123 192.879389 45.515308 194.047205 44.703545 195.453218 
L 52.71394 200.078022 
z
" clip-path="url(#pb142155bc9)" style="fill: #ffbe7d"/>
   </g>
   <g id="patch_123">
    <path d="M 44.703545 195.453218 
C 43.891783 196.859231 43.464333 198.454497 43.464333 200.078022 
C 43.464333 201.701546 43.891783 203.296812 44.703545 204.702825 
L 52.71394 200.078022 
z
" clip-path="url(#pb142155bc9)" style="fill: #8cd17d"/>
   </g>
   <g id="patch_124">
    <path d="M 44.703545 204.702825 
C 45.515308 206.108839 46.683123 207.276654 48.089137 208.088416 
C 49.49515 208.900179 51.090416 209.327629 52.71394 209.327629 
L 52.71394 200.078022 
z
" clip-path="url(#pb142155bc9)" style="fill: #ff9d9a"/>
   </g>
   <g id="patch_125">
    <path d="M 52.71394 209.327629 
C 54.337465 209.327629 55.93273 208.900179 57.338744 208.088416 
C 58.744757 207.276654 59.912573 206.108839 60.724335 204.702825 
L 52.71394 200.078022 
z
" clip-path="url(#pb142155bc9)" style="fill: #f1ce63"/>
   </g>
   <g id="patch_126">
    <path d="M 60.724335 204.702825 
C 61.536097 203.296812 61.963547 201.701546 61.963547 200.078022 
C 61.963547 198.454497 61.536097 196.859231 60.724335 195.453218 
L 52.71394 200.078022 
z
" clip-path="url(#pb142155bc9)" style="fill: #bab0ac"/>
   </g>
   <g id="patch_127">
    <path d="M 60.724335 195.453218 
C 59.912573 194.047205 58.744757 192.879389 57.338744 192.067627 
C 55.93273 191.255865 54.337465 190.828414 52.71394 190.828414 
L 52.71394 200.078022 
z
" clip-path="url(#pb142155bc9)" style="fill: #8da0cb"/>
   </g>
   <g id="patch_128">
    <path d="M 140.805437 190.828414 
C 139.181913 190.828414 137.586647 191.255865 136.180634 192.067627 
C 134.77462 192.879389 133.606805 194.047205 132.795043 195.453218 
L 140.805437 200.078022 
z
" clip-path="url(#pb142155bc9)" style="fill: #56b4e9"/>
   </g>
   <g id="patch_129">
    <path d="M 132.795043 195.453218 
C 131.98328 196.859231 131.55583 198.454497 131.55583 200.078022 
C 131.55583 201.701546 131.98328 203.296812 132.795043 204.702825 
L 140.805437 200.078022 
z
" clip-path="url(#pb142155bc9)" style="fill: #59a14f"/>
   </g>
   <g id="patch_130">
    <path d="M 132.795043 204.702825 
C 133.606805 206.108839 134.77462 207.276654 136.180634 208.088416 
C 137.586647 208.900179 139.181913 209.327629 140.805437 209.327629 
L 140.805437 200.078022 
z
" clip-path="url(#pb142155bc9)" style="fill: #e15759"/>
   </g>
   <g id="patch_131">
    <path d="M 140.805437 209.327629 
C 142.428962 209.327629 144.024228 208.900179 145.430241 208.088416 
C 146.836254 207.276654 148.00407 206.108839 148.815832 204.702825 
L 140.805437 200.078022 
z
" clip-path="url(#pb142155bc9)" style="fill: #edc948"/>
   </g>
   <g id="patch_132">
    <path d="M 148.815832 204.702825 
C 149.627594 203.296812 150.055045 201.701546 150.055045 200.078022 
C 150.055045 198.454497 149.627594 196.859231 148.815832 195.453218 
L 140.805437 200.078022 
z
" clip-path="url(#pb142155bc9)" style="fill: #9c755f"/>
   </g>
   <g id="patch_133">
    <path d="M 148.815832 195.453218 
C 148.00407 194.047205 146.836254 192.879389 145.430241 192.067627 
C 144.024228 191.255865 142.428962 190.828414 140.805437 190.828414 
L 140.805437 200.078022 
z
" clip-path="url(#pb142155bc9)" style="fill: #a0cbe8"/>
   </g>
   <g id="patch_134">
    <path d="M 38.032024 142.134007 
C 36.4085 142.134007 34.813234 142.561457 33.40722 143.37322 
C 32.001207 144.184982 30.833391 145.352798 30.021629 146.758811 
L 38.032024 151.383614 
z
" clip-path="url(#pb142155bc9)" style="fill: #e69f00"/>
   </g>
   <g id="patch_135">
    <path d="M 30.021629 146.758811 
C 29.209867 148.164824 28.782417 149.76009 28.782417 151.383614 
C 28.782417 153.007139 29.209867 154.602405 30.021629 156.008418 
L 38.032024 151.383614 
z
" clip-path="url(#pb142155bc9)" style="fill: #009e73"/>
   </g>
   <g id="patch_136">
    <path d="M 30.021629 156.008418 
C 30.833391 157.414431 32.001207 158.582247 33.40722 159.394009 
C 34.813234 160.205771 36.4085 160.633222 38.032024 160.633222 
L 38.032024 151.383614 
z
" clip-path="url(#pb142155bc9)" style="fill: #cc79a7"/>
   </g>
   <g id="patch_137">
    <path d="M 38.032024 160.633222 
C 39.655548 160.633222 41.250814 160.205771 42.656828 159.394009 
C 44.062841 158.582247 45.230657 157.414431 46.042419 156.008418 
L 38.032024 151.383614 
z
" clip-path="url(#pb142155bc9)" style="fill: #56b4e9"/>
   </g>
   <g id="patch_138">
    <path d="M 46.042419 156.008418 
C 46.854181 154.602405 47.281631 153.007139 47.281631 151.383614 
C 47.281631 149.76009 46.854181 148.164824 46.042419 146.758811 
L 38.032024 151.383614 
z
" clip-path="url(#pb142155bc9)" style="fill: #d4a6c8"/>
   </g>
   <g id="patch_139">
    <path d="M 46.042419 146.758811 
C 45.230657 145.352798 44.062841 144.184982 42.656828 143.37322 
C 41.250814 142.561457 39.655548 142.134007 38.032024 142.134007 
L 38.032024 151.383614 
z
" clip-path="url(#pb142155bc9)" style="fill: #8da0cb"/>
   </g>
   <g id="patch_140">
    <path d="M 126.123521 142.134007 
C 124.499997 142.134007 122.904731 142.561457 121.498718 143.37322 
C 120.092704 144.184982 118.924888 145.352798 118.113126 146.758811 
L 126.123521 151.383614 
z
" clip-path="url(#pb142155bc9)" style="fill: #d55e00"/>
   </g>
   <g id="patch_141">
    <path d="M 118.113126 146.758811 
C 117.301364 148.164824 116.873914 149.76009 116.873914 151.383614 
C 116.873914 153.007139 117.301364 154.602405 118.113126 156.008418 
L 126.123521 151.383614 
z
" clip-path="url(#pb142155bc9)" style="fill: #f0e442"/>
   </g>
   <g id="patch_142">
    <path d="M 118.113126 156.008418 
C 118.924888 157.414431 120.092704 158.582247 121.498718 159.394009 
C 122.904731 160.205771 124.499997 160.633222 126.123521 160.633222 
L 126.123521 151.383614 
z
" clip-path="url(#pb142155bc9)" style="fill: #4e79a7"/>
   </g>
   <g id="patch_143">
    <path d="M 126.123521 160.633222 
C 127.747045 160.633222 129.342311 160.205771 130.748325 159.394009 
C 132.154338 158.582247 133.322154 157.414431 134.133916 156.008418 
L 126.123521 151.383614 
z
" clip-path="url(#pb142155bc9)" style="fill: #f28e2b"/>
   </g>
   <g id="patch_144">
    <path d="M 134.133916 156.008418 
C 134.945678 154.602405 135.373128 153.007139 135.373128 151.383614 
C 135.373128 149.76009 134.945678 148.164824 134.133916 146.758811 
L 126.123521 151.383614 
z
" clip-path="url(#pb142155bc9)" style="fill: #59a14f"/>
   </g>
   <g id="patch_145">
    <path d="M 134.133916 146.758811 
C 133.322154 145.352798 132.154338 144.184982 130.748325 143.37322 
C 129.342311 142.561457 127.747045 142.134007 126.123521 142.134007 
L 126.123521 151.383614 
z
" clip-path="url(#pb142155bc9)" style="fill: #86bcb6"/>
   </g>
   <g id="patch_146">
    <path d="M 82.077773 65.844533 
C 80.454248 65.844533 78.858982 66.271983 77.452969 67.083745 
C 76.046956 67.895507 74.87914 69.063323 74.067378 70.469336 
L 82.077773 75.09414 
z
" clip-path="url(#pb142155bc9)" style="fill: #b07aa1"/>
   </g>
   <g id="patch_147">
    <path d="M 74.067378 70.469336 
C 73.255616 71.87535 72.828165 73.470616 72.828165 75.09414 
C 72.828165 76.717664 73.255616 78.31293 74.067378 79.718944 
L 82.077773 75.09414 
z
" clip-path="url(#pb142155bc9)" style="fill: #76b7b2"/>
   </g>
   <g id="patch_148">
    <path d="M 74.067378 79.718944 
C 74.87914 81.124957 76.046956 82.292773 77.452969 83.104535 
C 78.858982 83.916297 80.454248 84.343747 82.077773 84.343747 
L 82.077773 75.09414 
z
" clip-path="url(#pb142155bc9)" style="fill: #e15759"/>
   </g>
   <g id="patch_149">
    <path d="M 82.077773 84.343747 
C 83.701297 84.343747 85.296563 83.916297 86.702576 83.104535 
C 88.108589 82.292773 89.276405 81.124957 90.088167 79.718944 
L 82.077773 75.09414 
z
" clip-path="url(#pb142155bc9)" style="fill: #edc948"/>
   </g>
   <g id="patch_150">
    <path d="M 90.088167 79.718944 
C 90.89993 78.31293 91.32738 76.717664 91.32738 75.09414 
C 91.32738 73.470616 90.89993 71.87535 90.088167 70.469336 
L 82.077773 75.09414 
z
" clip-path="url(#pb142155bc9)" style="fill: #9c755f"/>
   </g>
   <g id="patch_151">
    <path d="M 90.088167 70.469336 
C 89.276405 69.063323 88.108589 67.895507 86.702576 67.083745 
C 85.296563 66.271983 83.701297 65.844533 82.077773 65.844533 
L 82.077773 75.09414 
z
" clip-path="url(#pb142155bc9)" style="fill: #a0cbe8"/>
   </g>
   <g id="patch_152">
    <path d="M 170.16927 65.844533 
C 168.545745 65.844533 166.950479 66.271983 165.544466 67.083745 
C 164.138453 67.895507 162.970637 69.063323 162.158875 70.469336 
L 170.16927 75.09414 
z
" clip-path="url(#pb142155bc9)" style="fill: #ffbe7d"/>
   </g>
   <g id="patch_153">
    <path d="M 162.158875 70.469336 
C 161.347113 71.87535 160.919663 73.470616 160.919663 75.09414 
C 160.919663 76.717664 161.347113 78.31293 162.158875 79.718944 
L 170.16927 75.09414 
z
" clip-path="url(#pb142155bc9)" style="fill: #8cd17d"/>
   </g>
   <g id="patch_154">
    <path d="M 162.158875 79.718944 
C 162.970637 81.124957 164.138453 82.292773 165.544466 83.104535 
C 166.950479 83.916297 168.545745 84.343747 170.16927 84.343747 
L 170.16927 75.09414 
z
" clip-path="url(#pb142155bc9)" style="fill: #ff9d9a"/>
   </g>
   <g id="patch_155">
    <path d="M 170.16927 84.343747 
C 171.792794 84.343747 173.38806 83.916297 174.794073 83.104535 
C 176.200087 82.292773 177.367902 81.124957 178.179665 79.718944 
L 170.16927 75.09414 
z
" clip-path="url(#pb142155bc9)" style="fill: #f1ce63"/>
   </g>
   <g id="patch_156">
    <path d="M 178.179665 79.718944 
C 178.991427 78.31293 179.418877 76.717664 179.418877 75.09414 
C 179.418877 73.470616 178.991427 71.87535 178.179665 70.469336 
L 170.16927 75.09414 
z
" clip-path="url(#pb142155bc9)" style="fill: #bab0ac"/>
   </g>
   <g id="patch_157">
    <path d="M 178.179665 70.469336 
C 177.367902 69.063323 176.200087 67.895507 174.794073 67.083745 
C 173.38806 66.271983 171.792794 65.844533 170.16927 65.844533 
L 170.16927 75.09414 
z
" clip-path="url(#pb142155bc9)" style="fill: #8da0cb"/>
   </g>
   <g id="patch_158">
    <path d="M 61.930053 151.601056 
C 60.306529 151.601056 58.711263 152.028506 57.30525 152.840268 
C 55.899236 153.652031 54.731421 154.819846 53.919658 156.22586 
L 61.930053 160.850663 
z
" clip-path="url(#pb142155bc9)" style="fill: #d4a6c8"/>
   </g>
   <g id="patch_159">
    <path d="M 53.919658 156.22586 
C 53.107896 157.631873 52.680446 159.227139 52.680446 160.850663 
C 52.680446 162.474188 53.107896 164.069454 53.919658 165.475467 
L 61.930053 160.850663 
z
" clip-path="url(#pb142155bc9)" style="fill: #86bcb6"/>
   </g>
   <g id="patch_160">
    <path d="M 53.919658 165.475467 
C 54.731421 166.88148 55.899236 168.049296 57.30525 168.861058 
C 58.711263 169.67282 60.306529 170.10027 61.930053 170.10027 
L 61.930053 160.850663 
z
" clip-path="url(#pb142155bc9)" style="fill: #ff9d9a"/>
   </g>
   <g id="patch_161">
    <path d="M 61.930053 170.10027 
C 63.553578 170.10027 65.148844 169.67282 66.554857 168.861058 
C 67.96087 168.049296 69.128686 166.88148 69.940448 165.475467 
L 61.930053 160.850663 
z
" clip-path="url(#pb142155bc9)" style="fill: #f1ce63"/>
   </g>
   <g id="patch_162">
    <path d="M 69.940448 165.475467 
C 70.75221 164.069454 71.17966 162.474188 71.17966 160.850663 
C 71.17966 159.227139 70.75221 157.631873 69.940448 156.22586 
L 61.930053 160.850663 
z
" clip-path="url(#pb142155bc9)" style="fill: #bab0ac"/>
   </g>
   <g id="patch_163">
    <path d="M 69.940448 156.22586 
C 69.128686 154.819846 67.96087 153.652031 66.554857 152.840268 
C 65.148844 152.028506 63.553578 151.601056 61.930053 151.601056 
L 61.930053 160.850663 
z
" clip-path="url(#pb142155bc9)" style="fill: #8da0cb"/>
   </g>
   <g id="text_1">
    <!-- 1 -->
    <g style="fill: #111827" transform="translate(185.357804 187.329051) scale(0.038 -0.038)">
     <defs>
      <path id="DejaVuSans-31" d="M 794 531 
L 1825 531 
L 1825 4091 
L 703 3866 
L 703 4441 
L 1819 4666 
L 2450 4666 
L 2450 531 
L 3481 531 
L 3481 0 
L 794 0 
L 794 531 
z
" transform="scale(0.015625)"/>
     </defs>
     <use xlink:href="#DejaVuSans-31"/>
    </g>
   </g>
   <g id="text_2">
    <!-- 2 -->
    <g style="fill: #111827" transform="translate(170.675888 138.634643) scale(0.038 -0.038)">
     <defs>
      <path id="DejaVuSans-32" d="M 1228 531 
L 3431 531 
L 3431 0 
L 469 0 
L 469 531 
Q 828 903 1448 1529 
Q 2069 2156 2228 2338 
Q 2531 2678 2651 2914 
Q 2772 3150 2772 3378 
Q 2772 3750 2511 3984 
Q 2250 4219 1831 4219 
Q 1534 4219 1204 4116 
Q 875 4013 500 3803 
L 500 4441 
Q 881 4594 1212 4672 
Q 1544 4750 1819 4750 
Q 2544 4750 2975 4387 
Q 3406 4025 3406 3419 
Q 3406 3131 3298 2873 
Q 3191 2616 2906 2266 
Q 2828 2175 2409 1742 
Q 1991 1309 1228 531 
z
" transform="scale(0.015625)"/>
     </defs>
     <use xlink:href="#DejaVuSans-32"/>
    </g>
   </g>
   <g id="text_3">
    <!-- 3 -->
    <g style="fill: #111827" transform="translate(77.118588 273.085574) scale(0.038 -0.038)">
     <defs>
      <path id="DejaVuSans-33" d="M 2597 2516 
Q 3050 2419 3304 2112 
Q 3559 1806 3559 1356 
Q 3559 666 3084 287 
Q 2609 -91 1734 -91 
Q 1441 -91 1130 -33 
Q 819 25 488 141 
L 488 750 
Q 750 597 1062 519 
Q 1375 441 1716 441 
Q 2309 441 2620 675 
Q 2931 909 2931 1356 
Q 2931 1769 2642 2001 
Q 2353 2234 1838 2234 
L 1294 2234 
L 1294 2753 
L 1863 2753 
Q 2328 2753 2575 2939 
Q 2822 3125 2822 3475 
Q 2822 3834 2567 4026 
Q 2313 4219 1838 4219 
Q 1578 4219 1281 4162 
Q 984 4106 628 3988 
L 628 4550 
Q 988 4650 1302 4700 
Q 1616 4750 1894 4750 
Q 2613 4750 3031 4423 
Q 3450 4097 3450 3541 
Q 3450 3153 3228 2886 
Q 3006 2619 2597 2516 
z
" transform="scale(0.015625)"/>
     </defs>
     <use xlink:href="#DejaVuSans-33"/>
    </g>
   </g>
   <g id="text_4">
    <!-- 4 -->
    <g style="fill: #111827" transform="translate(150.528169 224.391167) scale(0.038 -0.038)">
     <defs>
      <path id="DejaVuSans-34" d="M 2419 4116 
L 825 1625 
L 2419 1625 
L 2419 4116 
z
M 2253 4666 
L 3047 4666 
L 3047 1625 
L 3713 1625 
L 3713 1100 
L 3047 1100 
L 3047 0 
L 2419 0 
L 2419 1100 
L 313 1100 
L 313 1709 
L 2253 4666 
z
" transform="scale(0.015625)"/>
     </defs>
     <use xlink:href="#DejaVuSans-34"/>
    </g>
   </g>
   <g id="text_5">
    <!-- 5 -->
    <g style="fill: #111827" transform="translate(135.846253 175.696759) scale(0.038 -0.038)">
     <defs>
      <path id="DejaVuSans-35" d="M 691 4666 
L 3169 4666 
L 3169 4134 
L 1269 4134 
L 1269 2991 
Q 1406 3038 1543 3061 
Q 1681 3084 1819 3084 
Q 2600 3084 3056 2656 
Q 3513 2228 3513 1497 
Q 3513 744 3044 326 
Q 2575 -91 1722 -91 
Q 1428 -91 1123 -41 
Q 819 9 494 109 
L 494 744 
Q 775 591 1075 516 
Q 1375 441 1709 441 
Q 2250 441 2565 725 
Q 2881 1009 2881 1497 
Q 2881 1984 2565 2268 
Q 2250 2553 1709 2553 
Q 1456 2553 1204 2497 
Q 953 2441 691 2322 
L 691 4666 
z
" transform="scale(0.015625)"/>
     </defs>
     <use xlink:href="#DejaVuSans-35"/>
    </g>
   </g>
   <g id="text_6">
    <!-- 6 -->
    <g style="fill: #111827" transform="translate(223.93775 175.696759) scale(0.038 -0.038)">
     <defs>
      <path id="DejaVuSans-36" d="M 2113 2584 
Q 1688 2584 1439 2293 
Q 1191 2003 1191 1497 
Q 1191 994 1439 701 
Q 1688 409 2113 409 
Q 2538 409 2786 701 
Q 3034 994 3034 1497 
Q 3034 2003 2786 2293 
Q 2538 2584 2113 2584 
z
M 3366 4563 
L 3366 3988 
Q 3128 4100 2886 4159 
Q 2644 4219 2406 4219 
Q 1781 4219 1451 3797 
Q 1122 3375 1075 2522 
Q 1259 2794 1537 2939 
Q 1816 3084 2150 3084 
Q 2853 3084 3261 2657 
Q 3669 2231 3669 1497 
Q 3669 778 3244 343 
Q 2819 -91 2113 -91 
Q 1303 -91 875 529 
Q 447 1150 447 2328 
Q 447 3434 972 4092 
Q 1497 4750 2381 4750 
Q 2619 4750 2861 4703 
Q 3103 4656 3366 4563 
z
" transform="scale(0.015625)"/>
     </defs>
     <use xlink:href="#DejaVuSans-36"/>
    </g>
   </g>
   <g id="text_7">
    <!-- 7 -->
    <g style="fill: #111827" transform="translate(179.892001 99.407285) scale(0.038 -0.038)">
     <defs>
      <path id="DejaVuSans-37" d="M 525 4666 
L 3525 4666 
L 3525 4397 
L 1831 0 
L 1172 0 
L 2766 4134 
L 525 4134 
L 525 4666 
z
" transform="scale(0.015625)"/>
     </defs>
     <use xlink:href="#DejaVuSans-37"/>
    </g>
   </g>
   <g id="text_8">
    <!-- 8 -->
    <g style="fill: #111827" transform="translate(165.210085 203.291826) scale(0.038 -0.038)">
     <defs>
      <path id="DejaVuSans-38" d="M 2034 2216 
Q 1584 2216 1326 1975 
Q 1069 1734 1069 1313 
Q 1069 891 1326 650 
Q 1584 409 2034 409 
Q 2484 409 2743 651 
Q 3003 894 3003 1313 
Q 3003 1734 2745 1975 
Q 2488 2216 2034 2216 
z
M 1403 2484 
Q 997 2584 770 2862 
Q 544 3141 544 3541 
Q 544 4100 942 4425 
Q 1341 4750 2034 4750 
Q 2731 4750 3128 4425 
Q 3525 4100 3525 3541 
Q 3525 3141 3298 2862 
Q 3072 2584 2669 2484 
Q 3125 2378 3379 2068 
Q 3634 1759 3634 1313 
Q 3634 634 3220 271 
Q 2806 -91 2034 -91 
Q 1263 -91 848 271 
Q 434 634 434 1313 
Q 434 1759 690 2068 
Q 947 2378 1403 2484 
z
M 1172 3481 
Q 1172 3119 1398 2916 
Q 1625 2713 2034 2713 
Q 2441 2713 2670 2916 
Q 2900 3119 2900 3481 
Q 2900 3844 2670 4047 
Q 2441 4250 2034 4250 
Q 1625 4250 1398 4047 
Q 1172 3844 1172 3481 
z
" transform="scale(0.015625)"/>
     </defs>
     <use xlink:href="#DejaVuSans-38"/>
    </g>
   </g>
   <g id="text_9">
    <!-- 9 -->
    <g style="fill: #111827" transform="translate(209.255833 127.002352) scale(0.038 -0.038)">
     <defs>
      <path id="DejaVuSans-39" d="M 703 97 
L 703 672 
Q 941 559 1184 500 
Q 1428 441 1663 441 
Q 2288 441 2617 861 
Q 2947 1281 2994 2138 
Q 2813 1869 2534 1725 
Q 2256 1581 1919 1581 
Q 1219 1581 811 2004 
Q 403 2428 403 3163 
Q 403 3881 828 4315 
Q 1253 4750 1959 4750 
Q 2769 4750 3195 4129 
Q 3622 3509 3622 2328 
Q 3622 1225 3098 567 
Q 2575 -91 1691 -91 
Q 1453 -91 1209 -44 
Q 966 3 703 97 
z
M 1959 2075 
Q 2384 2075 2632 2365 
Q 2881 2656 2881 3163 
Q 2881 3666 2632 3958 
Q 2384 4250 1959 4250 
Q 1534 4250 1286 3958 
Q 1038 3666 1038 3163 
Q 1038 2656 1286 2365 
Q 1534 2075 1959 2075 
z
" transform="scale(0.015625)"/>
     </defs>
     <use xlink:href="#DejaVuSans-39"/>
    </g>
   </g>
   <g id="text_10">
    <!-- 10 -->
    <g style="fill: #111827" transform="translate(164.00121 50.712878) scale(0.038 -0.038)">
     <defs>
      <path id="DejaVuSans-30" d="M 2034 4250 
Q 1547 4250 1301 3770 
Q 1056 3291 1056 2328 
Q 1056 1369 1301 889 
Q 1547 409 2034 409 
Q 2525 409 2770 889 
Q 3016 1369 3016 2328 
Q 3016 3291 2770 3770 
Q 2525 4250 2034 4250 
z
M 2034 4750 
Q 2819 4750 3233 4129 
Q 3647 3509 3647 2328 
Q 3647 1150 3233 529 
Q 2819 -91 2034 -91 
Q 1250 -91 836 529 
Q 422 1150 422 2328 
Q 422 3509 836 4129 
Q 1250 4750 2034 4750 
z
" transform="scale(0.015625)"/>
     </defs>
     <use xlink:href="#DejaVuSans-31"/>
     <use xlink:href="#DejaVuSans-30" transform="translate(63.623047 0)"/>
    </g>
   </g>
   <g id="text_11">
    <!-- 11 -->
    <g style="fill: #111827" transform="translate(158.535407 185.163808) scale(0.038 -0.038)">
     <use xlink:href="#DejaVuSans-31"/>
     <use xlink:href="#DejaVuSans-31" transform="translate(63.623047 0)"/>
    </g>
   </g>
   <g id="text_12">
    <!-- 12 -->
    <g style="fill: #111827" transform="translate(187.899239 212.758875) scale(0.038 -0.038)">
     <use xlink:href="#DejaVuSans-31"/>
     <use xlink:href="#DejaVuSans-32" transform="translate(63.623047 0)"/>
    </g>
   </g>
   <g id="text_13">
    <!-- 13 -->
    <g style="fill: #111827" transform="translate(55.761993 136.469401) scale(0.038 -0.038)">
     <use xlink:href="#DejaVuSans-31"/>
     <use xlink:href="#DejaVuSans-33" transform="translate(63.623047 0)"/>
    </g>
   </g>
   <g id="text_14">
    <!-- 14 -->
    <g style="fill: #111827" transform="translate(143.853491 136.469401) scale(0.038 -0.038)">
     <use xlink:href="#DejaVuSans-31"/>
     <use xlink:href="#DejaVuSans-34" transform="translate(63.623047 0)"/>
    </g>
   </g>
   <g id="text_15">
    <!-- 15 -->
    <g style="fill: #111827" transform="translate(173.217323 164.064468) scale(0.038 -0.038)">
     <use xlink:href="#DejaVuSans-31"/>
     <use xlink:href="#DejaVuSans-35" transform="translate(63.623047 0)"/>
    </g>
   </g>
   <g id="text_16">
    <!-- 16 -->
    <g style="fill: #111827" transform="translate(129.171574 87.774994) scale(0.038 -0.038)">
     <use xlink:href="#DejaVuSans-31"/>
     <use xlink:href="#DejaVuSans-36" transform="translate(63.623047 0)"/>
    </g>
   </g>
   <g id="text_17">
    <!-- 17 -->
    <g style="fill: #111827" transform="translate(70.44391 115.370061) scale(0.038 -0.038)">
     <use xlink:href="#DejaVuSans-31"/>
     <use xlink:href="#DejaVuSans-37" transform="translate(63.623047 0)"/>
    </g>
   </g>
   <g id="text_18">
    <!-- 18 -->
    <g style="fill: #111827" transform="translate(114.489658 39.080587) scale(0.038 -0.038)">
     <use xlink:href="#DejaVuSans-31"/>
     <use xlink:href="#DejaVuSans-38" transform="translate(63.623047 0)"/>
    </g>
   </g>
   <g id="text_19">
    <!-- 19 -->
    <g style="fill: #111827" transform="translate(143.853491 66.675654) scale(0.038 -0.038)">
     <use xlink:href="#DejaVuSans-31"/>
     <use xlink:href="#DejaVuSans-39" transform="translate(63.623047 0)"/>
    </g>
   </g>
   <g id="text_20">
    <!-- 20 -->
    <g style="fill: #111827" transform="translate(94.341939 277.416058) scale(0.038 -0.038)">
     <use xlink:href="#DejaVuSans-32"/>
     <use xlink:href="#DejaVuSans-30" transform="translate(63.623047 0)"/>
    </g>
   </g>
   <g id="text_21">
    <!-- 21 -->
    <g style="fill: #111827" transform="translate(50.29619 201.126584) scale(0.038 -0.038)">
     <use xlink:href="#DejaVuSans-32"/>
     <use xlink:href="#DejaVuSans-31" transform="translate(63.623047 0)"/>
    </g>
   </g>
   <g id="text_22">
    <!-- 22 -->
    <g style="fill: #111827" transform="translate(138.387687 201.126584) scale(0.038 -0.038)">
     <use xlink:href="#DejaVuSans-32"/>
     <use xlink:href="#DejaVuSans-32" transform="translate(63.623047 0)"/>
    </g>
   </g>
   <g id="text_23">
    <!-- 23 -->
    <g style="fill: #111827" transform="translate(35.614274 152.432177) scale(0.038 -0.038)">
     <use xlink:href="#DejaVuSans-32"/>
     <use xlink:href="#DejaVuSans-33" transform="translate(63.623047 0)"/>
    </g>
   </g>
   <g id="text_24">
    <!-- 24 -->
    <g style="fill: #111827" transform="translate(123.705771 152.432177) scale(0.038 -0.038)">
     <use xlink:href="#DejaVuSans-32"/>
     <use xlink:href="#DejaVuSans-34" transform="translate(63.623047 0)"/>
    </g>
   </g>
   <g id="text_25">
    <!-- 25 -->
    <g style="fill: #111827" transform="translate(79.660023 76.142703) scale(0.038 -0.038)">
     <use xlink:href="#DejaVuSans-32"/>
     <use xlink:href="#DejaVuSans-35" transform="translate(63.623047 0)"/>
    </g>
   </g>
   <g id="text_26">
    <!-- 26 -->
    <g style="fill: #111827" transform="translate(167.75152 76.142703) scale(0.038 -0.038)">
     <use xlink:href="#DejaVuSans-32"/>
     <use xlink:href="#DejaVuSans-36" transform="translate(63.623047 0)"/>
    </g>
   </g>
   <g id="text_27">
    <!-- 27 -->
    <g style="fill: #111827" transform="translate(59.512303 161.899226) scale(0.038 -0.038)">
     <use xlink:href="#DejaVuSans-32"/>
     <use xlink:href="#DejaVuSans-37" transform="translate(63.623047 0)"/>
    </g>
   </g>
  </g>
 </g>
 <defs>
  <clipPath id="pb142155bc9">
   <rect x="7.2" y="7.2" width="248.778649" height="299.99952"/>
  </clipPath>
 </defs>
</svg>
